GeoramaExtraExtended-Bold.ufo
<glyph name="exclam" format="2">
  <advance width="373.8"/>
  <unicode hex="0021"/>
  <outline>
    <contour>
      <point x="98.5" y="260.5" type="line"/>
      <point x="280.2" y="260.5" type="line"/>
      <point x="294.2" y="740.0" type="line"/>
      <point x="84.5" y="740.0" type="line"/>
    </contour>
    <contour>
      <point x="67.7" y="77.2" type="curve" smooth="yes"/>
      <point x="67.7" y="19.9"/>
      <point x="99.79999999999998" y="-7.7"/>
      <point x="186.9" y="-7.7" type="curve" smooth="yes"/>
      <point x="274.3" y="-7.7"/>
      <point x="306.09999999999997" y="19.9"/>
      <point x="306.09999999999997" y="77.2" type="curve" smooth="yes"/>
      <point x="306.09999999999997" y="135.2"/>
      <point x="274.3" y="162.79999999999998"/>
      <point x="186.9" y="162.79999999999998" type="curve" smooth="yes"/>
      <point x="99.5" y="162.79999999999998"/>
      <point x="67.7" y="135.2"/>
    </contour>
  </outline>
</glyph>
<glyph name="numbersign" format="2">
  <advance width="1045.2"/>
  <unicode hex="0023"/>
  <outline>
    <contour>
      <point x="127.20000000000002" y="435.09999999999997" type="line"/>
      <point x="244.2" y="435.09999999999997" type="line"/>
      <point x="201.70000000000005" y="266.09999999999997" type="line"/>
      <point x="90.10000000000002" y="266.09999999999997" type="line"/>
      <point x="90.10000000000002" y="147.3" type="line"/>
      <point x="173.29999999999998" y="147.3" type="line"/>
      <point x="137.40000000000003" y="0.0" type="line"/>
      <point x="360.40000000000003" y="0.0" type="line"/>
      <point x="396.29999999999995" y="147.3" type="line"/>
      <point x="552.2" y="147.3" type="line"/>
      <point x="516.3" y="0.0" type="line"/>
      <point x="739.3" y="0.0" type="line"/>
      <point x="775.2" y="147.3" type="line"/>
      <point x="918.7" y="147.3" type="line"/>
      <point x="918.7" y="266.09999999999997" type="line"/>
      <point x="803.6" y="266.09999999999997" type="line"/>
      <point x="846.1" y="435.09999999999997" type="line"/>
      <point x="955.8000000000001" y="435.09999999999997" type="line"/>
      <point x="955.8000000000001" y="552.5" type="line"/>
      <point x="873.5" y="552.5" type="line"/>
      <point x="910.5" y="700.0" type="line"/>
      <point x="687.5" y="700.0" type="line"/>
      <point x="650.5" y="552.5" type="line"/>
      <point x="494.6" y="552.5" type="line"/>
      <point x="531.5999999999999" y="700.0" type="line"/>
      <point x="308.6" y="700.0" type="line"/>
      <point x="271.6" y="552.5" type="line"/>
      <point x="127.20000000000002" y="552.5" type="line"/>
    </contour>
    <contour>
      <point x="467.2" y="435.09999999999997" type="line"/>
      <point x="623.1" y="435.09999999999997" type="line"/>
      <point x="580.6" y="266.09999999999997" type="line"/>
      <point x="424.70000000000005" y="266.09999999999997" type="line"/>
    </contour>
  </outline>
</glyph>
<glyph name="dollar" format="2">
  <advance width="1045.2"/>
  <unicode hex="0024"/>
  <outline>
    <contour>
      <point x="482.00000000000006" y="-10.0" type="curve" smooth="yes"/>
      <point x="790.4" y="-18.0"/>
      <point x="974.5999999999999" y="49.8"/>
      <point x="974.5999999999999" y="218.20000000000002" type="curve" smooth="yes"/>
      <point x="974.5999999999999" y="353.2"/>
      <point x="851.8" y="407.4"/>
      <point x="635.1999999999999" y="429.8" type="curve" smooth="yes"/>
      <point x="432.4" y="450.8"/>
      <point x="338.79999999999995" y="443.79999999999995"/>
      <point x="338.79999999999995" y="499.4" type="curve" smooth="yes"/>
      <point x="338.79999999999995" y="544.1999999999999"/>
      <point x="400.59999999999997" y="560.8"/>
      <point x="529.4" y="560.8" type="curve" smooth="yes"/>
      <point x="647.0" y="560.8"/>
      <point x="793.0" y="542.1999999999999"/>
      <point x="883.6" y="515.5999999999999" type="curve"/>
      <point x="917.5999999999999" y="667.6" type="line"/>
      <point x="812.1999999999999" y="692.3999999999999"/>
      <point x="677.6" y="710.0"/>
      <point x="552.9999999999999" y="710.0" type="curve" smooth="yes"/>
      <point x="278.8" y="709.4"/>
      <point x="110.60000000000001" y="649.8"/>
      <point x="110.60000000000001" y="476.8" type="curve" smooth="yes"/>
      <point x="110.60000000000001" y="345.6"/>
      <point x="220.6" y="296.00000000000006"/>
      <point x="392.8" y="274.59999999999997" type="curve" smooth="yes"/>
      <point x="620.0" y="246.0"/>
      <point x="741.4" y="255.2"/>
      <point x="741.4" y="196.8" type="curve" smooth="yes"/>
      <point x="741.4" y="149.79999999999998"/>
      <point x="683.0" y="134.4"/>
      <point x="545.8000000000001" y="134.4" type="curve" smooth="yes"/>
      <point x="412.20000000000005" y="134.4"/>
      <point x="240.2" y="161.2"/>
      <point x="108.4" y="202.39999999999998" type="curve"/>
      <point x="71.60000000000001" y="50.599999999999994" type="line"/>
      <point x="189.0" y="16.199999999999996"/>
      <point x="344.8" y="-6.8"/>
    </contour>
    <contour>
      <point x="471.2" y="-105.0" type="line"/>
      <point x="618.2" y="-105.0" type="line"/>
      <point x="618.2" y="7.199999999999998" type="line"/>
      <point x="471.2" y="3.3999999999999995" type="line"/>
    </contour>
    <contour>
      <point x="471.2" y="695.2" type="line"/>
      <point x="618.2" y="696.1999999999999" type="line"/>
      <point x="618.2" y="805.0" type="line"/>
      <point x="471.2" y="805.0" type="line"/>
    </contour>
  </outline>
</glyph>
<glyph name="ampersand" format="2">
  <advance width="1095.2"/>
  <unicode hex="0026"/>
  <outline>
    <contour>
      <point x="817.1999999999999" y="-3.0000000000000004" type="line"/>
      <point x="1087.3999999999999" y="2.999999999999999" type="line"/>
      <point x="494.79999999999995" y="427.2" type="line" smooth="yes"/>
      <point x="435.0" y="470.59999999999997"/>
      <point x="411.6" y="490.6"/>
      <point x="411.6" y="520.4000000000001" type="curve" smooth="yes"/>
      <point x="411.6" y="561.4"/>
      <point x="459.19999999999993" y="583.2"/>
      <point x="543.2" y="583.2" type="curve" smooth="yes"/>
      <point x="614.8000000000001" y="583.2"/>
      <point x="667.2" y="559.6"/>
      <point x="667.2" y="513.9999999999999" type="curve" smooth="yes"/>
      <point x="667.2" y="478.4"/>
      <point x="639.0" y="454.0"/>
      <point x="586.8000000000001" y="441.00000000000006" type="curve"/>
      <point x="693.2" y="365.20000000000005" type="line"/>
      <point x="822.6" y="400.2"/>
      <point x="871.4" y="455.6"/>
      <point x="871.4" y="532.6000000000001" type="curve" smooth="yes"/>
      <point x="871.4" y="647.0"/>
      <point x="754.0000000000001" y="710.0"/>
      <point x="535.0" y="710.0" type="curve" smooth="yes"/>
      <point x="284.40000000000003" y="710.0"/>
      <point x="188.4" y="628.8"/>
      <point x="188.4" y="518.8000000000001" type="curve" smooth="yes"/>
      <point x="188.4" y="460.20000000000005"/>
      <point x="204.8" y="417.6000000000001"/>
      <point x="273.6" y="368.8" type="curve" smooth="yes"/>
    </contour>
    <contour>
      <point x="442.6" y="-10.0" type="curve" smooth="yes"/>
      <point x="570.4" y="-10.0"/>
      <point x="671.2" y="13.399999999999997"/>
      <point x="753.1999999999999" y="57.80000000000001" type="curve"/>
      <point x="638.6" y="157.6" type="line"/>
      <point x="604.0" y="135.79999999999998"/>
      <point x="551.4000000000001" y="123.19999999999999"/>
      <point x="474.59999999999997" y="123.19999999999999" type="curve" smooth="yes"/>
      <point x="346.0" y="123.19999999999999"/>
      <point x="258.2" y="169.39999999999998"/>
      <point x="258.2" y="238.6" type="curve" smooth="yes"/>
      <point x="258.2" y="282.59999999999997"/>
      <point x="292.4" y="309.80000000000007"/>
      <point x="356.2" y="325.59999999999997" type="curve"/>
      <point x="251.2" y="405.99999999999994" type="line"/>
      <point x="117.0" y="377.0"/>
      <point x="54.6" y="312.2"/>
      <point x="54.6" y="217.4" type="curve" smooth="yes"/>
      <point x="54.6" y="75.00000000000001"/>
      <point x="189.39999999999998" y="-10.0"/>
    </contour>
    <contour>
      <point x="884.5999999999999" y="111.80000000000003" type="line"/>
      <point x="955.5999999999999" y="167.0"/>
      <point x="1003.6" y="237.39999999999998"/>
      <point x="1003.6" y="320.00000000000006" type="curve" smooth="yes"/>
      <point x="1003.6" y="341.0"/>
      <point x="1001.4000000000001" y="350.2"/>
      <point x="998.5999999999999" y="365.20000000000005" type="curve"/>
      <point x="834.2" y="363.4" type="line"/>
      <point x="836.5999999999999" y="347.0"/>
      <point x="836.8000000000001" y="331.8"/>
      <point x="834.0" y="318.59999999999997" type="curve" smooth="yes"/>
      <point x="826.5999999999999" y="277.80000000000007"/>
      <point x="811.4" y="244.4"/>
      <point x="757.2" y="205.79999999999998" type="curve"/>
    </contour>
  </outline>
</glyph>
<glyph name="quotesingle" format="2">
  <advance width="273.4"/>
  <unicode hex="0027"/>
  <outline>
    <contour>
      <point x="54.400000000000006" y="427.0" type="line"/>
      <point x="219.0" y="427.0" type="line"/>
      <point x="227.5" y="700.0" type="line"/>
      <point x="45.900000000000006" y="700.0" type="line"/>
    </contour>
  </outline>
</glyph>
<glyph name="parenleft" format="2">
  <advance width="489.8"/>
  <unicode hex="0028"/>
  <outline>
    <contour>
      <point x="74.30000000000001" y="265.0" type="curve" smooth="yes"/>
      <point x="74.30000000000001" y="30.599999999999998"/>
      <point x="182.20000000000002" y="-191.9"/>
      <point x="453.0" y="-220.0" type="curve"/>
      <point x="453.0" y="-96.4" type="line"/>
      <point x="298.8" y="-55.80000000000001"/>
      <point x="249.70000000000002" y="73.19999999999999"/>
      <point x="249.70000000000002" y="265.0" type="curve" smooth="yes"/>
      <point x="249.70000000000002" y="456.80000000000007"/>
      <point x="298.8" y="585.8000000000001"/>
      <point x="453.0" y="626.4000000000001" type="curve"/>
      <point x="453.0" y="750.0" type="line"/>
      <point x="182.20000000000002" y="721.9"/>
      <point x="74.30000000000001" y="499.40000000000003"/>
    </contour>
  </outline>
</glyph>
<glyph name="parenright" format="2">
  <advance width="489.8"/>
  <unicode hex="0029"/>
  <outline>
    <contour>
      <point x="36.800000000000004" y="-96.4" type="curve"/>
      <point x="36.800000000000004" y="-220.0" type="line"/>
      <point x="307.59999999999997" y="-191.9"/>
      <point x="415.5" y="30.599999999999998"/>
      <point x="415.5" y="265.0" type="curve" smooth="yes"/>
      <point x="415.5" y="499.40000000000003"/>
      <point x="307.59999999999997" y="721.9"/>
      <point x="36.800000000000004" y="750.0" type="curve"/>
      <point x="36.800000000000004" y="626.4000000000001" type="line"/>
      <point x="191.0" y="585.8000000000001"/>
      <point x="240.1" y="456.80000000000007"/>
      <point x="240.1" y="265.0" type="curve" smooth="yes"/>
      <point x="240.1" y="73.19999999999999"/>
      <point x="191.0" y="-55.80000000000001"/>
    </contour>
  </outline>
</glyph>
<glyph name="asterisk" format="2">
  <advance width="489.8"/>
  <unicode hex="002A"/>
  <outline>
    <contour>
      <point x="144.29999999999998" y="290.7" type="line"/>
      <point x="245.20000000000002" y="407.90000000000003" type="line"/>
      <point x="344.9" y="290.4" type="line"/>
      <point x="415.3" y="339.3" type="line"/>
      <point x="334.09999999999997" y="472.40000000000003" type="line"/>
      <point x="476.09999999999997" y="530.8" type="line"/>
      <point x="449.4" y="610.9" type="line"/>
      <point x="300.0" y="578.3" type="line"/>
      <point x="289.5" y="730.0" type="line"/>
      <point x="200.89999999999998" y="730.0" type="line"/>
      <point x="190.39999999999998" y="578.3" type="line"/>
      <point x="40.4" y="610.9" type="line"/>
      <point x="13.7" y="530.8" type="line"/>
      <point x="156.3" y="472.40000000000003" type="line"/>
      <point x="73.6" y="339.9" type="line"/>
    </contour>
  </outline>
</glyph>
<glyph name="plus" format="2">
  <advance width="715.4"/>
  <unicode hex="002B"/>
  <outline>
    <contour>
      <point x="268.6" y="82.5" type="line"/>
      <point x="446.1" y="82.5" type="line"/>
      <point x="446.1" y="234.89999999999998" type="line"/>
      <point x="654.5" y="234.89999999999998" type="line"/>
      <point x="654.5" y="384.4" type="line"/>
      <point x="446.1" y="384.4" type="line"/>
      <point x="446.1" y="536.1" type="line"/>
      <point x="268.6" y="536.1" type="line"/>
      <point x="268.6" y="384.4" type="line"/>
      <point x="60.89999999999999" y="384.4" type="line"/>
      <point x="60.89999999999999" y="234.89999999999998" type="line"/>
      <point x="268.6" y="234.89999999999998" type="line"/>
    </contour>
  </outline>
</glyph>
<glyph name="comma" format="2">
  <advance width="339.3"/>
  <unicode hex="002C"/>
  <outline>
    <contour>
      <point x="74.5" y="86.10000000000001" type="line"/>
      <point x="78.9" y="64.69999999999999"/>
      <point x="81.39999999999999" y="42.0"/>
      <point x="81.39999999999999" y="19.699999999999996" type="curve" smooth="yes"/>
      <point x="81.39999999999999" y="-50.2"/>
      <point x="60.7" y="-122.2"/>
      <point x="2.1000000000000014" y="-178.79999999999998" type="curve"/>
      <point x="166.89999999999998" y="-200.0" type="line"/>
      <point x="245.3" y="-138.9"/>
      <point x="284.79999999999995" y="-63.599999999999994"/>
      <point x="284.79999999999995" y="15.399999999999997" type="curve" smooth="yes"/>
      <point x="284.79999999999995" y="43.1"/>
      <point x="280.2" y="68.8"/>
      <point x="271.29999999999995" y="89.49999999999999" type="curve"/>
    </contour>
  </outline>
</glyph>
<glyph name="hyphen" format="2">
  <advance width="469.79999999999995"/>
  <unicode hex="002D"/>
  <outline>
    <contour>
      <point x="53.9" y="240.3" type="line"/>
      <point x="415.90000000000003" y="240.3" type="line"/>
      <point x="415.90000000000003" y="391.90000000000003" type="line"/>
      <point x="53.9" y="391.90000000000003" type="line"/>
    </contour>
  </outline>
</glyph>
<glyph name="period" format="2">
  <advance width="350.5"/>
  <unicode hex="002E"/>
  <outline>
    <contour>
      <point x="56.2" y="77.19999999999999" type="curve" smooth="yes"/>
      <point x="56.2" y="19.9"/>
      <point x="88.3" y="-7.699999999999999"/>
      <point x="175.4" y="-7.699999999999999" type="curve" smooth="yes"/>
      <point x="262.79999999999995" y="-7.699999999999999"/>
      <point x="294.6" y="19.9"/>
      <point x="294.6" y="77.19999999999999" type="curve" smooth="yes"/>
      <point x="294.6" y="135.2"/>
      <point x="262.79999999999995" y="162.79999999999998"/>
      <point x="175.4" y="162.79999999999998" type="curve" smooth="yes"/>
      <point x="88.0" y="162.79999999999998"/>
      <point x="56.2" y="135.2"/>
    </contour>
  </outline>
</glyph>
<glyph name="slash" format="2">
  <advance width="584.1"/>
  <unicode hex="002F"/>
  <outline>
    <contour>
      <point x="10.0" y="-210.0" type="line"/>
      <point x="174.1" y="-210.0" type="line"/>
      <point x="574.1" y="740.0" type="line"/>
      <point x="410.0" y="740.0" type="line"/>
    </contour>
  </outline>
</glyph>
<glyph name="zero" format="2">
  <advance width="1045.2"/>
  <unicode hex="0030"/>
  <outline>
    <contour>
      <point x="44.6" y="350.0" type="curve" smooth="yes"/>
      <point x="44.6" y="69.0"/>
      <point x="271.2" y="-10.0"/>
      <point x="522.6" y="-10.0" type="curve" smooth="yes"/>
      <point x="774.5999999999999" y="-10.0"/>
      <point x="1000.6" y="69.0"/>
      <point x="1000.6" y="350.0" type="curve" smooth="yes"/>
      <point x="1000.6" y="631.0"/>
      <point x="774.5999999999999" y="710.0"/>
      <point x="522.6" y="710.0" type="curve" smooth="yes"/>
      <point x="271.2" y="710.0"/>
      <point x="44.6" y="631.0"/>
    </contour>
    <contour>
      <point x="271.4" y="350.0" type="curve" smooth="yes"/>
      <point x="271.4" y="520.6"/>
      <point x="390.40000000000003" y="571.5999999999999"/>
      <point x="522.6" y="571.5999999999999" type="curve" smooth="yes"/>
      <point x="655.4" y="571.5999999999999"/>
      <point x="774.4" y="520.6"/>
      <point x="774.4" y="350.0" type="curve" smooth="yes"/>
      <point x="774.4" y="179.4"/>
      <point x="655.4" y="128.39999999999998"/>
      <point x="522.6" y="128.39999999999998" type="curve" smooth="yes"/>
      <point x="390.40000000000003" y="128.39999999999998"/>
      <point x="271.4" y="179.4"/>
    </contour>
  </outline>
</glyph>
<glyph name="one" format="2">
  <advance width="1045.2"/>
  <unicode hex="0031"/>
  <outline>
    <contour>
      <point x="147.7" y="0.0" type="line"/>
      <point x="970.6" y="0.0" type="line"/>
      <point x="970.6" y="153.0" type="line"/>
      <point x="697.2" y="153.0" type="line"/>
      <point x="697.2" y="703.0" type="line"/>
      <point x="587.2" y="703.0" type="line"/>
      <point x="130.5" y="531.9" type="line"/>
      <point x="182.6" y="383.0" type="line"/>
      <point x="475.59999999999997" y="494.6" type="line"/>
      <point x="475.59999999999997" y="153.0" type="line"/>
      <point x="147.7" y="153.0" type="line"/>
    </contour>
  </outline>
</glyph>
<glyph name="two" format="2">
  <advance width="1045.2"/>
  <unicode hex="0032"/>
  <outline>
    <contour>
      <point x="88.6" y="115.99999999999999" type="curve"/>
      <point x="91.0" y="0.0" type="line"/>
      <point x="965.9999999999999" y="0.0" type="line"/>
      <point x="965.9999999999999" y="153.0" type="line"/>
      <point x="494.40000000000003" y="153.0" type="line"/>
      <point x="768.2" y="266.2"/>
      <point x="869.0000000000001" y="339.4"/>
      <point x="869.0000000000001" y="473.6" type="curve" smooth="yes"/>
      <point x="869.0000000000001" y="616.1999999999999"/>
      <point x="736.0" y="710.0"/>
      <point x="488.20000000000005" y="710.0" type="curve" smooth="yes"/>
      <point x="361.59999999999997" y="710.0"/>
      <point x="204.39999999999998" y="676.1999999999999"/>
      <point x="107.00000000000001" y="627.8" type="curve"/>
      <point x="162.2" y="484.00000000000006" type="line"/>
      <point x="259.6" y="524.4"/>
      <point x="361.0" y="545.8"/>
      <point x="452.5999999999999" y="545.8" type="curve" smooth="yes"/>
      <point x="592.8" y="545.8"/>
      <point x="641.2" y="503.20000000000005"/>
      <point x="641.2" y="442.2" type="curve" smooth="yes"/>
      <point x="641.2" y="346.40000000000003"/>
      <point x="521.6" y="286.0"/>
    </contour>
  </outline>
</glyph>
<glyph name="three" format="2">
  <advance width="1045.2"/>
  <unicode hex="0033"/>
  <outline>
    <contour>
      <point x="52.39999999999999" y="56.2" type="line"/>
      <point x="166.20000000000002" y="12.200000000000003"/>
      <point x="298.0" y="-9.0"/>
      <point x="474.2" y="-9.0" type="curve" smooth="yes"/>
      <point x="802.8000000000001" y="-9.0"/>
      <point x="964.0" y="68.8"/>
      <point x="964.0" y="209.6" type="curve" smooth="yes"/>
      <point x="964.0" y="293.59999999999997"/>
      <point x="895.0000000000001" y="349.40000000000003"/>
      <point x="766.6" y="365.4" type="curve"/>
      <point x="869.2" y="382.0"/>
      <point x="925.2" y="433.0"/>
      <point x="925.2" y="516.0" type="curve" smooth="yes"/>
      <point x="925.2" y="642.1999999999999"/>
      <point x="807.2" y="710.0"/>
      <point x="493.8" y="710.0" type="curve" smooth="yes"/>
      <point x="333.2" y="710.0"/>
      <point x="176.4" y="691.8"/>
      <point x="94.80000000000001" y="662.9999999999999" type="curve"/>
      <point x="124.99999999999999" y="514.6" type="line"/>
      <point x="220.79999999999998" y="540.8"/>
      <point x="339.4" y="555.1999999999999"/>
      <point x="458.20000000000005" y="555.1999999999999" type="curve" smooth="yes"/>
      <point x="631.2" y="555.1999999999999"/>
      <point x="710.2" y="532.1999999999999"/>
      <point x="710.2" y="487.4" type="curve" smooth="yes"/>
      <point x="710.2" y="440.8"/>
      <point x="647.0" y="420.59999999999997"/>
      <point x="473.79999999999995" y="420.59999999999997" type="curve" smooth="yes"/>
      <point x="272.20000000000005" y="420.59999999999997" type="line"/>
      <point x="272.20000000000005" y="289.0" type="line"/>
      <point x="445.19999999999993" y="289.0" type="line" smooth="yes"/>
      <point x="643.2" y="289.0"/>
      <point x="741.0" y="269.0"/>
      <point x="741.0" y="220.8" type="curve" smooth="yes"/>
      <point x="741.0" y="168.6"/>
      <point x="666.6" y="143.60000000000002"/>
      <point x="466.2" y="143.60000000000002" type="curve" smooth="yes"/>
      <point x="326.8" y="143.60000000000002"/>
      <point x="183.0" y="162.8"/>
      <point x="89.4" y="196.0" type="curve"/>
    </contour>
  </outline>
</glyph>
<glyph name="four" format="2">
  <advance width="1045.2"/>
  <unicode hex="0034"/>
  <outline>
    <contour>
      <point x="23.800000000000004" y="125.19999999999999" type="line"/>
      <point x="597.0" y="125.19999999999999" type="line"/>
      <point x="597.0" y="0.0" type="line"/>
      <point x="817.8000000000001" y="0.0" type="line"/>
      <point x="817.8000000000001" y="125.19999999999999" type="line"/>
      <point x="991.5999999999999" y="125.19999999999999" type="line"/>
      <point x="991.5999999999999" y="256.79999999999995" type="line"/>
      <point x="817.8000000000001" y="256.79999999999995" type="line"/>
      <point x="817.8000000000001" y="700.0" type="line"/>
      <point x="683.8" y="703.0" type="line"/>
      <point x="22.599999999999998" y="241.00000000000003" type="line"/>
    </contour>
    <contour>
      <point x="267.0" y="256.79999999999995" type="line"/>
      <point x="597.0" y="480.80000000000007" type="line"/>
      <point x="597.0" y="256.79999999999995" type="line"/>
    </contour>
  </outline>
</glyph>
<glyph name="five" format="2">
  <advance width="1045.2"/>
  <unicode hex="0035"/>
  <outline>
    <contour>
      <point x="64.5" y="55.5" type="line"/>
      <point x="184.8" y="8.8"/>
      <point x="315.59999999999997" y="-9.7"/>
      <point x="479.0" y="-9.7" type="curve" smooth="yes"/>
      <point x="784.9" y="-9.7"/>
      <point x="964.4000000000001" y="63.099999999999994"/>
      <point x="964.4000000000001" y="233.2" type="curve" smooth="yes"/>
      <point x="964.4000000000001" y="399.29999999999995"/>
      <point x="821.8000000000001" y="436.09999999999997"/>
      <point x="544.5999999999999" y="436.1" type="curve" smooth="yes"/>
      <point x="308.0" y="436.09999999999997" type="line"/>
      <point x="329.5" y="547.0" type="line"/>
      <point x="898.3" y="547.0" type="line"/>
      <point x="898.3" y="700.0" type="line"/>
      <point x="181.2" y="700.0" type="line"/>
      <point x="114.5" y="309.5" type="line"/>
      <point x="125.19999999999999" y="301.3" type="line"/>
      <point x="473.59999999999997" y="301.3" type="line" smooth="yes"/>
      <point x="706.0" y="301.3"/>
      <point x="748.4000000000001" y="273.2"/>
      <point x="748.4000000000001" y="224.1" type="curve" smooth="yes"/>
      <point x="748.4000000000001" y="166.2"/>
      <point x="675.4" y="138.39999999999998"/>
      <point x="470.6" y="138.39999999999998" type="curve" smooth="yes"/>
      <point x="321.0" y="138.39999999999998"/>
      <point x="190.0" y="159.7"/>
      <point x="103.9" y="191.1" type="curve"/>
    </contour>
  </outline>
</glyph>
<glyph name="six" format="2">
  <advance width="1045.2"/>
  <unicode hex="0036"/>
  <outline>
    <contour>
      <point x="546.6" y="-10.0" type="curve" smooth="yes"/>
      <point x="841.2" y="-10.0"/>
      <point x="999.1999999999999" y="73.0"/>
      <point x="999.1999999999999" y="231.60000000000002" type="curve" smooth="yes"/>
      <point x="999.1999999999999" y="377.20000000000005"/>
      <point x="870.0" y="449.8"/>
      <point x="620.1999999999999" y="449.8" type="curve" smooth="yes"/>
      <point x="471.2" y="449.8"/>
      <point x="333.79999999999995" y="423.4"/>
      <point x="240.99999999999997" y="375.40000000000003" type="curve"/>
      <point x="243.4" y="248.8" type="line"/>
      <point x="341.2" y="278.8"/>
      <point x="449.79999999999995" y="307.6"/>
      <point x="564.0" y="307.6" type="curve" smooth="yes"/>
      <point x="710.4" y="307.6"/>
      <point x="781.8000000000001" y="284.40000000000003"/>
      <point x="781.8000000000001" y="225.8" type="curve" smooth="yes"/>
      <point x="781.8000000000001" y="167.6"/>
      <point x="709.8000000000001" y="135.99999999999997"/>
      <point x="573.2" y="135.99999999999997" type="curve" smooth="yes"/>
      <point x="350.20000000000005" y="135.99999999999997"/>
      <point x="263.2" y="205.4"/>
      <point x="263.2" y="341.0" type="curve" smooth="yes"/>
      <point x="263.2" y="490.6"/>
      <point x="379.79999999999995" y="556.0"/>
      <point x="610.8" y="556.0" type="curve" smooth="yes"/>
      <point x="737.2" y="556.0"/>
      <point x="813.1999999999999" y="544.5999999999999"/>
      <point x="925.0000000000001" y="521.0" type="curve"/>
      <point x="957.0000000000001" y="669.0" type="line"/>
      <point x="870.4" y="694.4"/>
      <point x="752.9999999999999" y="710.0"/>
      <point x="587.8" y="710.0" type="curve" smooth="yes"/>
      <point x="235.0" y="710.0"/>
      <point x="49.0" y="576.0"/>
      <point x="49.0" y="334.20000000000005" type="curve" smooth="yes"/>
      <point x="49.0" y="106.4"/>
      <point x="213.4" y="-10.0"/>
    </contour>
  </outline>
</glyph>
<glyph name="seven" format="2">
  <advance width="1045.2"/>
  <unicode hex="0037"/>
  <outline>
    <contour>
      <point x="303.6" y="0.0" type="curve"/>
      <point x="534.0" y="0.0" type="line"/>
      <point x="539.6" y="109.2"/>
      <point x="597.2" y="205.60000000000002"/>
      <point x="719.8000000000001" y="329.8" type="curve" smooth="yes"/>
      <point x="959.8" y="573.3999999999999" type="line"/>
      <point x="959.8" y="700.0" type="line"/>
      <point x="102.8" y="700.0" type="line"/>
      <point x="102.8" y="544.0" type="line"/>
      <point x="688.8" y="544.0" type="line"/>
      <point x="488.2" y="346.4" type="line" smooth="yes"/>
      <point x="350.20000000000005" y="211.4"/>
      <point x="303.6" y="123.6"/>
    </contour>
  </outline>
</glyph>
<glyph name="eight" format="2">
  <advance width="1045.2"/>
  <unicode hex="0038"/>
  <outline>
    <contour>
      <point x="640.4" y="400.0" type="curve"/>
      <point x="811.0" y="366.6" type="line"/>
      <point x="912.0" y="399.40000000000003"/>
      <point x="950.4000000000001" y="465.40000000000003"/>
      <point x="950.4000000000001" y="522.8" type="curve" smooth="yes"/>
      <point x="950.4000000000001" y="642.6"/>
      <point x="798.2" y="710.0"/>
      <point x="519.8" y="710.0" type="curve" smooth="yes"/>
      <point x="245.0" y="710.0"/>
      <point x="93.80000000000001" y="636.8000000000001"/>
      <point x="93.80000000000001" y="498.20000000000005" type="curve" smooth="yes"/>
      <point x="93.80000000000001" y="188.6"/>
      <point x="771.8000000000001" y="341.40000000000003"/>
      <point x="771.8000000000001" y="197.4" type="curve" smooth="yes"/>
      <point x="771.8000000000001" y="144.4"/>
      <point x="692.0" y="120.79999999999998"/>
      <point x="539.8" y="120.79999999999998" type="curve" smooth="yes"/>
      <point x="356.6" y="120.79999999999998"/>
      <point x="259.4" y="155.6"/>
      <point x="259.4" y="218.4" type="curve" smooth="yes"/>
      <point x="259.4" y="257.40000000000003"/>
      <point x="296.59999999999997" y="288.6"/>
      <point x="368.2" y="315.40000000000003" type="curve"/>
      <point x="213.00000000000003" y="376.6" type="line"/>
      <point x="92.4" y="351.00000000000006"/>
      <point x="35.6" y="277.0"/>
      <point x="35.6" y="204.4" type="curve" smooth="yes"/>
      <point x="35.6" y="65.0"/>
      <point x="201.0" y="-10.0"/>
      <point x="521.1999999999999" y="-10.0" type="curve" smooth="yes"/>
      <point x="852.8000000000001" y="-10.0"/>
      <point x="1010.5999999999999" y="59.800000000000004"/>
      <point x="1010.5999999999999" y="218.8" type="curve" smooth="yes"/>
      <point x="1010.5999999999999" y="501.19999999999993"/>
      <point x="305.59999999999997" y="380.0"/>
      <point x="305.59999999999997" y="505.79999999999995" type="curve" smooth="yes"/>
      <point x="305.59999999999997" y="551.0"/>
      <point x="364.8" y="575.9999999999999"/>
      <point x="515.8000000000001" y="575.9999999999999" type="curve" smooth="yes"/>
      <point x="668.0" y="575.9999999999999"/>
      <point x="742.2" y="545.8"/>
      <point x="742.2" y="496.8" type="curve" smooth="yes"/>
      <point x="742.2" y="460.2"/>
      <point x="716.8000000000001" y="433.2"/>
    </contour>
  </outline>
</glyph>
<glyph name="nine" format="2">
  <advance width="1045.2"/>
  <unicode hex="0039"/>
  <outline>
    <contour>
      <point x="464.0" y="-10.0" type="curve" smooth="yes"/>
      <point x="816.8000000000001" y="-10.0"/>
      <point x="996.8" y="119.79999999999998"/>
      <point x="996.8" y="355.2" type="curve" smooth="yes"/>
      <point x="996.8" y="590.0"/>
      <point x="832.4" y="710.0"/>
      <point x="511.2" y="710.0" type="curve" smooth="yes"/>
      <point x="211.8" y="710.0"/>
      <point x="45.800000000000004" y="627.1999999999999"/>
      <point x="45.800000000000004" y="471.4" type="curve" smooth="yes"/>
      <point x="45.800000000000004" y="323.0"/>
      <point x="181.0" y="250.59999999999997"/>
      <point x="423.6" y="250.59999999999997" type="curve" smooth="yes"/>
      <point x="581.4000000000001" y="250.59999999999997"/>
      <point x="715.2" y="273.6"/>
      <point x="804.8" y="322.20000000000005" type="curve"/>
      <point x="802.4" y="448.2" type="line"/>
      <point x="704.6" y="416.20000000000005"/>
      <point x="598.4000000000001" y="389.2"/>
      <point x="488.2" y="389.2" type="curve" smooth="yes"/>
      <point x="340.8" y="389.2"/>
      <point x="263.59999999999997" y="416.4"/>
      <point x="263.59999999999997" y="476.0" type="curve" smooth="yes"/>
      <point x="263.59999999999997" y="537.1999999999999"/>
      <point x="349.20000000000005" y="564.5999999999999"/>
      <point x="487.4" y="564.5999999999999" type="curve" smooth="yes"/>
      <point x="678.8" y="564.5999999999999"/>
      <point x="783.4000000000001" y="505.20000000000005"/>
      <point x="783.4000000000001" y="359.79999999999995" type="curve" smooth="yes"/>
      <point x="783.4000000000001" y="210.2"/>
      <point x="674.4" y="141.6"/>
      <point x="435.40000000000003" y="141.6" type="curve" smooth="yes"/>
      <point x="329.0" y="141.6"/>
      <point x="243.0" y="155.39999999999998"/>
      <point x="119.60000000000001" y="178.79999999999998" type="curve"/>
      <point x="88.39999999999999" y="31.599999999999998" type="line"/>
      <point x="187.0" y="5.599999999999999"/>
      <point x="310.8" y="-10.0"/>
    </contour>
  </outline>
</glyph>
<glyph name="less" format="2">
  <advance width="715.4"/>
  <unicode hex="003C"/>
  <outline>
    <contour>
      <point x="654.5" y="35.4" type="line"/>
      <point x="654.5" y="191.09999999999997" type="line"/>
      <point x="239.7" y="309.29999999999995" type="line"/>
      <point x="654.5" y="427.4" type="line"/>
      <point x="654.5" y="584.2" type="line"/>
      <point x="60.900000000000006" y="383.0" type="line"/>
      <point x="60.900000000000006" y="233.5" type="line"/>
    </contour>
  </outline>
</glyph>
<glyph name="equal" format="2">
  <advance width="715.4"/>
  <unicode hex="003D"/>
  <outline>
    <contour>
      <point x="654.5" y="265.6" type="line"/>
      <point x="60.89999999999999" y="265.6" type="line"/>
      <point x="60.89999999999999" y="116.10000000000001" type="line"/>
      <point x="654.5" y="116.10000000000001" type="line"/>
    </contour>
    <contour>
      <point x="654.5" y="504.1" type="line"/>
      <point x="60.89999999999999" y="504.1" type="line"/>
      <point x="60.89999999999999" y="354.6" type="line"/>
      <point x="654.5" y="354.6" type="line"/>
    </contour>
  </outline>
</glyph>
<glyph name="greater" format="2">
  <advance width="715.4"/>
  <unicode hex="003E"/>
  <outline>
    <contour>
      <point x="654.5" y="233.5" type="line"/>
      <point x="654.5" y="383.0" type="line"/>
      <point x="60.900000000000006" y="584.2" type="line"/>
      <point x="60.900000000000006" y="427.1" type="line"/>
      <point x="475.7" y="309.3" type="line"/>
      <point x="60.900000000000006" y="191.10000000000002" type="line"/>
      <point x="60.900000000000006" y="35.4" type="line"/>
    </contour>
  </outline>
</glyph>
<glyph name="question" format="2">
  <advance width="730.0"/>
  <unicode hex="003F"/>
  <outline>
    <contour>
      <point x="250.4" y="259.6" type="line"/>
      <point x="432.09999999999997" y="259.6" type="line"/>
      <point x="433.5" y="310.2" type="line"/>
      <point x="631.9000000000001" y="352.2"/>
      <point x="704.8" y="416.8"/>
      <point x="704.8" y="524.7" type="curve" smooth="yes"/>
      <point x="704.8" y="692.7"/>
      <point x="535.1" y="750.0"/>
      <point x="372.8" y="750.0" type="curve" smooth="yes"/>
      <point x="261.5" y="750.0"/>
      <point x="111.6" y="716.9"/>
      <point x="19.0" y="663.0" type="curve"/>
      <point x="68.89999999999999" y="521.1" type="line"/>
      <point x="158.8" y="563.9"/>
      <point x="255.0" y="591.4"/>
      <point x="337.1" y="591.4" type="curve" smooth="yes"/>
      <point x="416.6" y="591.4"/>
      <point x="480.40000000000003" y="574.5"/>
      <point x="480.40000000000003" y="515.6" type="curve" smooth="yes"/>
      <point x="480.40000000000003" y="472.9"/>
      <point x="450.20000000000005" y="441.59999999999997"/>
      <point x="245.5" y="407.40000000000003" type="curve"/>
    </contour>
    <contour>
      <point x="223.10000000000002" y="77.2" type="curve" smooth="yes"/>
      <point x="223.10000000000002" y="19.9"/>
      <point x="255.2" y="-7.7"/>
      <point x="342.3" y="-7.7" type="curve" smooth="yes"/>
      <point x="429.7" y="-7.7"/>
      <point x="461.5" y="19.9"/>
      <point x="461.5" y="77.2" type="curve" smooth="yes"/>
      <point x="461.5" y="135.2"/>
      <point x="429.7" y="162.79999999999998"/>
      <point x="342.3" y="162.79999999999998" type="curve" smooth="yes"/>
      <point x="254.9" y="162.79999999999998"/>
      <point x="223.10000000000002" y="135.2"/>
    </contour>
  </outline>
</glyph>
<glyph name="at" format="2">
  <advance width="1137.8"/>
  <unicode hex="0040"/>
  <outline>
    <contour>
      <point x="517.6" y="-123.99999999999999" type="curve" smooth="yes"/>
      <point x="614.0" y="-123.99999999999999"/>
      <point x="714.4" y="-109.8"/>
      <point x="801.5999999999999" y="-87.59999999999998" type="curve"/>
      <point x="778.1999999999999" y="4.799999999999996" type="line"/>
      <point x="708.0" y="-15.600000000000014"/>
      <point x="619.0" y="-28.80000000000001"/>
      <point x="535.0000000000001" y="-28.80000000000001" type="curve" smooth="yes"/>
      <point x="320.6" y="-28.80000000000001"/>
      <point x="155.2" y="45.0"/>
      <point x="155.2" y="263.59999999999997" type="curve" smooth="yes"/>
      <point x="155.2" y="459.6"/>
      <point x="312.20000000000005" y="618.2"/>
      <point x="580.8" y="618.2" type="curve" smooth="yes"/>
      <point x="844.0" y="618.2"/>
      <point x="986.6" y="514.0000000000001"/>
      <point x="986.6" y="328.4" type="curve" smooth="yes"/>
      <point x="986.6" y="203.79999999999998"/>
      <point x="940.6" y="149.2"/>
      <point x="889.1999999999999" y="151.2" type="curve" smooth="yes"/>
      <point x="852.8000000000001" y="151.2"/>
      <point x="831.2" y="176.8"/>
      <point x="835.8" y="236.80000000000004" type="curve" smooth="yes"/>
      <point x="853.2000000000002" y="474.2000000000001" type="line"/>
      <point x="778.0000000000001" y="498.00000000000006"/>
      <point x="674.6" y="515.4000000000001"/>
      <point x="604.0" y="515.4000000000001" type="curve" smooth="yes"/>
      <point x="400.80000000000007" y="515.4000000000001"/>
      <point x="275.59999999999997" y="410.59999999999997"/>
      <point x="275.59999999999997" y="260.2" type="curve" smooth="yes"/>
      <point x="275.59999999999997" y="141.39999999999998"/>
      <point x="353.59999999999997" y="63.000000000000014"/>
      <point x="481.20000000000005" y="63.000000000000014" type="curve" smooth="yes"/>
      <point x="577.8" y="63.000000000000014"/>
      <point x="657.6" y="117.0"/>
      <point x="699.4" y="186.60000000000002" type="curve"/>
      <point x="717.4000000000001" y="110.4"/>
      <point x="760.6" y="54.60000000000001"/>
      <point x="862.0000000000001" y="54.60000000000001" type="curve" smooth="yes"/>
      <point x="1021.2" y="50.60000000000001"/>
      <point x="1091.0000000000002" y="186.60000000000002"/>
      <point x="1091.0000000000002" y="328.8" type="curve" smooth="yes"/>
      <point x="1091.0000000000002" y="565.6"/>
      <point x="908.5999999999999" y="710.0"/>
      <point x="596.1999999999999" y="710.0" type="curve" smooth="yes"/>
      <point x="254.0" y="710.0"/>
      <point x="47.39999999999999" y="514.0"/>
      <point x="47.39999999999999" y="261.59999999999997" type="curve" smooth="yes"/>
      <point x="47.39999999999999" y="-20.6"/>
      <point x="249.20000000000005" y="-123.99999999999999"/>
    </contour>
    <contour>
      <point x="536.4" y="180.4" type="curve" smooth="yes"/>
      <point x="483.4" y="180.4"/>
      <point x="445.4" y="215.39999999999998"/>
      <point x="445.4" y="281.6" type="curve" smooth="yes"/>
      <point x="445.4" y="360.8"/>
      <point x="507.39999999999986" y="404.20000000000005"/>
      <point x="585.9999999999999" y="404.20000000000005" type="curve" smooth="yes"/>
      <point x="621.4" y="404.20000000000005"/>
      <point x="653.1999999999999" y="401.40000000000003"/>
      <point x="690.1999999999999" y="389.40000000000003" type="curve"/>
      <point x="680.8" y="290.4" type="line" smooth="yes"/>
      <point x="651.1999999999999" y="217.00000000000003"/>
      <point x="594.5999999999999" y="180.4"/>
    </contour>
  </outline>
</glyph>
<glyph name="A" format="2">
  <advance width="1071.0"/>
  <unicode hex="0041"/>
  <anchor x="1064.8" y="0.0" name="ogonek"/>
  <anchor x="525.0" y="0.0" name="bottom"/>
  <anchor x="537.2" y="700.0" name="top"/>
  <outline>
    <contour>
      <point x="6.8" y="0.0" type="line"/>
      <point x="254.59999999999997" y="0.0" type="line"/>
      <point x="324.8" y="130.0" type="line"/>
      <point x="727.4" y="130.0" type="line"/>
      <point x="798.1999999999999" y="0.0" type="line"/>
      <point x="1064.8" y="0.0" type="line"/>
      <point x="652.1999999999999" y="703.0" type="line"/>
      <point x="418.8" y="703.0" type="line"/>
    </contour>
    <contour>
      <point x="389.0" y="275.0" type="line"/>
      <point x="526.4000000000001" y="530.0" type="line"/>
      <point x="663.1999999999999" y="275.0" type="line"/>
    </contour>
  </outline>
</glyph>
<glyph name="B" format="2">
  <advance width="1076.0"/>
  <unicode hex="0042"/>
  <anchor x="537.4" y="700.0" name="top"/>
  <anchor x="537.4" y="0.0" name="bottom"/>
  <outline>
    <contour>
      <point x="95.39999999999999" y="5.0" type="line"/>
      <point x="351.6" y="-8.000000000000002"/>
      <point x="385.40000000000003" y="-10.0"/>
      <point x="557.4" y="-10.0" type="curve" smooth="yes"/>
      <point x="929.3999999999999" y="-10.0"/>
      <point x="1039.3999999999999" y="41.0"/>
      <point x="1039.3999999999999" y="204.8" type="curve" smooth="yes"/>
      <point x="1039.3999999999999" y="305.59999999999997"/>
      <point x="955.2" y="371.6"/>
      <point x="815.4" y="386.0" type="curve"/>
      <point x="815.4" y="388.0" type="line"/>
      <point x="928.4" y="415.8"/>
      <point x="976.0" y="463.0"/>
      <point x="976.0" y="547.0" type="curve" smooth="yes"/>
      <point x="976.0" y="668.8"/>
      <point x="868.4" y="710.0"/>
      <point x="550.8000000000001" y="710.0" type="curve" smooth="yes"/>
      <point x="432.40000000000003" y="710.0"/>
      <point x="295.20000000000005" y="705.5999999999999"/>
      <point x="95.39999999999999" y="695.0" type="curve"/>
    </contour>
    <contour>
      <point x="325.40000000000003" y="423.0" type="line"/>
      <point x="325.40000000000003" y="553.4" type="line"/>
      <point x="440.8" y="559.4"/>
      <point x="450.6" y="560.4"/>
      <point x="532.5999999999999" y="560.4" type="curve" smooth="yes"/>
      <point x="701.4" y="560.4"/>
      <point x="750.1999999999999" y="542.8"/>
      <point x="750.1999999999999" y="491.6" type="curve" smooth="yes"/>
      <point x="750.1999999999999" y="449.6"/>
      <point x="701.0" y="423.0"/>
      <point x="621.5999999999999" y="423.0" type="curve" smooth="yes"/>
    </contour>
    <contour>
      <point x="325.40000000000003" y="146.6" type="curve"/>
      <point x="325.40000000000003" y="288.20000000000005" type="line"/>
      <point x="621.0" y="288.20000000000005" type="line" smooth="yes"/>
      <point x="746.8" y="288.20000000000005"/>
      <point x="795.8" y="266.2"/>
      <point x="795.8" y="216.99999999999997" type="curve" smooth="yes"/>
      <point x="795.8" y="158.2"/>
      <point x="740.8" y="139.6"/>
      <point x="533.0" y="139.6" type="curve" smooth="yes"/>
      <point x="481.40000000000003" y="139.6"/>
      <point x="416.4" y="141.6"/>
    </contour>
  </outline>
</glyph>
<glyph name="C" format="2">
  <advance width="1065.3"/>
  <unicode hex="0043"/>
  <anchor x="580.1" y="700.0" name="top"/>
  <anchor x="566.1" y="0.0" name="bottom"/>
  <outline>
    <contour>
      <point x="52.800000000000004" y="330.0" type="curve" smooth="yes"/>
      <point x="52.800000000000004" y="91.29999999999998"/>
      <point x="239.89999999999998" y="-10.0"/>
      <point x="578.3" y="-10.0" type="curve" smooth="yes"/>
      <point x="785.3000000000001" y="-10.0"/>
      <point x="902.0" y="13.2"/>
      <point x="1015.4000000000001" y="42.900000000000006" type="curve"/>
      <point x="974.4000000000001" y="189.6" type="line"/>
      <point x="860.3" y="164.8"/>
      <point x="730.9000000000001" y="149.29999999999998"/>
      <point x="611.2" y="149.29999999999998" type="curve" smooth="yes"/>
      <point x="388.0" y="149.29999999999998"/>
      <point x="289.1" y="213.5"/>
      <point x="289.1" y="337.7" type="curve" smooth="yes"/>
      <point x="289.1" y="475.90000000000003"/>
      <point x="387.1" y="547.2"/>
      <point x="621.7" y="547.2" type="curve" smooth="yes"/>
      <point x="722.7" y="547.2"/>
      <point x="824.7" y="536.2"/>
      <point x="939.5000000000001" y="515.3000000000001" type="curve"/>
      <point x="984.6999999999999" y="669.0" type="line"/>
      <point x="863.5999999999999" y="699.0"/>
      <point x="779.5" y="710.0"/>
      <point x="611.2" y="710.0" type="curve" smooth="yes"/>
      <point x="249.5" y="710.0"/>
      <point x="52.800000000000004" y="588.3"/>
    </contour>
  </outline>
</glyph>
<glyph name="D" format="2">
  <advance width="1143.1999999999998"/>
  <unicode hex="0044"/>
  <anchor x="568.2" y="700.0" name="top"/>
  <outline>
    <contour>
      <point x="563.3999999999999" y="-10.0" type="curve" smooth="yes"/>
      <point x="900.1999999999999" y="-10.0"/>
      <point x="1090.4" y="113.19999999999999"/>
      <point x="1090.4" y="343.40000000000003" type="curve" smooth="yes"/>
      <point x="1090.4" y="595.8"/>
      <point x="915.5999999999999" y="710.0"/>
      <point x="535.4" y="710.0" type="curve" smooth="yes"/>
      <point x="385.2" y="710.0"/>
      <point x="259.8" y="707.0"/>
      <point x="95.39999999999999" y="700.0" type="curve"/>
      <point x="95.39999999999999" y="0.0" type="line"/>
      <point x="243.4" y="-3.9999999999999996"/>
      <point x="381.6" y="-10.0"/>
    </contour>
    <contour>
      <point x="574.4" y="135.6" type="curve" smooth="yes"/>
      <point x="489.2" y="135.6"/>
      <point x="403.8" y="139.2"/>
      <point x="325.40000000000003" y="141.8" type="curve"/>
      <point x="325.40000000000003" y="559.6" type="line"/>
      <point x="389.6" y="563.8"/>
      <point x="478.6" y="565.4"/>
      <point x="560.4" y="565.4" type="curve" smooth="yes"/>
      <point x="752.5999999999999" y="565.4"/>
      <point x="856.6" y="488.00000000000006"/>
      <point x="856.6" y="345.8" type="curve" smooth="yes"/>
      <point x="856.6" y="215.0"/>
      <point x="746.8" y="135.6"/>
    </contour>
  </outline>
</glyph>
<glyph name="E" format="2">
  <advance width="1010.9999999999999"/>
  <unicode hex="0045"/>
  <anchor x="964.9999999999999" y="0.0" name="ogonek"/>
  <anchor x="530.4" y="0.0" name="bottom"/>
  <anchor x="537.1999999999999" y="700.0" name="top"/>
  <outline>
    <contour>
      <point x="95.39999999999999" y="0.0" type="line"/>
      <point x="964.9999999999999" y="0.0" type="line"/>
      <point x="964.9999999999999" y="160.0" type="line"/>
      <point x="321.40000000000003" y="160.0" type="line"/>
      <point x="321.40000000000003" y="287.40000000000003" type="line"/>
      <point x="904.0" y="287.40000000000003" type="line"/>
      <point x="904.0" y="434.40000000000003" type="line"/>
      <point x="321.40000000000003" y="434.40000000000003" type="line"/>
      <point x="321.40000000000003" y="540.0" type="line"/>
      <point x="936.0" y="540.0" type="line"/>
      <point x="936.0" y="700.0" type="line"/>
      <point x="95.39999999999999" y="700.0" type="line"/>
    </contour>
  </outline>
</glyph>
<glyph name="F" format="2">
  <advance width="958.1999999999999"/>
  <unicode hex="0046"/>
  <outline>
    <contour>
      <point x="95.39999999999999" y="0.0" type="line"/>
      <point x="325.4" y="0.0" type="line"/>
      <point x="325.4" y="211.40000000000003" type="line"/>
      <point x="855.9999999999999" y="211.40000000000003" type="line"/>
      <point x="855.9999999999999" y="370.4" type="line"/>
      <point x="325.40000000000003" y="370.4" type="line"/>
      <point x="325.40000000000003" y="534.0" type="line"/>
      <point x="929.0" y="534.0" type="line"/>
      <point x="929.0" y="700.0" type="line"/>
      <point x="95.39999999999999" y="700.0" type="line"/>
    </contour>
  </outline>
</glyph>
<glyph name="G" format="2">
  <advance width="1098.3000000000002"/>
  <unicode hex="0047"/>
  <anchor x="572.7" y="700.0" name="top"/>
  <anchor x="565.3" y="0.0" name="bottom"/>
  <outline>
    <contour>
      <point x="52.800000000000004" y="330.0" type="curve" smooth="yes"/>
      <point x="52.800000000000004" y="104.7"/>
      <point x="223.89999999999998" y="-10.0"/>
      <point x="558.3000000000001" y="-10.0" type="curve" smooth="yes"/>
      <point x="741.0" y="-10.0"/>
      <point x="899.1" y="12.600000000000001"/>
      <point x="1025.3" y="58.0" type="curve"/>
      <point x="1025.3" y="396.79999999999995" type="line"/>
      <point x="592.1" y="396.79999999999995" type="line"/>
      <point x="592.1" y="257.8" type="line"/>
      <point x="823.3" y="257.8" type="line"/>
      <point x="823.3" y="161.6" type="line"/>
      <point x="764.8000000000001" y="146.2"/>
      <point x="688.5" y="138.1"/>
      <point x="603.1" y="138.1" type="curve" smooth="yes"/>
      <point x="397.9" y="138.1"/>
      <point x="289.09999999999997" y="200.3"/>
      <point x="289.09999999999997" y="337.7" type="curve" smooth="yes"/>
      <point x="289.09999999999997" y="476.5"/>
      <point x="392.9" y="547.2"/>
      <point x="611.8" y="547.2" type="curve" smooth="yes"/>
      <point x="709.0" y="547.2"/>
      <point x="819.4" y="535.8000000000001"/>
      <point x="942.1999999999999" y="511.4" type="curve"/>
      <point x="985.3000000000001" y="664.5" type="line"/>
      <point x="856.5" y="698.0"/>
      <point x="759.8000000000001" y="710.0"/>
      <point x="601.3000000000001" y="710.0" type="curve" smooth="yes"/>
      <point x="239.5" y="710.0"/>
      <point x="52.800000000000004" y="578.0999999999999"/>
    </contour>
  </outline>
</glyph>
<glyph name="H" format="2">
  <advance width="1165.9"/>
  <unicode hex="0048"/>
  <anchor x="583.1" y="700.0" name="top"/>
  <outline>
    <contour>
      <point x="95.1" y="0.0" type="line"/>
      <point x="325.1" y="0.0" type="line"/>
      <point x="325.1" y="234.70000000000002" type="line"/>
      <point x="840.8000000000001" y="234.70000000000002" type="line"/>
      <point x="840.8000000000001" y="0.0" type="line"/>
      <point x="1070.8" y="0.0" type="line"/>
      <point x="1070.8" y="700.0" type="line"/>
      <point x="840.8000000000001" y="700.0" type="line"/>
      <point x="840.8000000000001" y="408.70000000000005" type="line"/>
      <point x="325.1" y="408.70000000000005" type="line"/>
      <point x="325.1" y="700.0" type="line"/>
      <point x="95.1" y="700.0" type="line"/>
    </contour>
  </outline>
</glyph>
<glyph name="I" format="2">
  <advance width="420.20000000000005"/>
  <unicode hex="0049"/>
  <anchor x="325.1" y="0.0" name="ogonek"/>
  <anchor x="210.1" y="0.0" name="bottom"/>
  <anchor x="210.1" y="700.0" name="top"/>
  <outline>
    <contour>
      <point x="95.1" y="0.0" type="line"/>
      <point x="325.1" y="0.0" type="line"/>
      <point x="325.1" y="700.0" type="line"/>
      <point x="95.1" y="700.0" type="line"/>
    </contour>
  </outline>
</glyph>
<glyph name="J" format="2">
  <advance width="872.6999999999999"/>
  <unicode hex="004A"/>
  <anchor x="438.8" y="700.0" name="top"/>
  <outline>
    <contour>
      <point x="17.1" y="40.7" type="line"/>
      <point x="157.39999999999998" y="4.499999999999998"/>
      <point x="299.9" y="-10.3"/>
      <point x="415.6" y="-10.3" type="curve" smooth="yes"/>
      <point x="680.0" y="-10.3"/>
      <point x="791.5" y="85.10000000000001"/>
      <point x="791.5" y="299.7" type="curve" smooth="yes"/>
      <point x="791.5" y="700.0" type="line"/>
      <point x="94.10000000000001" y="700.0" type="line"/>
      <point x="94.10000000000001" y="530.9" type="line"/>
      <point x="561.5" y="530.9" type="line"/>
      <point x="561.5" y="322.8" type="line" smooth="yes"/>
      <point x="561.5" y="202.0"/>
      <point x="497.9" y="152.5"/>
      <point x="365.9" y="152.5" type="curve" smooth="yes"/>
      <point x="288.2" y="152.5"/>
      <point x="182.6" y="169.39999999999998"/>
      <point x="63.0" y="197.2" type="curve"/>
    </contour>
  </outline>
</glyph>
<glyph name="K" format="2">
  <advance width="1072.6"/>
  <unicode hex="004B"/>
  <anchor x="533.8000000000001" y="700.0" name="top"/>
  <anchor x="529.9999999999999" y="0.0" name="bottom"/>
  <outline>
    <contour>
      <point x="1011.6" y="-10.0" type="curve" smooth="yes"/>
      <point x="1020.2" y="-10.0"/>
      <point x="1031.0000000000002" y="-9.6"/>
      <point x="1041.2" y="-8.6" type="curve"/>
      <point x="1041.2" y="180.60000000000002" type="line"/>
      <point x="1031.0" y="179.6"/>
      <point x="1021.8" y="179.6"/>
      <point x="1012.5999999999998" y="179.6" type="curve" smooth="yes"/>
      <point x="931.1999999999999" y="179.59999999999997"/>
      <point x="852.6" y="203.0"/>
      <point x="727.8" y="268.0" type="curve" smooth="yes"/>
      <point x="324.40000000000003" y="477.8" type="line"/>
      <point x="324.40000000000003" y="700.0" type="line"/>
      <point x="95.4" y="700.0" type="line"/>
      <point x="95.4" y="0.0" type="line"/>
      <point x="324.40000000000003" y="0.0" type="line"/>
      <point x="324.40000000000003" y="279.6" type="line"/>
      <point x="704.4" y="73.4" type="line" smooth="yes"/>
      <point x="822.2" y="10.200000000000001"/>
      <point x="925.2" y="-10.0"/>
    </contour>
    <contour>
      <point x="532.0" y="318.59999999999997" type="line"/>
      <point x="736.4" y="372.8"/>
      <point x="917.0" y="472.40000000000003"/>
      <point x="1022.4" y="594.6" type="curve"/>
      <point x="859.8000000000001" y="715.8" type="line"/>
      <point x="723.6" y="565.6"/>
      <point x="530.6" y="457.99999999999994"/>
      <point x="367.8" y="390.0" type="curve"/>
    </contour>
  </outline>
</glyph>
<glyph name="L" format="2">
  <advance width="936.9"/>
  <unicode hex="004C"/>
  <anchor x="468.6" y="350.0" name="center"/>
  <anchor x="210.1" y="700.0" name="top"/>
  <anchor x="557.2" y="700.0" name="topright"/>
  <anchor x="497.7" y="0.0" name="bottom"/>
  <outline>
    <contour>
      <point x="95.1" y="0.0" type="line"/>
      <point x="903.7" y="0.0" type="line"/>
      <point x="903.7" y="174.0" type="line"/>
      <point x="325.1" y="174.0" type="line"/>
      <point x="325.1" y="700.0" type="line"/>
      <point x="95.1" y="700.0" type="line"/>
    </contour>
  </outline>
</glyph>
<glyph name="M" format="2">
  <advance width="1269.2"/>
  <unicode hex="004D"/>
  <outline>
    <contour>
      <point x="95.1" y="0.0" type="line"/>
      <point x="307.59999999999997" y="0.0" type="line"/>
      <point x="307.59999999999997" y="445.00000000000006" type="line"/>
      <point x="582.3000000000001" y="151.60000000000002" type="line"/>
      <point x="680.6" y="151.60000000000002" type="line"/>
      <point x="961.5999999999999" y="453.09999999999997" type="line"/>
      <point x="961.5999999999999" y="0.0" type="line"/>
      <point x="1174.1" y="0.0" type="line"/>
      <point x="1174.1" y="700.0" type="line"/>
      <point x="956.5999999999999" y="700.0" type="line"/>
      <point x="638.8" y="347.6" type="line"/>
      <point x="326.59999999999997" y="700.0" type="line"/>
      <point x="95.1" y="700.0" type="line"/>
    </contour>
  </outline>
</glyph>
<glyph name="N" format="2">
  <advance width="1102.2"/>
  <unicode hex="004E"/>
  <anchor x="551.5999999999999" y="700.0" name="top"/>
  <anchor x="551.5999999999999" y="0.0" name="bottom"/>
  <outline>
    <contour>
      <point x="95.1" y="0.0" type="line"/>
      <point x="304.09999999999997" y="0.0" type="line"/>
      <point x="304.09999999999997" y="425.00000000000006" type="line"/>
      <point x="811.9999999999999" y="0.0" type="line"/>
      <point x="1007.1" y="0.0" type="line"/>
      <point x="1007.1" y="700.0" type="line"/>
      <point x="798.1" y="700.0" type="line"/>
      <point x="798.1" y="256.3" type="line"/>
      <point x="290.9" y="703.0" type="line"/>
      <point x="95.1" y="703.0" type="line"/>
    </contour>
  </outline>
</glyph>
<glyph name="O" format="2">
  <advance width="1177.8"/>
  <unicode hex="004F"/>
  <anchor x="701.5000000000001" y="-2.1000000000000014" name="ogonek"/>
  <anchor x="588.5" y="700.0" name="top"/>
  <anchor x="929.1999999999999" y="678.3" name="topright"/>
  <anchor x="589.5" y="0.0" name="bottom"/>
  <outline>
    <contour>
      <point x="589.2" y="135.6" type="curve" smooth="yes"/>
      <point x="424.4" y="135.6"/>
      <point x="286.6" y="193.2"/>
      <point x="286.6" y="351.4" type="curve" smooth="yes"/>
      <point x="286.6" y="510.30000000000007"/>
      <point x="421.29999999999995" y="565.0"/>
      <point x="589.2" y="565.0" type="curve" smooth="yes"/>
      <point x="761.6" y="565.0"/>
      <point x="890.6000000000001" y="503.6"/>
      <point x="890.6000000000001" y="351.40000000000003" type="curve" smooth="yes"/>
      <point x="890.6000000000001" y="197.39999999999998"/>
      <point x="760.5" y="135.6"/>
    </contour>
    <contour>
      <point x="589.5" y="-10.0" type="curve" smooth="yes"/>
      <point x="922.4000000000001" y="-10.0"/>
      <point x="1124.7" y="94.89999999999998"/>
      <point x="1124.7" y="354.59999999999997" type="curve" smooth="yes"/>
      <point x="1124.7" y="600.1999999999999"/>
      <point x="935.2" y="710.0"/>
      <point x="589.2" y="710.0" type="curve" smooth="yes"/>
      <point x="240.2" y="710.0"/>
      <point x="53.1" y="599.0000000000001"/>
      <point x="53.1" y="353.1" type="curve" smooth="yes"/>
      <point x="53.1" y="100.0"/>
      <point x="256.6" y="-10.0"/>
    </contour>
  </outline>
</glyph>
<glyph name="P" format="2">
  <advance width="1103.1"/>
  <unicode hex="0050"/>
  <outline>
    <contour>
      <point x="95.1" y="0.0" type="line"/>
      <point x="325.1" y="0.0" type="line"/>
      <point x="325.1" y="191.9" type="line"/>
      <point x="486.40000000000003" y="187.9"/>
      <point x="465.7" y="187.60000000000002"/>
      <point x="621.1" y="187.60000000000002" type="curve" smooth="yes"/>
      <point x="959.1" y="187.60000000000002"/>
      <point x="1063.8" y="256.09999999999997"/>
      <point x="1063.8" y="451.5" type="curve" smooth="yes"/>
      <point x="1063.8" y="644.8"/>
      <point x="969.3000000000001" y="710.0"/>
      <point x="551.3" y="710.0" type="curve" smooth="yes"/>
      <point x="487.99999999999994" y="710.0"/>
      <point x="338.8" y="707.3000000000001"/>
      <point x="95.1" y="700.0" type="curve"/>
    </contour>
    <contour>
      <point x="325.09999999999997" y="554.7" type="line"/>
      <point x="465.3" y="559.9000000000001"/>
      <point x="496.50000000000006" y="560.5"/>
      <point x="570.2" y="560.5" type="curve" smooth="yes"/>
      <point x="777.9000000000001" y="560.5"/>
      <point x="828.9" y="526.0"/>
      <point x="828.9" y="450.8" type="curve" smooth="yes"/>
      <point x="828.9" y="370.3"/>
      <point x="792.2" y="339.2"/>
      <point x="522.4" y="339.2" type="curve" smooth="yes"/>
      <point x="456.9" y="339.2"/>
      <point x="419.3" y="340.8"/>
      <point x="325.09999999999997" y="344.5" type="curve"/>
    </contour>
  </outline>
</glyph>
<glyph name="Q" format="2">
  <advance width="1177.8"/>
  <unicode hex="0051"/>
  <outline>
    <contour>
      <point x="832.4000000000001" y="30.199999999999996" type="curve"/>
      <point x="619.2" y="3.6000000000000005" type="line"/>
      <point x="694.8000000000001" y="-133.39999999999998"/>
      <point x="796.6" y="-210.1"/>
      <point x="935.0999999999999" y="-210.1" type="curve" smooth="yes"/>
      <point x="981.3000000000001" y="-210.1"/>
      <point x="1032.6" y="-202.2"/>
      <point x="1087.9" y="-183.89999999999998" type="curve"/>
      <point x="1063.1" y="-33.30000000000001" type="line"/>
      <point x="1033.9" y="-44.000000000000014"/>
      <point x="1005.9000000000001" y="-49.00000000000001"/>
      <point x="979.9000000000001" y="-49.00000000000001" type="curve" smooth="yes"/>
      <point x="919.7" y="-49.00000000000001"/>
      <point x="871.7" y="-18.700000000000017"/>
    </contour>
    <component base="O"/>
  </outline>
</glyph>
<glyph name="R" format="2">
  <advance width="1124.8"/>
  <unicode hex="0052"/>
  <anchor x="563.6" y="700.0" name="top"/>
  <anchor x="572.0" y="0.0" name="bottom"/>
  <outline>
    <contour>
      <point x="1057.1999999999998" y="-10.0" type="curve" smooth="yes"/>
      <point x="1066.8000000000002" y="-10.0"/>
      <point x="1079.8000000000002" y="-9.600000000000001"/>
      <point x="1088.1999999999998" y="-8.6" type="curve"/>
      <point x="1088.2" y="174.4" type="line"/>
      <point x="1080.8" y="173.8"/>
      <point x="1071.9999999999998" y="173.4"/>
      <point x="1064.8000000000002" y="173.4" type="curve" smooth="yes"/>
      <point x="994.3999999999999" y="173.4"/>
      <point x="893.5999999999999" y="226.00000000000003"/>
      <point x="790.8" y="283.4" type="curve"/>
      <point x="938.8000000000001" y="303.8"/>
      <point x="1044.8" y="348.4"/>
      <point x="1044.8" y="493.40000000000003" type="curve" smooth="yes"/>
      <point x="1044.8" y="650.0"/>
      <point x="922.1999999999999" y="710.0"/>
      <point x="538.1999999999999" y="710.0" type="curve" smooth="yes"/>
      <point x="455.0" y="710.0"/>
      <point x="310.6" y="707.5999999999999"/>
      <point x="95.4" y="700.6" type="curve"/>
      <point x="95.4" y="0.0" type="line"/>
      <point x="325.40000000000003" y="0.0" type="line"/>
      <point x="325.40000000000003" y="235.6" type="line"/>
      <point x="369.0" y="234.4"/>
      <point x="416.40000000000003" y="233.79999999999998"/>
      <point x="454.5999999999999" y="233.79999999999998" type="curve" smooth="yes"/>
      <point x="469.6" y="233.79999999999998"/>
      <point x="494.79999999999995" y="233.20000000000002"/>
      <point x="509.8" y="233.20000000000005" type="curve"/>
      <point x="694.0" y="117.4"/>
      <point x="897.6" y="-10.0"/>
    </contour>
    <contour>
      <point x="546.8" y="375.80000000000007" type="curve" smooth="yes"/>
      <point x="460.6" y="375.80000000000007"/>
      <point x="410.2" y="377.4"/>
      <point x="325.40000000000003" y="380.79999999999995" type="curve"/>
      <point x="325.40000000000003" y="564.0" type="line"/>
      <point x="438.0" y="568.6"/>
      <point x="461.0" y="568.6"/>
      <point x="553.1999999999999" y="568.6" type="curve" smooth="yes"/>
      <point x="749.0" y="568.6"/>
      <point x="808.2" y="543.6"/>
      <point x="808.2" y="470.20000000000005" type="curve" smooth="yes"/>
      <point x="808.2" y="398.40000000000003"/>
      <point x="751.4000000000001" y="375.80000000000007"/>
    </contour>
  </outline>
</glyph>
<glyph name="S" format="2">
  <advance width="1018.8000000000001"/>
  <unicode hex="0053"/>
  <anchor x="516.8000000000001" y="700.0" name="top"/>
  <anchor x="502.6" y="0.0" name="bottom"/>
  <outline>
    <contour>
      <point x="926.4" y="667.6" type="line"/>
      <point x="850.8000000000001" y="682.0"/>
      <point x="705.8000000000001" y="710.0"/>
      <point x="526.6" y="710.0" type="curve" smooth="yes"/>
      <point x="207.4" y="710.0"/>
      <point x="54.199999999999996" y="648.6"/>
      <point x="54.199999999999996" y="481.8" type="curve" smooth="yes"/>
      <point x="54.199999999999996" y="347.6"/>
      <point x="174.8" y="294.2"/>
      <point x="357.40000000000003" y="274.8" type="curve" smooth="yes"/>
      <point x="600.3999999999999" y="249.20000000000002"/>
      <point x="740.1999999999999" y="254.0"/>
      <point x="740.1999999999999" y="195.8" type="curve" smooth="yes"/>
      <point x="740.1999999999999" y="151.8"/>
      <point x="680.4" y="135.39999999999998"/>
      <point x="524.8000000000001" y="135.39999999999998" type="curve" smooth="yes"/>
      <point x="363.0" y="135.39999999999998"/>
      <point x="173.59999999999997" y="170.6"/>
      <point x="58.0" y="205.20000000000002" type="curve"/>
      <point x="18.400000000000006" y="50.6" type="line"/>
      <point x="129.2" y="21.400000000000002"/>
      <point x="317.4" y="-10.0"/>
      <point x="491.19999999999993" y="-10.0" type="curve" smooth="yes"/>
      <point x="806.4000000000001" y="-10.0"/>
      <point x="987.4" y="48.99999999999999"/>
      <point x="987.4" y="218.2" type="curve" smooth="yes"/>
      <point x="987.4" y="361.40000000000003"/>
      <point x="853.2" y="409.4"/>
      <point x="621.6" y="428.4" type="curve" smooth="yes"/>
      <point x="403.40000000000003" y="446.4"/>
      <point x="300.40000000000003" y="443.79999999999995"/>
      <point x="300.40000000000003" y="502.0" type="curve" smooth="yes"/>
      <point x="300.40000000000003" y="544.0"/>
      <point x="365.0" y="563.3999999999999"/>
      <point x="506.99999999999994" y="563.3999999999999" type="curve" smooth="yes"/>
      <point x="658.2" y="563.3999999999999"/>
      <point x="826.6" y="533.9999999999999"/>
      <point x="889.5999999999999" y="515.8" type="curve"/>
    </contour>
  </outline>
</glyph>
<glyph name="U" format="2">
  <advance width="1131.4"/>
  <unicode hex="0055"/>
  <anchor x="678.5" y="0.0" name="ogonek"/>
  <anchor x="565.7" y="700.0" name="top"/>
  <anchor x="1050.2" y="700.0" name="topright"/>
  <anchor x="565.7" y="0.0" name="bottom"/>
  <outline>
    <contour>
      <point x="81.2" y="292.0" type="line"/>
      <point x="81.2" y="78.4"/>
      <point x="258.0" y="-10.0"/>
      <point x="565.6999999999999" y="-10.0" type="curve" smooth="yes"/>
      <point x="873.4000000000001" y="-10.0"/>
      <point x="1050.2" y="78.4"/>
      <point x="1050.2" y="292.0" type="curve" smooth="yes"/>
      <point x="1050.2" y="700.0" type="line"/>
      <point x="825.8000000000001" y="700.0" type="line"/>
      <point x="825.8000000000001" y="314.40000000000003" type="line" smooth="yes"/>
      <point x="825.8000000000001" y="195.2"/>
      <point x="719.2" y="147.89999999999998"/>
      <point x="567.8" y="147.89999999999998" type="curve" smooth="yes"/>
      <point x="421.3" y="147.89999999999998"/>
      <point x="305.59999999999997" y="188.9"/>
      <point x="305.59999999999997" y="314.40000000000003" type="curve" smooth="yes"/>
      <point x="305.59999999999997" y="700.0" type="line"/>
      <point x="81.2" y="700.0" type="line"/>
    </contour>
  </outline>
</glyph>
<glyph name="V" format="2">
  <advance width="1051.2999999999997"/>
  <unicode hex="0056"/>
  <outline>
    <contour>
      <point x="406.5" y="0.0" type="line"/>
      <point x="645.1" y="0.0" type="line"/>
      <point x="1052.6999999999998" y="698.5" type="line"/>
      <point x="800.2" y="701.8000000000001" type="line"/>
      <point x="527.2" y="180.2" type="line"/>
      <point x="253.6" y="701.8000000000001" type="line"/>
      <point x="-1.3999999999999995" y="698.5" type="line"/>
    </contour>
  </outline>
</glyph>
<glyph name="W" format="2">
  <advance width="1301.4"/>
  <unicode hex="0057"/>
  <anchor x="650.9" y="700.0" name="top"/>
  <anchor x="650.9" y="0.0" name="bottom"/>
  <outline>
    <contour>
      <point x="1049.8000000000002" y="0.0" type="line"/>
      <point x="1299.0" y="699.1" type="line"/>
      <point x="1055.3000000000002" y="701.2" type="line"/>
      <point x="943.6000000000001" y="218.1" type="line"/>
      <point x="770.1" y="662.0000000000001" type="line"/>
      <point x="541.4" y="662.0000000000001" type="line"/>
      <point x="356.0" y="215.7" type="line"/>
      <point x="241.89999999999998" y="701.2" type="line"/>
      <point x="2.400000000000002" y="699.1" type="line"/>
      <point x="243.60000000000002" y="0.0" type="line"/>
      <point x="458.0" y="0.0" type="line"/>
      <point x="645.1" y="420.29999999999995" type="line"/>
      <point x="818.7" y="0.0" type="line"/>
    </contour>
  </outline>
</glyph>
<glyph name="X" format="2">
  <advance width="983.7999999999998"/>
  <unicode hex="0058"/>
  <outline>
    <contour>
      <point x="4.4" y="2.4000000000000004" type="line"/>
      <point x="281.4" y="-2.4000000000000004" type="line"/>
      <point x="495.8" y="248.8" type="line"/>
      <point x="705.2" y="-2.4000000000000004" type="line"/>
      <point x="979.3999999999999" y="2.4000000000000004" type="line"/>
      <point x="641.4" y="362.2" type="line"/>
      <point x="961.2" y="697.6" type="line"/>
      <point x="708.8" y="701.2" type="line"/>
      <point x="500.6" y="473.4" type="line"/>
      <point x="308.59999999999997" y="702.4" type="line"/>
      <point x="31.000000000000004" y="697.6" type="line"/>
      <point x="357.20000000000005" y="362.6" type="line"/>
    </contour>
  </outline>
</glyph>
<glyph name="Y" format="2">
  <advance width="1043.2"/>
  <unicode hex="0059"/>
  <anchor x="521.6" y="700.0" name="top"/>
  <anchor x="523.7" y="0.0" name="bottom"/>
  <outline>
    <contour>
      <point x="408.70000000000005" y="0.0" type="line"/>
      <point x="638.6999999999999" y="0.0" type="line"/>
      <point x="638.6999999999999" y="252.10000000000002" type="line"/>
      <point x="1044.6000000000001" y="697.6" type="line"/>
      <point x="791.8000000000001" y="702.4" type="line"/>
      <point x="525.1" y="370.2" type="line"/>
      <point x="254.2" y="702.4" type="line"/>
      <point x="-1.3999999999999986" y="697.6" type="line"/>
      <point x="408.70000000000005" y="252.10000000000002" type="line"/>
    </contour>
  </outline>
</glyph>
<glyph name="Z" format="2">
  <advance width="1006.8"/>
  <unicode hex="005A"/>
  <anchor x="503.40000000000003" y="350.0" name="center"/>
  <anchor x="503.40000000000003" y="0.0" name="bottom"/>
  <anchor x="505.5" y="700.0" name="top"/>
  <outline>
    <contour>
      <point x="39.699999999999996" y="0.0" type="line"/>
      <point x="970.0999999999999" y="0.0" type="line"/>
      <point x="970.0999999999999" y="153.3" type="line"/>
      <point x="378.19999999999993" y="153.3" type="line"/>
      <point x="378.19999999999993" y="154.99999999999997" type="line"/>
      <point x="926.1999999999999" y="562.8" type="line"/>
      <point x="926.1999999999999" y="700.0" type="line"/>
      <point x="64.9" y="700.0" type="line"/>
      <point x="64.9" y="547.3000000000001" type="line"/>
      <point x="597.5" y="547.3000000000001" type="line"/>
      <point x="597.5" y="545.0" type="line"/>
      <point x="39.699999999999996" y="137.8" type="line"/>
    </contour>
  </outline>
</glyph>
<glyph name="bracketleft" format="2">
  <advance width="489.8"/>
  <unicode hex="005B"/>
  <outline>
    <contour>
      <point x="238.3" y="-93.4" type="line"/>
      <point x="238.3" y="623.4" type="line"/>
      <point x="449.4" y="623.4" type="line"/>
      <point x="449.4" y="740.0" type="line"/>
      <point x="71.3" y="740.0" type="line"/>
      <point x="71.3" y="-210.0" type="line"/>
      <point x="449.4" y="-210.0" type="line"/>
      <point x="449.4" y="-93.4" type="line"/>
    </contour>
  </outline>
</glyph>
<glyph name="bracketright" format="2">
  <advance width="489.8"/>
  <unicode hex="005D"/>
  <outline>
    <contour>
      <point x="40.4" y="-93.4" type="line"/>
      <point x="40.4" y="-210.0" type="line"/>
      <point x="418.5" y="-210.0" type="line"/>
      <point x="418.5" y="740.0" type="line"/>
      <point x="40.4" y="740.0" type="line"/>
      <point x="40.4" y="623.4" type="line"/>
      <point x="251.5" y="623.4" type="line"/>
      <point x="251.5" y="-93.4" type="line"/>
    </contour>
  </outline>
</glyph>
<glyph name="asciicircum" format="2">
  <advance width="715.4"/>
  <unicode hex="005E"/>
  <outline>
    <contour>
      <point x="47.099999999999994" y="224.2" type="line"/>
      <point x="218.49999999999997" y="224.2" type="line"/>
      <point x="357.7" y="490.70000000000005" type="line"/>
      <point x="497.6" y="224.2" type="line"/>
      <point x="668.3" y="224.2" type="line"/>
      <point x="444.7" y="703.0" type="line"/>
      <point x="270.7" y="703.0" type="line"/>
    </contour>
  </outline>
</glyph>
<glyph name="underscore" format="2">
  <advance width="1028.0"/>
  <unicode hex="005F"/>
  <outline>
    <contour>
      <point x="14.0" y="-187.79999999999998" type="line"/>
      <point x="1014.0" y="-187.79999999999998" type="line"/>
      <point x="1014.0" y="-64.2" type="line"/>
      <point x="14.0" y="-64.2" type="line"/>
    </contour>
  </outline>
</glyph>
<glyph name="a" format="2">
  <advance width="847.8"/>
  <unicode hex="0061"/>
  <anchor x="800.4000000000001" y="6.399999999999999" name="ogonek"/>
  <anchor x="421.40000000000003" y="0.0" name="bottom"/>
  <anchor x="422.0" y="544.0" name="top"/>
  <outline>
    <contour>
      <point x="43.599999999999994" y="151.8" type="curve" smooth="yes"/>
      <point x="43.599999999999994" y="24.799999999999997"/>
      <point x="150.2" y="-10.0"/>
      <point x="258.4" y="-10.0" type="curve" smooth="yes"/>
      <point x="378.8" y="-10.0"/>
      <point x="470.0" y="17.800000000000004"/>
      <point x="557.5999999999999" y="72.8" type="curve"/>
      <point x="580.2" y="8.2"/>
      <point x="638.4" y="-10.0"/>
      <point x="714.8000000000001" y="-10.0" type="curve" smooth="yes"/>
      <point x="761.0000000000001" y="-10.0"/>
      <point x="808.2" y="1.799999999999999"/>
      <point x="842.4000000000001" y="25.599999999999998" type="curve"/>
      <point x="823.8000000000001" y="143.79999999999998" type="line"/>
      <point x="813.6" y="139.79999999999998"/>
      <point x="801.5999999999999" y="139.19999999999996"/>
      <point x="792.4" y="139.19999999999996" type="curve" smooth="yes"/>
      <point x="767.0" y="139.19999999999996"/>
      <point x="750.0" y="154.0"/>
      <point x="750.0" y="204.79999999999998" type="curve" smooth="yes"/>
      <point x="750.0" y="351.19999999999993" type="line" smooth="yes"/>
      <point x="750.0" y="492.2"/>
      <point x="636.6" y="554.0"/>
      <point x="386.8" y="554.0" type="curve" smooth="yes"/>
      <point x="284.8" y="554.0"/>
      <point x="178.4" y="538.6"/>
      <point x="87.8" y="518.4" type="curve"/>
      <point x="111.00000000000003" y="385.0" type="line"/>
      <point x="185.40000000000003" y="402.59999999999997"/>
      <point x="297.59999999999997" y="417.4"/>
      <point x="373.4" y="417.4" type="curve" smooth="yes"/>
      <point x="483.40000000000003" y="417.4"/>
      <point x="538.0" y="396.6"/>
      <point x="538.0" y="348.0" type="curve" smooth="yes"/>
      <point x="538.0" y="328.59999999999997" type="line"/>
      <point x="181.0" y="323.40000000000003"/>
      <point x="43.599999999999994" y="298.0"/>
    </contour>
    <contour>
      <point x="266.2" y="158.0" type="curve" smooth="yes"/>
      <point x="266.2" y="219.8"/>
      <point x="341.6" y="230.4"/>
      <point x="538.0" y="233.8" type="curve"/>
      <point x="538.0" y="165.4" type="line"/>
      <point x="485.59999999999997" y="126.00000000000001"/>
      <point x="389.59999999999997" y="102.60000000000001"/>
      <point x="343.8" y="102.60000000000001" type="curve" smooth="yes"/>
      <point x="294.59999999999997" y="102.60000000000001"/>
      <point x="266.2" y="121.6"/>
    </contour>
  </outline>
</glyph>
<glyph name="b" format="2">
  <advance width="908.5999999999999"/>
  <unicode hex="0062"/>
  <outline>
    <contour>
      <point x="75.0" y="22.4" type="line"/>
      <point x="223.3" y="0.7000000000000002"/>
      <point x="344.3" y="-10.0"/>
      <point x="446.4" y="-10.0" type="curve" smooth="yes"/>
      <point x="735.5" y="-10.0"/>
      <point x="866.1" y="80.9"/>
      <point x="866.1" y="280.8" type="curve" smooth="yes"/>
      <point x="866.1" y="452.09999999999997"/>
      <point x="762.1" y="554.0"/>
      <point x="586.4" y="554.0" type="curve" smooth="yes"/>
      <point x="485.0" y="554.0"/>
      <point x="397.59999999999997" y="528.2"/>
      <point x="291.0" y="465.0" type="curve"/>
      <point x="291.0" y="740.0" type="line"/>
      <point x="75.0" y="740.0" type="line"/>
    </contour>
    <contour>
      <point x="291.0" y="141.3" type="curve"/>
      <point x="291.0" y="340.8" type="line"/>
      <point x="370.6" y="381.9"/>
      <point x="434.59999999999997" y="399.6"/>
      <point x="496.1" y="399.6" type="curve" smooth="yes"/>
      <point x="592.0" y="399.6"/>
      <point x="647.3" y="353.0"/>
      <point x="647.3" y="271.0" type="curve" smooth="yes"/>
      <point x="647.3" y="173.1"/>
      <point x="579.3" y="122.39999999999999"/>
      <point x="448.5" y="122.39999999999999" type="curve" smooth="yes"/>
      <point x="400.8" y="122.39999999999999"/>
      <point x="345.9" y="128.6"/>
    </contour>
  </outline>
</glyph>
<glyph name="c" format="2">
  <advance width="835.1"/>
  <unicode hex="0063"/>
  <anchor x="460.5" y="544.0" name="top"/>
  <anchor x="458.40000000000003" y="0.0" name="bottom"/>
  <outline>
    <contour>
      <point x="42.8" y="253.4" type="curve" smooth="yes"/>
      <point x="42.8" y="77.00000000000001"/>
      <point x="179.9" y="-10.0"/>
      <point x="456.7" y="-10.0" type="curve" smooth="yes"/>
      <point x="569.6999999999999" y="-10.0"/>
      <point x="693.6" y="3.5"/>
      <point x="802.5999999999999" y="27.1" type="curve"/>
      <point x="780.1" y="153.60000000000002" type="line"/>
      <point x="676.5" y="135.2"/>
      <point x="590.6" y="125.89999999999999"/>
      <point x="497.5" y="125.89999999999999" type="curve" smooth="yes"/>
      <point x="348.9" y="125.89999999999999"/>
      <point x="260.4" y="160.29999999999998"/>
      <point x="260.4" y="261.49999999999994" type="curve" smooth="yes"/>
      <point x="260.4" y="370.5"/>
      <point x="338.1" y="414.90000000000003"/>
      <point x="481.8" y="414.90000000000003" type="curve" smooth="yes"/>
      <point x="561.3" y="414.90000000000003"/>
      <point x="662.8" y="404.50000000000006"/>
      <point x="762.9000000000001" y="386.6" type="curve"/>
      <point x="784.8" y="521.9" type="line"/>
      <point x="695.8" y="541.8"/>
      <point x="580.4" y="554.0"/>
      <point x="478.29999999999995" y="554.0" type="curve" smooth="yes"/>
      <point x="202.89999999999998" y="554.0"/>
      <point x="42.8" y="446.8"/>
    </contour>
  </outline>
</glyph>
<glyph name="d" format="2">
  <advance width="909.5999999999999"/>
  <unicode hex="0064"/>
  <anchor x="458.6" y="275.0" name="center"/>
  <anchor x="447.6" y="740.0" name="top"/>
  <anchor x="901.0" y="740.0" name="topright"/>
  <anchor x="458.6" y="0.0" name="bottom"/>
  <outline>
    <contour>
      <point x="652.1999999999999" y="-2.8" type="line"/>
      <point x="834.5999999999999" y="-2.8" type="line"/>
      <point x="834.5999999999999" y="740.0" type="line"/>
      <point x="618.5999999999999" y="740.0" type="line"/>
      <point x="618.5999999999999" y="544.4" type="line"/>
      <point x="566.8" y="550.6"/>
      <point x="512.6" y="554.0"/>
      <point x="462.2" y="554.0" type="curve" smooth="yes"/>
      <point x="173.40000000000003" y="554.0"/>
      <point x="42.8" y="463.4"/>
      <point x="42.8" y="263.2" type="curve" smooth="yes"/>
      <point x="42.8" y="92.60000000000001"/>
      <point x="147.20000000000002" y="-10.0"/>
      <point x="322.2" y="-10.0" type="curve" smooth="yes"/>
      <point x="423.6" y="-10.0"/>
      <point x="511.0" y="15.8"/>
      <point x="617.5999999999999" y="79.00000000000001" type="curve"/>
    </contour>
    <contour>
      <point x="617.5999999999999" y="203.2" type="line"/>
      <point x="538.0" y="162.4"/>
      <point x="474.0" y="144.4"/>
      <point x="412.8" y="144.4" type="curve" smooth="yes"/>
      <point x="316.59999999999997" y="144.4"/>
      <point x="261.6" y="191.0"/>
      <point x="261.6" y="273.0" type="curve" smooth="yes"/>
      <point x="261.6" y="371.20000000000005"/>
      <point x="329.6" y="421.6"/>
      <point x="460.4" y="421.6" type="curve" smooth="yes"/>
      <point x="508.79999999999995" y="421.6"/>
      <point x="563.0" y="415.40000000000003"/>
      <point x="617.5999999999999" y="403.0" type="curve"/>
    </contour>
  </outline>
</glyph>
<glyph name="e" format="2">
  <advance width="861.2"/>
  <unicode hex="0065"/>
  <anchor x="749.1999999999999" y="16.0" name="ogonek"/>
  <anchor x="438.6" y="0.0" name="bottom"/>
  <anchor x="447.0" y="544.0" name="top"/>
  <outline>
    <contour>
      <point x="453.4" y="-10.0" type="curve" smooth="yes"/>
      <point x="594.5999999999999" y="-10.0"/>
      <point x="708.0" y="4.400000000000002"/>
      <point x="811.5999999999999" y="27.800000000000004" type="curve"/>
      <point x="790.4" y="153.99999999999997" type="line"/>
      <point x="683.2" y="134.8"/>
      <point x="570.3999999999999" y="121.8"/>
      <point x="475.8" y="121.8" type="curve" smooth="yes"/>
      <point x="337.2" y="121.8"/>
      <point x="264.4" y="152.8"/>
      <point x="263.6" y="208.8" type="curve" smooth="yes"/>
      <point x="263.6" y="213.4"/>
      <point x="263.6" y="216.4"/>
      <point x="264.2" y="221.00000000000003" type="curve"/>
      <point x="524.8" y="224.2"/>
      <point x="711.2" y="236.2"/>
      <point x="811.2" y="240.6" type="curve"/>
      <point x="812.6" y="260.8"/>
      <point x="812.6" y="284.6"/>
      <point x="812.6" y="298.0" type="curve" smooth="yes"/>
      <point x="812.6" y="474.8"/>
      <point x="696.1999999999999" y="554.0"/>
      <point x="457.8" y="554.0" type="curve" smooth="yes"/>
      <point x="241.8" y="554.0"/>
      <point x="42.800000000000004" y="469.40000000000003"/>
      <point x="42.800000000000004" y="258.4" type="curve" smooth="yes"/>
      <point x="42.800000000000004" y="65.80000000000001"/>
      <point x="201.8" y="-10.0"/>
    </contour>
    <contour>
      <point x="265.79999999999995" y="329.79999999999995" type="curve"/>
      <point x="286.6" y="402.6"/>
      <point x="367.2" y="429.8"/>
      <point x="447.6" y="429.8" type="curve" smooth="yes"/>
      <point x="548.8" y="429.8"/>
      <point x="591.8" y="396.8"/>
      <point x="597.4" y="339.6" type="curve"/>
      <point x="542.4" y="337.0"/>
      <point x="409.6" y="331.2"/>
    </contour>
  </outline>
</glyph>
<glyph name="f" format="2">
  <advance width="622.5"/>
  <unicode hex="0066"/>
  <outline>
    <contour>
      <point x="138.10000000000002" y="0.0" type="line"/>
      <point x="351.3" y="0.0" type="line"/>
      <point x="351.3" y="352.70000000000005" type="line"/>
      <point x="591.9" y="352.70000000000005" type="line"/>
      <point x="591.9" y="484.0" type="line"/>
      <point x="351.3" y="484.0" type="line"/>
      <point x="351.3" y="495.5" type="line" smooth="yes"/>
      <point x="351.3" y="574.9"/>
      <point x="401.29999999999995" y="606.4"/>
      <point x="487.8" y="606.4" type="curve" smooth="yes"/>
      <point x="538.3" y="606.4"/>
      <point x="601.1" y="597.1999999999999"/>
      <point x="649.0" y="584.3000000000001" type="curve"/>
      <point x="672.9" y="717.0" type="line"/>
      <point x="599.5" y="739.1999999999999"/>
      <point x="521.9000000000001" y="750.3"/>
      <point x="443.90000000000003" y="750.3" type="curve" smooth="yes"/>
      <point x="250.0" y="750.3"/>
      <point x="138.10000000000002" y="666.4000000000001"/>
      <point x="138.10000000000002" y="499.69999999999993" type="curve" smooth="yes"/>
      <point x="138.10000000000002" y="484.0" type="line"/>
      <point x="23.299999999999997" y="468.5" type="line"/>
      <point x="23.299999999999997" y="352.70000000000005" type="line"/>
      <point x="138.10000000000002" y="352.70000000000005" type="line"/>
    </contour>
  </outline>
</glyph>
<glyph name="g" format="2">
  <advance width="890.1999999999999"/>
  <unicode hex="0067"/>
  <anchor x="427.59999999999997" y="544.0" name="top"/>
  <anchor x="409.0" y="-220.0" name="bottom"/>
  <outline>
    <contour>
      <point x="377.4" y="-220.0" type="curve" smooth="yes"/>
      <point x="722.8" y="-220.0"/>
      <point x="863.6" y="-148.8"/>
      <point x="863.6" y="-8.800000000000006" type="curve" smooth="yes"/>
      <point x="863.6" y="80.2"/>
      <point x="790.0000000000001" y="138.4"/>
      <point x="655.0" y="138.4" type="curve" smooth="yes"/>
      <point x="317.40000000000003" y="138.4" type="line" smooth="yes"/>
      <point x="263.2" y="138.4"/>
      <point x="235.6" y="151.6"/>
      <point x="235.6" y="180.79999999999998" type="curve" smooth="yes"/>
      <point x="235.6" y="204.2"/>
      <point x="253.4" y="219.4"/>
      <point x="285.99999999999994" y="234.2" type="curve"/>
      <point x="181.39999999999998" y="261.6" type="line"/>
      <point x="101.8" y="233.6"/>
      <point x="54.599999999999994" y="191.6"/>
      <point x="54.599999999999994" y="128.60000000000002" type="curve" smooth="yes"/>
      <point x="54.599999999999994" y="20.799999999999994"/>
      <point x="171.79999999999998" y="-4.399999999999997"/>
      <point x="343.6" y="-4.399999999999997" type="curve" smooth="yes"/>
      <point x="566.8000000000001" y="-4.399999999999997" type="line" smooth="yes"/>
      <point x="636.8000000000001" y="-4.399999999999997"/>
      <point x="655.4" y="-9.2"/>
      <point x="655.4" y="-37.2" type="curve" smooth="yes"/>
      <point x="655.4" y="-78.4"/>
      <point x="589.4" y="-104.60000000000002"/>
      <point x="401.99999999999994" y="-104.60000000000002" type="curve" smooth="yes"/>
      <point x="244.4" y="-104.60000000000002"/>
      <point x="193.6" y="-86.4"/>
      <point x="193.6" y="-42.00000000000001" type="curve" smooth="yes"/>
      <point x="193.6" y="-18.0"/>
      <point x="204.2" y="1.4000000000000021"/>
      <point x="257.19999999999993" y="14.0" type="curve"/>
      <point x="155.4" y="46.20000000000001" type="line"/>
      <point x="36.4" y="17.4"/>
      <point x="16.8" y="-31.4"/>
      <point x="16.8" y="-82.0" type="curve" smooth="yes"/>
      <point x="16.8" y="-174.79999999999998"/>
      <point x="134.99999999999997" y="-220.0"/>
    </contour>
    <contour>
      <point x="425.79999999999995" y="200.0" type="curve" smooth="yes"/>
      <point x="665.4000000000001" y="200.0"/>
      <point x="780.1999999999999" y="259.8"/>
      <point x="780.1999999999999" y="377.8" type="curve" smooth="yes"/>
      <point x="780.1999999999999" y="495.2"/>
      <point x="665.4000000000001" y="555.0"/>
      <point x="425.79999999999995" y="555.0" type="curve" smooth="yes"/>
      <point x="186.20000000000002" y="555.0"/>
      <point x="72.00000000000001" y="495.2"/>
      <point x="72.00000000000001" y="377.8" type="curve" smooth="yes"/>
      <point x="72.00000000000001" y="259.8"/>
      <point x="186.20000000000002" y="200.0"/>
    </contour>
    <contour>
      <point x="425.79999999999995" y="312.2" type="curve" smooth="yes"/>
      <point x="317.99999999999994" y="312.2"/>
      <point x="272.4" y="332.6"/>
      <point x="272.4" y="377.8" type="curve" smooth="yes"/>
      <point x="272.4" y="422.40000000000003"/>
      <point x="317.99999999999994" y="442.8"/>
      <point x="425.79999999999995" y="442.8" type="curve" smooth="yes"/>
      <point x="533.5999999999999" y="442.8"/>
      <point x="579.1999999999999" y="422.40000000000003"/>
      <point x="579.1999999999999" y="377.8" type="curve" smooth="yes"/>
      <point x="579.1999999999999" y="332.6"/>
      <point x="533.5999999999999" y="312.2"/>
    </contour>
    <contour>
      <point x="726.4" y="432.20000000000005" type="line"/>
      <point x="740.8" y="451.8"/>
      <point x="764.0" y="459.6000000000001"/>
      <point x="797.8" y="459.6000000000001" type="curve" smooth="yes"/>
      <point x="816.4" y="459.6000000000001"/>
      <point x="839.0" y="458.2"/>
      <point x="858.2" y="454.2" type="curve"/>
      <point x="875.1999999999999" y="584.8" type="line"/>
      <point x="853.6" y="587.8000000000001"/>
      <point x="834.9999999999999" y="588.8"/>
      <point x="810.0" y="588.8" type="curve" smooth="yes"/>
      <point x="715.8" y="588.8"/>
      <point x="658.0" y="555.9999999999999"/>
      <point x="642.6" y="491.80000000000007" type="curve"/>
    </contour>
  </outline>
</glyph>
<glyph name="h" format="2">
  <advance width="892.3"/>
  <unicode hex="0068"/>
  <anchor x="439.29999999999995" y="395.0" name="center"/>
  <anchor x="446.29999999999995" y="0.0" name="bottom"/>
  <anchor x="445.6" y="740.0" name="top"/>
  <outline>
    <contour>
      <point x="75.0" y="0.0" type="line"/>
      <point x="291.0" y="0.0" type="line"/>
      <point x="291.0" y="352.2" type="line"/>
      <point x="361.70000000000005" y="380.8"/>
      <point x="414.7" y="400.3"/>
      <point x="479.70000000000005" y="400.3" type="curve" smooth="yes"/>
      <point x="559.2" y="400.3"/>
      <point x="601.3000000000001" y="359.9"/>
      <point x="601.3000000000001" y="270.7" type="curve" smooth="yes"/>
      <point x="601.3000000000001" y="0.0" type="line"/>
      <point x="817.3" y="0.0" type="line"/>
      <point x="817.3" y="346.3" type="line" smooth="yes"/>
      <point x="817.3" y="461.6"/>
      <point x="739.0" y="554.0"/>
      <point x="565.8" y="554.0" type="curve" smooth="yes"/>
      <point x="463.4" y="554.0"/>
      <point x="391.4" y="526.9"/>
      <point x="291.0" y="480.29999999999995" type="curve"/>
      <point x="291.0" y="740.0" type="line"/>
      <point x="75.0" y="740.0" type="line"/>
    </contour>
  </outline>
</glyph>
<glyph name="i" format="2">
  <advance width="366.0"/>
  <unicode hex="0069"/>
  <anchor x="290.7" y="0.0" name="ogonek"/>
  <anchor x="183.0" y="0.0" name="bottom"/>
  <outline>
    <contour>
      <point x="183.0" y="602.1" type="curve" smooth="yes"/>
      <point x="278.8" y="602.1"/>
      <point x="314.09999999999997" y="629.0"/>
      <point x="314.09999999999997" y="684.2" type="curve" smooth="yes"/>
      <point x="314.09999999999997" y="739.4"/>
      <point x="278.79999999999995" y="766.3"/>
      <point x="183.0" y="766.3" type="curve" smooth="yes"/>
      <point x="87.2" y="766.3"/>
      <point x="51.9" y="739.4"/>
      <point x="51.9" y="684.2" type="curve" smooth="yes"/>
      <point x="51.9" y="629.0"/>
      <point x="87.5" y="602.1"/>
    </contour>
    <contour>
      <point x="75.0" y="0.0" type="line"/>
      <point x="291.0" y="0.0" type="line"/>
      <point x="291.0" y="544.0" type="line"/>
      <point x="75.0" y="544.0" type="line"/>
    </contour>
  </outline>
</glyph>
<glyph name="j" format="2">
  <advance width="386.2"/>
  <unicode hex="006A"/>
  <outline>
    <contour>
      <point x="311.5" y="544.0" type="line"/>
      <point x="95.5" y="544.0" type="line"/>
      <point x="95.5" y="63.699999999999996" type="line" smooth="yes"/>
      <point x="95.5" y="-15.200000000000006"/>
      <point x="67.1" y="-48.3"/>
      <point x="3.6000000000000014" y="-57.900000000000006" type="curve" smooth="yes"/>
      <point x="-2.8999999999999986" y="-59.70000000000001"/>
      <point x="-9.399999999999999" y="-61.2"/>
      <point x="-16.200000000000003" y="-62.400000000000006" type="curve"/>
      <point x="-20.2" y="-212.29999999999998" type="line"/>
      <point x="4.400000000000004" y="-212.5"/>
      <point x="47.900000000000006" y="-212.8"/>
      <point x="71.2" y="-211.0" type="curve" smooth="yes"/>
      <point x="238.79999999999998" y="-200.5"/>
      <point x="311.5" y="-106.79999999999998"/>
      <point x="311.5" y="58.8" type="curve" smooth="yes"/>
    </contour>
    <contour>
      <point x="202.9" y="602.1" type="curve" smooth="yes"/>
      <point x="298.7" y="602.1"/>
      <point x="334.0" y="629.0"/>
      <point x="334.0" y="684.2" type="curve" smooth="yes"/>
      <point x="334.0" y="739.4"/>
      <point x="298.7" y="766.3"/>
      <point x="202.9" y="766.3" type="curve" smooth="yes"/>
      <point x="107.1" y="766.3"/>
      <point x="71.8" y="739.4"/>
      <point x="71.8" y="684.2" type="curve" smooth="yes"/>
      <point x="71.8" y="629.0"/>
      <point x="107.4" y="602.1"/>
    </contour>
  </outline>
</glyph>
<glyph name="k" format="2">
  <advance width="855.1999999999999"/>
  <unicode hex="006B"/>
  <anchor x="179.79999999999998" y="740.0" name="top"/>
  <anchor x="438.8" y="0.0" name="bottom"/>
  <outline>
    <contour>
      <point x="780.8" y="-10.000000000000002" type="curve" smooth="yes"/>
      <point x="803.0" y="-10.000000000000002"/>
      <point x="813.8" y="-9.600000000000001"/>
      <point x="822.9999999999999" y="-8.6" type="curve"/>
      <point x="821.8000000000001" y="173.59999999999997" type="line"/>
      <point x="812.6" y="172.6"/>
      <point x="803.8000000000001" y="172.6"/>
      <point x="794.8" y="172.6" type="curve" smooth="yes"/>
      <point x="743.6" y="172.6"/>
      <point x="680.5999999999999" y="194.6"/>
      <point x="535.4" y="275.59999999999997" type="curve" smooth="yes"/>
      <point x="284.0" y="415.59999999999997" type="line"/>
      <point x="284.0" y="740.0" type="line"/>
      <point x="75.0" y="740.0" type="line"/>
      <point x="75.0" y="0.0" type="line"/>
      <point x="284.0" y="0.0" type="line"/>
      <point x="284.0" y="225.00000000000003" type="line"/>
      <point x="508.8" y="93.60000000000001" type="line" smooth="yes"/>
      <point x="666.6" y="1.4"/>
      <point x="724.1999999999999" y="-10.000000000000002"/>
    </contour>
    <contour>
      <point x="462.4" y="263.6" type="line"/>
      <point x="568.0" y="312.6"/>
      <point x="741.6" y="418.0"/>
      <point x="801.9999999999999" y="543.4" type="curve"/>
      <point x="567.5999999999999" y="554.0" type="line"/>
      <point x="521.9999999999999" y="472.40000000000003"/>
      <point x="420.79999999999995" y="398.4"/>
      <point x="247.60000000000002" y="289.4" type="curve"/>
    </contour>
  </outline>
</glyph>
<glyph name="l" format="2">
  <advance width="476.9"/>
  <unicode hex="006C"/>
  <anchor x="237.9" y="395.0" name="center"/>
  <anchor x="183.0" y="740.0" name="top"/>
  <anchor x="357.4" y="740.0" name="topright"/>
  <anchor x="269.9" y="0.0" name="bottom"/>
  <outline>
    <contour>
      <point x="291.0" y="740.0" type="line"/>
      <point x="75.0" y="740.0" type="line"/>
      <point x="75.0" y="217.29999999999998" type="line" smooth="yes"/>
      <point x="75.0" y="43.3"/>
      <point x="158.1" y="-10.0"/>
      <point x="305.5" y="-10.0" type="curve" smooth="yes"/>
      <point x="374.1" y="-10.0"/>
      <point x="429.8" y="1.8999999999999986"/>
      <point x="480.29999999999995" y="19.299999999999997" type="curve"/>
      <point x="455.29999999999995" y="161.79999999999998" type="line"/>
      <point x="421.59999999999997" y="152.79999999999998"/>
      <point x="393.5" y="147.2"/>
      <point x="369.2" y="147.2" type="curve" smooth="yes"/>
      <point x="322.79999999999995" y="147.2"/>
      <point x="291.0" y="160.09999999999997"/>
      <point x="291.0" y="227.10000000000002" type="curve" smooth="yes"/>
    </contour>
  </outline>
</glyph>
<glyph name="m" format="2">
  <advance width="1324.3"/>
  <unicode hex="006D"/>
  <outline>
    <contour>
      <point x="75.0" y="0.0" type="line"/>
      <point x="291.0" y="0.0" type="line"/>
      <point x="291.0" y="350.1" type="line"/>
      <point x="345.40000000000003" y="377.9"/>
      <point x="389.7" y="395.3"/>
      <point x="444.6" y="395.3" type="curve" smooth="yes"/>
      <point x="532.6" y="395.3"/>
      <point x="554.9000000000001" y="332.6"/>
      <point x="554.9000000000001" y="269.2" type="curve" smooth="yes"/>
      <point x="554.9000000000001" y="0.0" type="line"/>
      <point x="770.9" y="0.0" type="line"/>
      <point x="770.9" y="293.0" type="line" smooth="yes"/>
      <point x="770.9" y="310.5"/>
      <point x="770.3" y="331.70000000000005"/>
      <point x="766.3" y="352.5" type="curve"/>
      <point x="813.5" y="373.9"/>
      <point x="864.1999999999999" y="397.5"/>
      <point x="924.6" y="397.5" type="curve" smooth="yes"/>
      <point x="1013.0999999999999" y="397.5"/>
      <point x="1033.3000000000002" y="335.2"/>
      <point x="1033.3000000000002" y="270.4" type="curve" smooth="yes"/>
      <point x="1033.3000000000002" y="0.0" type="line"/>
      <point x="1249.3000000000002" y="0.0" type="line"/>
      <point x="1249.3000000000002" y="346.0" type="line" smooth="yes"/>
      <point x="1249.3000000000002" y="451.09999999999997"/>
      <point x="1180.9" y="554.0"/>
      <point x="1026.8" y="554.0" type="curve" smooth="yes"/>
      <point x="918.4" y="554.0"/>
      <point x="840.5" y="520.6"/>
      <point x="727.5" y="461.8" type="curve"/>
      <point x="694.8000000000001" y="520.6999999999999"/>
      <point x="642.2" y="552.5"/>
      <point x="539.1" y="552.5" type="curve" smooth="yes"/>
      <point x="447.7" y="552.5"/>
      <point x="366.1" y="521.7"/>
      <point x="269.3" y="468.59999999999997" type="curve"/>
      <point x="269.3" y="544.0" type="line"/>
      <point x="75.0" y="544.0" type="line"/>
    </contour>
  </outline>
</glyph>
<glyph name="n" format="2">
  <advance width="892.3000000000001"/>
  <unicode hex="006E"/>
  <anchor x="443.20000000000005" y="544.0" name="top"/>
  <anchor x="443.79999999999995" y="0.0" name="bottom"/>
  <outline>
    <contour>
      <point x="75.0" y="0.0" type="line"/>
      <point x="291.0" y="0.0" type="line"/>
      <point x="291.0" y="352.2" type="line"/>
      <point x="361.70000000000005" y="380.8"/>
      <point x="414.7" y="400.3"/>
      <point x="479.7" y="400.3" type="curve" smooth="yes"/>
      <point x="559.1999999999999" y="400.3"/>
      <point x="601.3" y="359.9"/>
      <point x="601.3" y="270.7" type="curve" smooth="yes"/>
      <point x="601.3" y="0.0" type="line"/>
      <point x="817.3000000000001" y="0.0" type="line"/>
      <point x="817.3000000000001" y="346.3" type="line" smooth="yes"/>
      <point x="817.3000000000001" y="461.59999999999997"/>
      <point x="739.0" y="554.0"/>
      <point x="565.8000000000001" y="554.0" type="curve" smooth="yes"/>
      <point x="457.09999999999997" y="554.0"/>
      <point x="381.3" y="523.4000000000001"/>
      <point x="269.3" y="469.79999999999995" type="curve"/>
      <point x="269.3" y="544.0" type="line"/>
      <point x="75.0" y="544.0" type="line"/>
    </contour>
  </outline>
</glyph>
<glyph name="o" format="2">
  <advance width="899.2"/>
  <unicode hex="006F"/>
  <anchor x="571.4" y="1.0000000000000002" name="ogonek"/>
  <anchor x="449.6" y="544.0" name="top"/>
  <anchor x="679.4" y="537.0" name="topright"/>
  <anchor x="450.0" y="0.0" name="bottom"/>
  <outline>
    <contour>
      <point x="42.8" y="274.0" type="curve" smooth="yes"/>
      <point x="42.8" y="86.80000000000001"/>
      <point x="166.8" y="-10.0"/>
      <point x="450.0" y="-10.0" type="curve" smooth="yes"/>
      <point x="732.4" y="-10.0"/>
      <point x="856.4" y="86.80000000000001"/>
      <point x="856.4" y="274.0" type="curve" smooth="yes"/>
      <point x="856.4" y="448.2"/>
      <point x="749.8000000000001" y="554.0"/>
      <point x="450.0" y="554.0" type="curve" smooth="yes"/>
      <point x="148.8" y="554.0"/>
      <point x="42.8" y="448.2"/>
    </contour>
    <contour>
      <point x="262.0" y="273.6" type="curve" smooth="yes"/>
      <point x="262.0" y="362.6"/>
      <point x="308.6" y="426.4"/>
      <point x="449.6" y="426.4" type="curve" smooth="yes"/>
      <point x="591.0" y="426.4"/>
      <point x="636.6" y="362.6"/>
      <point x="636.6" y="273.6" type="curve" smooth="yes"/>
      <point x="636.6" y="177.19999999999996"/>
      <point x="582.0" y="117.59999999999998"/>
      <point x="449.6" y="117.59999999999998" type="curve" smooth="yes"/>
      <point x="317.2" y="117.59999999999998"/>
      <point x="262.0" y="177.19999999999996"/>
    </contour>
  </outline>
</glyph>
<glyph name="p" format="2">
  <advance width="908.6"/>
  <unicode hex="0070"/>
  <outline>
    <contour>
      <point x="75.0" y="-210.0" type="line"/>
      <point x="291.7" y="-210.0" type="line"/>
      <point x="291.7" y="0.20000000000000107" type="line"/>
      <point x="347.0" y="-6.6"/>
      <point x="397.6" y="-10.0"/>
      <point x="446.4" y="-10.0" type="curve" smooth="yes"/>
      <point x="735.5" y="-10.0"/>
      <point x="866.0999999999999" y="80.9"/>
      <point x="866.0999999999999" y="280.8" type="curve" smooth="yes"/>
      <point x="866.0999999999999" y="452.09999999999997"/>
      <point x="762.1" y="554.0"/>
      <point x="586.4" y="554.0" type="curve" smooth="yes"/>
      <point x="484.3" y="554.0"/>
      <point x="385.7" y="524.0"/>
      <point x="269.29999999999995" y="455.20000000000005" type="curve"/>
      <point x="269.3" y="544.0" type="line"/>
      <point x="75.0" y="544.0" type="line"/>
    </contour>
    <contour>
      <point x="448.5" y="122.39999999999999" type="curve" smooth="yes"/>
      <point x="400.8" y="122.39999999999999"/>
      <point x="345.9" y="128.6"/>
      <point x="291.0" y="141.29999999999998" type="curve"/>
      <point x="291.0" y="340.8" type="line"/>
      <point x="370.6" y="381.9"/>
      <point x="434.59999999999997" y="399.59999999999997"/>
      <point x="496.09999999999997" y="399.59999999999997" type="curve" smooth="yes"/>
      <point x="592.0" y="399.59999999999997"/>
      <point x="647.3" y="353.0"/>
      <point x="647.3" y="271.0" type="curve" smooth="yes"/>
      <point x="647.3" y="173.10000000000002"/>
      <point x="579.3" y="122.39999999999999"/>
    </contour>
  </outline>
</glyph>
<glyph name="q" format="2">
  <advance width="908.6"/>
  <unicode hex="0071"/>
  <outline>
    <contour>
      <point x="833.6" y="521.6" type="line"/>
      <point x="685.3000000000001" y="543.3000000000001"/>
      <point x="564.3" y="554.0"/>
      <point x="462.2" y="554.0" type="curve" smooth="yes"/>
      <point x="173.1" y="554.0"/>
      <point x="42.5" y="463.1"/>
      <point x="42.5" y="263.2" type="curve" smooth="yes"/>
      <point x="42.5" y="91.9"/>
      <point x="146.5" y="-10.0"/>
      <point x="322.20000000000005" y="-10.0" type="curve" smooth="yes"/>
      <point x="423.6" y="-10.0"/>
      <point x="511.00000000000006" y="15.799999999999999"/>
      <point x="617.6" y="79.0" type="curve"/>
      <point x="617.6" y="-210.0" type="line"/>
      <point x="833.6" y="-210.0" type="line"/>
    </contour>
    <contour>
      <point x="617.6" y="402.7" type="curve"/>
      <point x="617.6" y="203.20000000000002" type="line"/>
      <point x="538.0" y="162.1"/>
      <point x="473.99999999999994" y="144.4"/>
      <point x="412.5" y="144.4" type="curve" smooth="yes"/>
      <point x="316.59999999999997" y="144.4"/>
      <point x="261.3" y="191.0"/>
      <point x="261.3" y="273.0" type="curve" smooth="yes"/>
      <point x="261.3" y="370.9"/>
      <point x="329.3" y="421.6"/>
      <point x="460.1" y="421.6" type="curve" smooth="yes"/>
      <point x="508.5" y="421.6"/>
      <point x="562.6999999999999" y="415.4"/>
    </contour>
  </outline>
</glyph>
<glyph name="r" format="2">
  <advance width="645.8000000000001"/>
  <unicode hex="0072"/>
  <anchor x="339.8" y="544.0" name="top"/>
  <anchor x="183.0" y="0.0" name="bottom"/>
  <outline>
    <contour>
      <point x="269.3" y="544.0" type="line"/>
      <point x="75.0" y="544.0" type="line"/>
      <point x="75.0" y="0.0" type="line"/>
      <point x="291.0" y="0.0" type="line"/>
      <point x="291.0" y="328.6" type="line"/>
      <point x="365.4" y="374.9"/>
      <point x="429.0" y="390.5"/>
      <point x="486.0" y="390.5" type="curve" smooth="yes"/>
      <point x="525.5" y="390.5"/>
      <point x="565.2" y="383.9"/>
      <point x="607.0" y="374.59999999999997" type="curve"/>
      <point x="636.1999999999999" y="539.5" type="line"/>
      <point x="601.0" y="547.8000000000001"/>
      <point x="560.0" y="554.0"/>
      <point x="521.1999999999999" y="554.0" type="curve" smooth="yes"/>
      <point x="432.79999999999995" y="554.0"/>
      <point x="370.40000000000003" y="526.0"/>
      <point x="269.3" y="447.90000000000003" type="curve"/>
    </contour>
  </outline>
</glyph>
<glyph name="s" format="2">
  <advance width="740.0000000000001"/>
  <unicode hex="0073"/>
  <anchor x="362.00000000000006" y="544.0" name="top"/>
  <anchor x="365.0" y="0.0" name="bottom"/>
  <outline>
    <contour>
      <point x="36.2" y="26.2" type="line"/>
      <point x="123.2" y="5.8000000000000025"/>
      <point x="243.60000000000005" y="-10.0"/>
      <point x="353.00000000000006" y="-10.0" type="curve" smooth="yes"/>
      <point x="525.4" y="-10.0"/>
      <point x="708.6" y="14.200000000000006"/>
      <point x="708.6" y="172.2" type="curve" smooth="yes"/>
      <point x="708.6" y="287.2"/>
      <point x="596.6" y="324.00000000000006"/>
      <point x="448.20000000000005" y="338.00000000000006" type="curve" smooth="yes"/>
      <point x="328.40000000000003" y="349.59999999999997"/>
      <point x="256.99999999999994" y="346.0"/>
      <point x="256.99999999999994" y="388.0" type="curve" smooth="yes"/>
      <point x="256.99999999999994" y="418.2"/>
      <point x="305.4" y="429.59999999999997"/>
      <point x="385.8" y="429.59999999999997" type="curve" smooth="yes"/>
      <point x="495.80000000000007" y="429.59999999999997"/>
      <point x="593.1999999999999" y="408.0"/>
      <point x="641.4" y="395.20000000000005" type="curve"/>
      <point x="663.2" y="520.8000000000001" type="line"/>
      <point x="604.4000000000001" y="534.8"/>
      <point x="509.6000000000001" y="554.0"/>
      <point x="390.0" y="554.0" type="curve" smooth="yes"/>
      <point x="163.99999999999997" y="554.0"/>
      <point x="56.4" y="499.0"/>
      <point x="56.4" y="364.2" type="curve" smooth="yes"/>
      <point x="56.4" y="262.4"/>
      <point x="137.2" y="224.2"/>
      <point x="268.0" y="208.6" type="curve" smooth="yes"/>
      <point x="386.20000000000005" y="194.60000000000002"/>
      <point x="504.0" y="194.80000000000004"/>
      <point x="504.0" y="154.8" type="curve" smooth="yes"/>
      <point x="504.0" y="125.99999999999997"/>
      <point x="455.40000000000003" y="110.99999999999999"/>
      <point x="370.2" y="110.99999999999999" type="curve" smooth="yes"/>
      <point x="277.0" y="110.99999999999999"/>
      <point x="129.2" y="134.6"/>
      <point x="57.999999999999986" y="153.6" type="curve"/>
    </contour>
  </outline>
</glyph>
<glyph name="t" format="2">
  <advance width="645.5"/>
  <unicode hex="0074"/>
  <anchor x="313.8" y="275.0" name="center"/>
  <anchor x="257.59999999999997" y="665.0" name="top"/>
  <anchor x="468.7" y="791.5" name="topright"/>
  <anchor x="360.2" y="0.0" name="bottom"/>
  <outline>
    <contour>
      <point x="375.6" y="-10.0" type="curve" smooth="yes"/>
      <point x="458.7" y="-10.0"/>
      <point x="533.4" y="3.0"/>
      <point x="622.2" y="24.700000000000003" type="curve"/>
      <point x="596.6" y="173.89999999999998" type="line"/>
      <point x="536.5" y="160.0"/>
      <point x="492.20000000000005" y="150.0"/>
      <point x="448.2" y="150.0" type="curve" smooth="yes"/>
      <point x="381.90000000000003" y="150.0"/>
      <point x="354.5" y="176.0"/>
      <point x="354.5" y="235.2" type="curve" smooth="yes"/>
      <point x="354.5" y="412.7" type="line"/>
      <point x="592.5" y="412.7" type="line"/>
      <point x="592.5" y="544.0" type="line"/>
      <point x="354.5" y="544.0" type="line"/>
      <point x="354.5" y="665.0" type="line"/>
      <point x="160.7" y="665.0" type="line"/>
      <point x="138.5" y="544.0" type="line"/>
      <point x="6.4" y="528.5" type="line"/>
      <point x="6.4" y="412.7" type="line"/>
      <point x="138.5" y="412.7" type="line"/>
      <point x="138.5" y="225.4" type="line" smooth="yes"/>
      <point x="138.5" y="45.900000000000006"/>
      <point x="229.60000000000002" y="-10.0"/>
    </contour>
  </outline>
</glyph>
<glyph name="u" format="2">
  <advance width="902.1999999999999"/>
  <unicode hex="0075"/>
  <anchor x="897.1" y="25.599999999999998" name="ogonek"/>
  <anchor x="448.79999999999995" y="544.0" name="top"/>
  <anchor x="804.4" y="544.0" name="topright"/>
  <anchor x="451.79999999999995" y="0.0" name="bottom"/>
  <outline>
    <contour>
      <point x="321.70000000000005" y="-10.0" type="curve" smooth="yes"/>
      <point x="433.0" y="-10.0"/>
      <point x="515.0999999999999" y="20.600000000000005"/>
      <point x="616.3000000000001" y="71.69999999999999" type="curve"/>
      <point x="642.8" y="15.100000000000001"/>
      <point x="684.9" y="-10.0"/>
      <point x="757.0" y="-10.0" type="curve" smooth="yes"/>
      <point x="807.0" y="-10.0"/>
      <point x="866.8" y="5.6"/>
      <point x="897.1" y="25.599999999999998" type="curve"/>
      <point x="878.5" y="142.4" type="line"/>
      <point x="868.9000000000001" y="138.1"/>
      <point x="860.1" y="136.5"/>
      <point x="850.2" y="136.5" type="curve" smooth="yes"/>
      <point x="825.8" y="136.5"/>
      <point x="804.4" y="152.2"/>
      <point x="804.4" y="197.8" type="curve" smooth="yes"/>
      <point x="804.4" y="544.0" type="line"/>
      <point x="588.4" y="544.0" type="line"/>
      <point x="588.4" y="187.29999999999998" type="line"/>
      <point x="517.8000000000001" y="157.2"/>
      <point x="473.7" y="140.9"/>
      <point x="409.90000000000003" y="140.9" type="curve" smooth="yes"/>
      <point x="333.79999999999995" y="140.9"/>
      <point x="291.0" y="179.8"/>
      <point x="291.0" y="257.5" type="curve" smooth="yes"/>
      <point x="291.0" y="544.0" type="line"/>
      <point x="75.0" y="544.0" type="line"/>
      <point x="75.0" y="191.7" type="line" smooth="yes"/>
      <point x="75.0" y="69.8"/>
      <point x="167.20000000000002" y="-10.0"/>
    </contour>
  </outline>
</glyph>
<glyph name="v" format="2">
  <advance width="838.3"/>
  <unicode hex="0076"/>
  <outline>
    <contour>
      <point x="312.5" y="0.0" type="line"/>
      <point x="525.5" y="0.0" type="line"/>
      <point x="829.5" y="542.1999999999999" type="line"/>
      <point x="588.1" y="545.8000000000001" type="line"/>
      <point x="428.4" y="158.3" type="line"/>
      <point x="250.2" y="545.8000000000001" type="line"/>
      <point x="8.8" y="542.1999999999999" type="line"/>
    </contour>
  </outline>
</glyph>
<glyph name="w" format="2">
  <advance width="1170.9"/>
  <unicode hex="0077"/>
  <anchor x="585.8" y="544.0" name="top"/>
  <anchor x="585.8" y="0.0" name="bottom"/>
  <outline>
    <contour>
      <point x="215.2" y="0.0" type="line"/>
      <point x="447.6" y="0.0" type="line"/>
      <point x="578.1" y="339.7" type="line"/>
      <point x="721.9" y="0.0" type="line"/>
      <point x="943.1" y="0.0" type="line"/>
      <point x="1159.1" y="542.5" type="line"/>
      <point x="951.3999999999999" y="545.5" type="line"/>
      <point x="839.4" y="175.6" type="line"/>
      <point x="698.7" y="544.0" type="line"/>
      <point x="472.20000000000005" y="544.0" type="line"/>
      <point x="334.1" y="176.7" type="line"/>
      <point x="226.5" y="545.5" type="line"/>
      <point x="11.8" y="542.5" type="line"/>
    </contour>
  </outline>
</glyph>
<glyph name="x" format="2">
  <advance width="878.6"/>
  <unicode hex="0078"/>
  <outline>
    <contour>
      <point x="5.800000000000001" y="2.4000000000000004" type="line"/>
      <point x="281.6" y="-2.4" type="line"/>
      <point x="444.0" y="169.60000000000002" type="line"/>
      <point x="610.0" y="-2.4" type="line"/>
      <point x="872.8" y="2.4000000000000004" type="line"/>
      <point x="574.5999999999999" y="282.2" type="line"/>
      <point x="857.4000000000001" y="541.6" type="line"/>
      <point x="608.8000000000001" y="546.4" type="line"/>
      <point x="449.40000000000003" y="385.59999999999997" type="line"/>
      <point x="293.8" y="546.4" type="line"/>
      <point x="28.599999999999998" y="541.6" type="line"/>
      <point x="315.2" y="277.59999999999997" type="line"/>
    </contour>
  </outline>
</glyph>
<glyph name="y" format="2">
  <advance width="843.1999999999999"/>
  <unicode hex="0079"/>
  <anchor x="421.79999999999995" y="544.0" name="top"/>
  <anchor x="679.2" y="0.0" name="bottom"/>
  <outline>
    <contour>
      <point x="233.20000000000005" y="-208.79999999999998" type="line"/>
      <point x="451.6" y="-211.8" type="line"/>
      <point x="834.4" y="544.0" type="line"/>
      <point x="613.1999999999999" y="547.0000000000001" type="line"/>
      <point x="439.6" y="151.8" type="line"/>
      <point x="253.2" y="547.0" type="line"/>
      <point x="8.8" y="543.4" type="line"/>
      <point x="311.79999999999995" y="0.0" type="line"/>
      <point x="337.4" y="0.0" type="line"/>
    </contour>
  </outline>
</glyph>
<glyph name="z" format="2">
  <advance width="820.4"/>
  <unicode hex="007A"/>
  <anchor x="414.40000000000003" y="544.0" name="top"/>
  <outline>
    <contour>
      <point x="41.199999999999996" y="0.0" type="line"/>
      <point x="780.1999999999999" y="0.0" type="line"/>
      <point x="780.1999999999999" y="136.2" type="line"/>
      <point x="344.0" y="136.2" type="line"/>
      <point x="747.8" y="426.6" type="line"/>
      <point x="747.8" y="544.0" type="line"/>
      <point x="63.400000000000006" y="544.0" type="line"/>
      <point x="63.400000000000006" y="407.8" type="line"/>
      <point x="452.00000000000006" y="407.8" type="line"/>
      <point x="41.199999999999996" y="117.4" type="line"/>
    </contour>
  </outline>
</glyph>
<glyph name="braceleft" format="2">
  <advance width="489.8"/>
  <unicode hex="007B"/>
  <outline>
    <contour>
      <point x="104.10000000000001" y="-43.800000000000004" type="curve" smooth="yes"/>
      <point x="104.10000000000001" y="-155.79999999999998"/>
      <point x="192.10000000000002" y="-210.0"/>
      <point x="323.2" y="-210.0" type="curve" smooth="yes"/>
      <point x="446.4" y="-210.0" type="line"/>
      <point x="446.4" y="-93.4" type="line"/>
      <point x="382.0" y="-93.4" type="line" smooth="yes"/>
      <point x="316.6" y="-93.4"/>
      <point x="294.90000000000003" y="-61.80000000000001"/>
      <point x="294.90000000000003" y="-20.700000000000003" type="curve" smooth="yes"/>
      <point x="294.90000000000003" y="30.7"/>
      <point x="334.90000000000003" y="83.39999999999999"/>
      <point x="334.90000000000003" y="140.79999999999998" type="curve" smooth="yes"/>
      <point x="334.90000000000003" y="187.0"/>
      <point x="322.7" y="236.8"/>
      <point x="241.3" y="265.0" type="curve"/>
      <point x="322.4" y="295.8"/>
      <point x="334.90000000000003" y="342.4"/>
      <point x="334.90000000000003" y="388.59999999999997" type="curve" smooth="yes"/>
      <point x="334.90000000000003" y="447.20000000000005"/>
      <point x="294.90000000000003" y="498.40000000000003"/>
      <point x="294.90000000000003" y="550.1" type="curve" smooth="yes"/>
      <point x="294.90000000000003" y="591.1999999999999"/>
      <point x="316.6" y="623.4"/>
      <point x="382.0" y="623.4" type="curve" smooth="yes"/>
      <point x="446.4" y="623.4" type="line"/>
      <point x="446.4" y="740.0" type="line"/>
      <point x="323.2" y="740.0" type="line" smooth="yes"/>
      <point x="192.10000000000002" y="740.0"/>
      <point x="104.10000000000001" y="685.1999999999999"/>
      <point x="104.10000000000001" y="573.2" type="curve" smooth="yes"/>
      <point x="104.10000000000001" y="490.1"/>
      <point x="146.9" y="438.90000000000003"/>
      <point x="146.9" y="387.9" type="curve" smooth="yes"/>
      <point x="146.9" y="352.0"/>
      <point x="134.3" y="322.6"/>
      <point x="87.50000000000001" y="322.6" type="curve" smooth="yes"/>
      <point x="68.6" y="322.6" type="line"/>
      <point x="68.6" y="207.39999999999998" type="line"/>
      <point x="87.50000000000001" y="207.39999999999998" type="line" smooth="yes"/>
      <point x="134.3" y="207.39999999999998"/>
      <point x="146.9" y="177.4"/>
      <point x="146.9" y="141.5" type="curve" smooth="yes"/>
      <point x="146.9" y="91.1"/>
      <point x="104.10000000000001" y="38.699999999999996"/>
    </contour>
  </outline>
</glyph>
<glyph name="bar" format="2">
  <advance width="343.2"/>
  <unicode hex="007C"/>
  <outline>
    <contour>
      <point x="255.1" y="790.0" type="line"/>
      <point x="88.10000000000001" y="790.0" type="line"/>
      <point x="88.10000000000001" y="-210.0" type="line"/>
      <point x="255.1" y="-210.0" type="line"/>
    </contour>
  </outline>
</glyph>
<glyph name="braceright" format="2">
  <advance width="489.8"/>
  <unicode hex="007D"/>
  <outline>
    <contour>
      <point x="43.4" y="-93.4" type="line"/>
      <point x="43.4" y="-210.0" type="line"/>
      <point x="166.6" y="-210.0" type="line" smooth="yes"/>
      <point x="297.7" y="-210.0"/>
      <point x="385.7" y="-155.79999999999998"/>
      <point x="385.7" y="-43.800000000000004" type="curve" smooth="yes"/>
      <point x="385.7" y="38.699999999999996"/>
      <point x="342.9" y="91.1"/>
      <point x="342.9" y="141.5" type="curve" smooth="yes"/>
      <point x="342.9" y="177.4"/>
      <point x="355.5" y="207.39999999999998"/>
      <point x="402.3" y="207.39999999999998" type="curve" smooth="yes"/>
      <point x="421.2" y="207.39999999999998" type="line"/>
      <point x="421.2" y="322.6" type="line"/>
      <point x="402.3" y="322.6" type="line" smooth="yes"/>
      <point x="355.5" y="322.6"/>
      <point x="342.9" y="352.0"/>
      <point x="342.9" y="387.9" type="curve" smooth="yes"/>
      <point x="342.9" y="438.90000000000003"/>
      <point x="385.7" y="490.1"/>
      <point x="385.7" y="573.2" type="curve" smooth="yes"/>
      <point x="385.7" y="685.1999999999999"/>
      <point x="297.7" y="740.0"/>
      <point x="166.6" y="740.0" type="curve" smooth="yes"/>
      <point x="43.4" y="740.0" type="line"/>
      <point x="43.4" y="623.4" type="line"/>
      <point x="107.80000000000001" y="623.4" type="line" smooth="yes"/>
      <point x="173.2" y="623.4"/>
      <point x="194.9" y="591.1999999999999"/>
      <point x="194.9" y="550.1" type="curve" smooth="yes"/>
      <point x="194.9" y="498.40000000000003"/>
      <point x="154.9" y="447.20000000000005"/>
      <point x="154.9" y="388.59999999999997" type="curve" smooth="yes"/>
      <point x="154.9" y="342.4"/>
      <point x="167.4" y="295.8"/>
      <point x="248.5" y="265.0" type="curve"/>
      <point x="167.10000000000002" y="236.8"/>
      <point x="154.9" y="187.0"/>
      <point x="154.9" y="140.79999999999998" type="curve" smooth="yes"/>
      <point x="154.9" y="83.39999999999999"/>
      <point x="194.9" y="30.7"/>
      <point x="194.9" y="-20.700000000000003" type="curve" smooth="yes"/>
      <point x="194.9" y="-61.80000000000001"/>
      <point x="173.2" y="-93.4"/>
      <point x="107.80000000000001" y="-93.4" type="curve" smooth="yes"/>
    </contour>
  </outline>
</glyph>
<glyph name="asciitilde" format="2">
  <advance width="715.4"/>
  <unicode hex="007E"/>
  <outline>
    <contour>
      <point x="650.9" y="232.5" type="curve"/>
      <point x="650.9" y="383.9" type="line"/>
      <point x="620.7" y="357.6"/>
      <point x="580.8" y="340.4"/>
      <point x="526.9" y="340.4" type="curve" smooth="yes"/>
      <point x="383.7" y="340.4"/>
      <point x="301.40000000000003" y="429.8"/>
      <point x="191.5" y="429.8" type="curve" smooth="yes"/>
      <point x="116.89999999999999" y="429.8"/>
      <point x="81.80000000000001" y="398.7"/>
      <point x="65.2" y="388.1" type="curve"/>
      <point x="65.2" y="236.4" type="line"/>
      <point x="99.8" y="257.9"/>
      <point x="126.99999999999999" y="276.8"/>
      <point x="184.4" y="276.8" type="curve" smooth="yes"/>
      <point x="299.59999999999997" y="276.8"/>
      <point x="390.3" y="186.7"/>
      <point x="528.2" y="186.7" type="curve" smooth="yes"/>
      <point x="579.6" y="186.7"/>
      <point x="624.8" y="209.3"/>
    </contour>
  </outline>
</glyph>
<glyph name="exclamdown" format="2">
  <advance width="373.8"/>
  <unicode hex="00A1"/>
  <outline>
    <contour>
      <point x="280.2" y="282.8" type="line"/>
      <point x="98.5" y="282.8" type="line"/>
      <point x="84.5" y="-196.7" type="line"/>
      <point x="294.20000000000005" y="-196.7" type="line"/>
    </contour>
    <contour>
      <point x="306.09999999999997" y="466.1" type="curve" smooth="yes"/>
      <point x="306.09999999999997" y="523.4"/>
      <point x="274.3" y="551.0"/>
      <point x="186.9" y="551.0" type="curve" smooth="yes"/>
      <point x="99.79999999999998" y="551.0"/>
      <point x="67.7" y="523.4"/>
      <point x="67.7" y="466.1" type="curve" smooth="yes"/>
      <point x="67.7" y="408.09999999999997"/>
      <point x="99.5" y="380.5"/>
      <point x="186.9" y="380.5" type="curve" smooth="yes"/>
      <point x="274.3" y="380.5"/>
      <point x="306.09999999999997" y="408.09999999999997"/>
    </contour>
  </outline>
</glyph>
<glyph name="cent" format="2">
  <advance width="1045.2"/>
  <unicode hex="00A2"/>
  <outline>
    <contour>
      <point x="531.6" y="-10.0" type="curve" smooth="yes"/>
      <point x="650.1999999999999" y="-10.0"/>
      <point x="779.5999999999999" y="2.8999999999999986"/>
      <point x="882.4" y="25.299999999999997" type="curve"/>
      <point x="860.9" y="156.6" type="line"/>
      <point x="763.6" y="139.4"/>
      <point x="671.4" y="130.4"/>
      <point x="583.6" y="130.4" type="curve" smooth="yes"/>
      <point x="440.40000000000003" y="130.4"/>
      <point x="357.79999999999995" y="174.6"/>
      <point x="357.79999999999995" y="265.70000000000005" type="curve" smooth="yes"/>
      <point x="357.79999999999995" y="359.2"/>
      <point x="436.70000000000005" y="410.09999999999997"/>
      <point x="573.3" y="410.09999999999997" type="curve" smooth="yes"/>
      <point x="663.4000000000001" y="410.09999999999997"/>
      <point x="746.8" y="401.8"/>
      <point x="844.1" y="381.5" type="curve"/>
      <point x="865.5999999999999" y="521.9" type="line"/>
      <point x="765.1" y="544.4000000000001"/>
      <point x="688.1999999999999" y="554.0"/>
      <point x="566.3000000000001" y="554.0" type="curve" smooth="yes"/>
      <point x="277.0" y="554.0"/>
      <point x="148.8" y="423.7"/>
      <point x="148.8" y="261.5" type="curve" smooth="yes"/>
      <point x="148.8" y="88.19999999999999"/>
      <point x="286.9" y="-10.0"/>
    </contour>
    <contour>
      <point x="452.6" y="-105.0" type="line"/>
      <point x="599.3" y="-105.0" type="line"/>
      <point x="599.3" y="4.3999999999999995" type="line"/>
      <point x="452.6" y="8.3" type="line"/>
    </contour>
    <contour>
      <point x="452.6" y="531.9" type="line"/>
      <point x="599.3" y="540.5999999999999" type="line"/>
      <point x="599.3" y="649.0" type="line"/>
      <point x="452.6" y="649.0" type="line"/>
    </contour>
  </outline>
</glyph>
<glyph name="sterling" format="2">
  <advance width="1045.2"/>
  <unicode hex="00A3"/>
  <outline>
    <contour>
      <point x="121.79999999999998" y="0.0" type="line"/>
      <point x="944.4000000000001" y="0.0" type="line"/>
      <point x="944.4000000000001" y="149.0" type="line"/>
      <point x="380.4" y="149.0" type="line"/>
      <point x="442.6" y="186.4"/>
      <point x="469.79999999999995" y="229.00000000000003"/>
      <point x="469.79999999999995" y="267.2" type="curve" smooth="yes"/>
      <point x="469.79999999999995" y="334.0"/>
      <point x="391.2" y="392.4"/>
      <point x="391.2" y="459.0" type="curve" smooth="yes"/>
      <point x="391.2" y="524.6000000000001"/>
      <point x="468.40000000000003" y="554.2"/>
      <point x="586.8" y="554.2" type="curve" smooth="yes"/>
      <point x="695.6" y="554.2"/>
      <point x="811.6000000000001" y="540.4"/>
      <point x="900.6000000000001" y="516.0000000000001" type="curve"/>
      <point x="926.5999999999999" y="664.8" type="line"/>
      <point x="823.8000000000001" y="692.8000000000001"/>
      <point x="709.8000000000001" y="710.0"/>
      <point x="572.8" y="710.0" type="curve" smooth="yes"/>
      <point x="309.8" y="710.0"/>
      <point x="172.0" y="634.6"/>
      <point x="172.0" y="505.6" type="curve" smooth="yes"/>
      <point x="172.0" y="413.8"/>
      <point x="263.20000000000005" y="332.40000000000003"/>
      <point x="263.20000000000005" y="270.4" type="curve" smooth="yes"/>
      <point x="263.20000000000005" y="210.0"/>
      <point x="228.4" y="189.60000000000002"/>
      <point x="121.79999999999998" y="126.6" type="curve"/>
    </contour>
    <contour>
      <point x="115.8" y="299.0" type="line"/>
      <point x="784.4000000000001" y="299.0" type="line"/>
      <point x="784.4000000000001" y="402.8" type="line"/>
      <point x="115.8" y="402.8" type="line"/>
    </contour>
  </outline>
</glyph>
<glyph name="currency" format="2">
  <advance width="570.5"/>
  <unicode hex="00A4"/>
  <outline>
    <contour>
      <point x="64.6" y="445.4" type="line"/>
      <point x="127.4" y="381.6" type="line"/>
      <point x="116.80000000000001" y="360.7"/>
      <point x="110.39999999999999" y="337.0"/>
      <point x="110.39999999999999" y="310.7" type="curve" smooth="yes"/>
      <point x="110.39999999999999" y="283.7"/>
      <point x="116.80000000000001" y="259.3"/>
      <point x="128.4" y="238.4" type="curve"/>
      <point x="64.6" y="174.60000000000002" type="line"/>
      <point x="150.0" y="89.2" type="line"/>
      <point x="227.79999999999998" y="166.3" type="line"/>
      <point x="243.8" y="158.9"/>
      <point x="262.6" y="155.6"/>
      <point x="283.0" y="155.6" type="curve" smooth="yes"/>
      <point x="304.8" y="155.6"/>
      <point x="324.6" y="159.6"/>
      <point x="342.0" y="167.0" type="curve"/>
      <point x="420.5" y="89.2" type="line"/>
      <point x="505.9" y="174.60000000000002" type="line"/>
      <point x="438.6" y="241.9" type="line"/>
      <point x="448.8" y="262.1"/>
      <point x="455.20000000000005" y="285.1"/>
      <point x="455.20000000000005" y="310.7" type="curve" smooth="yes"/>
      <point x="455.20000000000005" y="335.59999999999997"/>
      <point x="449.5" y="357.9"/>
      <point x="438.6" y="378.1" type="curve"/>
      <point x="505.9" y="445.4" type="line"/>
      <point x="420.5" y="530.8" type="line"/>
      <point x="342.0" y="452.3" type="line"/>
      <point x="324.59999999999997" y="460.4"/>
      <point x="305.1" y="464.7"/>
      <point x="283.0" y="464.7" type="curve" smooth="yes"/>
      <point x="262.3" y="464.7"/>
      <point x="243.5" y="460.4"/>
      <point x="227.5" y="453.0" type="curve"/>
      <point x="150.0" y="530.8" type="line"/>
    </contour>
    <contour>
      <point x="282.29999999999995" y="252.6" type="curve" smooth="yes"/>
      <point x="249.70000000000002" y="252.6"/>
      <point x="224.20000000000002" y="277.4"/>
      <point x="224.20000000000002" y="310.70000000000005" type="curve" smooth="yes"/>
      <point x="224.20000000000002" y="342.2"/>
      <point x="249.0" y="367.7"/>
      <point x="282.29999999999995" y="367.7" type="curve" smooth="yes"/>
      <point x="315.9" y="367.7"/>
      <point x="341.4" y="342.2"/>
      <point x="341.4" y="310.70000000000005" type="curve" smooth="yes"/>
      <point x="341.4" y="277.4"/>
      <point x="315.2" y="252.6"/>
    </contour>
  </outline>
</glyph>
<glyph name="yen" format="2">
  <advance width="1045.2"/>
  <unicode hex="00A5"/>
  <outline>
    <contour>
      <point x="151.4" y="320.40000000000003" type="line"/>
      <point x="407.19999999999993" y="320.40000000000003" type="line"/>
      <point x="407.19999999999993" y="263.2" type="line"/>
      <point x="151.4" y="263.2" type="line"/>
      <point x="151.4" y="181.8" type="line"/>
      <point x="407.19999999999993" y="181.8" type="line"/>
      <point x="407.19999999999993" y="0.0" type="line"/>
      <point x="642.8" y="0.0" type="line"/>
      <point x="642.8" y="181.8" type="line"/>
      <point x="908.0" y="181.8" type="line"/>
      <point x="908.0" y="263.2" type="line"/>
      <point x="642.8" y="263.2" type="line"/>
      <point x="642.8" y="320.40000000000003" type="line"/>
      <point x="908.0" y="320.40000000000003" type="line"/>
      <point x="908.0" y="402.4" type="line"/>
      <point x="642.8" y="402.4" type="line"/>
      <point x="956.9999999999998" y="697.6" type="line"/>
      <point x="724.8" y="702.4" type="line"/>
      <point x="527.0" y="510.3999999999999" type="line"/>
      <point x="324.4" y="702.4" type="line"/>
      <point x="88.80000000000001" y="697.6" type="line"/>
      <point x="407.19999999999993" y="402.4" type="line"/>
      <point x="151.4" y="402.4" type="line"/>
    </contour>
  </outline>
</glyph>
<glyph name="section" format="2">
  <advance width="807.8"/>
  <unicode hex="00A7"/>
  <outline>
    <contour>
      <point x="332.1" y="-220.0" type="curve" smooth="yes"/>
      <point x="585.2" y="-220.0"/>
      <point x="739.1" y="-108.10000000000001"/>
      <point x="739.1" y="83.0" type="curve" smooth="yes"/>
      <point x="739.1" y="184.5"/>
      <point x="705.1" y="254.89999999999998"/>
      <point x="604.6" y="379.2" type="curve" smooth="yes"/>
      <point x="542.7" y="456.7"/>
      <point x="520.3" y="489.69999999999993"/>
      <point x="520.3" y="520.6" type="curve" smooth="yes"/>
      <point x="520.3" y="558.4"/>
      <point x="551.5" y="583.0"/>
      <point x="600.4" y="583.0" type="curve" smooth="yes"/>
      <point x="620.4000000000001" y="583.0"/>
      <point x="642.2" y="579.5"/>
      <point x="673.2" y="569.9000000000001" type="curve"/>
      <point x="696.6999999999999" y="724.4" type="line"/>
      <point x="620.0" y="743.9"/>
      <point x="552.5" y="750.0"/>
      <point x="490.0" y="750.0" type="curve" smooth="yes"/>
      <point x="218.0" y="750.0"/>
      <point x="83.80000000000001" y="636.0999999999999"/>
      <point x="83.5" y="448.79999999999995" type="curve" smooth="yes"/>
      <point x="83.5" y="347.2"/>
      <point x="122.00000000000001" y="269.0"/>
      <point x="211.20000000000002" y="152.5" type="curve" smooth="yes"/>
      <point x="268.40000000000003" y="77.6"/>
      <point x="296.59999999999997" y="44.699999999999996"/>
      <point x="296.9" y="4.099999999999998" type="curve" smooth="yes"/>
      <point x="297.2" y="-28.500000000000004"/>
      <point x="264.5" y="-55.2"/>
      <point x="213.8" y="-55.2" type="curve" smooth="yes"/>
      <point x="176.29999999999998" y="-55.2"/>
      <point x="147.9" y="-45.6"/>
      <point x="99.0" y="-21.900000000000006" type="curve"/>
      <point x="65.19999999999999" y="-166.0" type="line"/>
      <point x="161.70000000000002" y="-205.4"/>
      <point x="236.0" y="-220.0"/>
    </contour>
    <contour>
      <point x="356.6" y="-124.70000000000002" type="curve" smooth="yes"/>
      <point x="319.4" y="-124.70000000000002"/>
      <point x="284.0" y="-121.0"/>
      <point x="255.8" y="-108.10000000000001" type="curve"/>
      <point x="281.0" y="-131.8" type="line"/>
      <point x="384.4" y="-141.70000000000002"/>
      <point x="474.1" y="-82.9"/>
      <point x="474.1" y="2.6999999999999886" type="curve" smooth="yes"/>
      <point x="474.1" y="59.599999999999994"/>
      <point x="445.20000000000005" y="113.60000000000001"/>
      <point x="365.5" y="221.6" type="curve" smooth="yes"/>
      <point x="286.0" y="328.4"/>
      <point x="255.4" y="400.2"/>
      <point x="255.4" y="466.29999999999995" type="curve" smooth="yes"/>
      <point x="255.4" y="571.1999999999999"/>
      <point x="335.8" y="642.8000000000001"/>
      <point x="452.90000000000003" y="642.8000000000001" type="curve" smooth="yes"/>
      <point x="486.7" y="642.8000000000001"/>
      <point x="509.6" y="638.3000000000001"/>
      <point x="538.0" y="625.1" type="curve"/>
      <point x="507.90000000000003" y="652.4" type="line"/>
      <point x="426.2" y="658.6"/>
      <point x="352.90000000000003" y="600.9"/>
      <point x="352.6" y="521.4" type="curve" smooth="yes"/>
      <point x="352.6" y="461.3"/>
      <point x="377.0" y="420.29999999999995"/>
      <point x="450.3" y="313.59999999999997" type="curve" smooth="yes"/>
      <point x="543.3" y="177.8"/>
      <point x="576.3" y="119.89999999999999"/>
      <point x="576.3" y="55.0" type="curve" smooth="yes"/>
      <point x="576.6" y="-27.099999999999994"/>
      <point x="515.0" y="-124.40000000000002"/>
    </contour>
  </outline>
</glyph>
<glyph name="copyright" format="2">
  <advance width="954.1999999999999"/>
  <unicode hex="00A9"/>
  <outline>
    <contour>
      <point x="477.4" y="65.2" type="curve" smooth="yes"/>
      <point x="268.8" y="65.2"/>
      <point x="146.20000000000002" y="167.99999999999997"/>
      <point x="146.20000000000002" y="348.59999999999997" type="curve" smooth="yes"/>
      <point x="146.20000000000002" y="530.5999999999999"/>
      <point x="269.8" y="629.5999999999999"/>
      <point x="477.4" y="629.5999999999999" type="curve" smooth="yes"/>
      <point x="684.4" y="629.5999999999999"/>
      <point x="808.0" y="530.5999999999999"/>
      <point x="808.0" y="348.59999999999997" type="curve" smooth="yes"/>
      <point x="808.0" y="167.99999999999997"/>
      <point x="685.4" y="65.2"/>
    </contour>
    <contour>
      <point x="477.4" y="710.0" type="curve" smooth="yes"/>
      <point x="223.8" y="710.0"/>
      <point x="57.599999999999994" y="573.4"/>
      <point x="57.599999999999994" y="348.59999999999997" type="curve" smooth="yes"/>
      <point x="57.599999999999994" y="124.6"/>
      <point x="222.00000000000003" y="-10.0"/>
      <point x="477.4" y="-10.0" type="curve" smooth="yes"/>
      <point x="732.1999999999999" y="-10.0"/>
      <point x="896.6" y="124.6"/>
      <point x="896.6" y="348.59999999999997" type="curve" smooth="yes"/>
      <point x="896.6" y="573.4"/>
      <point x="731.0" y="710.0"/>
    </contour>
    <contour>
      <point x="252.00000000000003" y="340.20000000000005" type="curve" smooth="yes"/>
      <point x="252.00000000000003" y="210.2"/>
      <point x="353.0" y="167.2"/>
      <point x="476.4" y="167.2" type="curve" smooth="yes"/>
      <point x="559.2" y="167.2"/>
      <point x="639.6" y="186.2"/>
      <point x="689.0000000000001" y="208.8" type="curve"/>
      <point x="671.8" y="289.40000000000003" type="line"/>
      <point x="637.1999999999999" y="278.8"/>
      <point x="571.2" y="263.2"/>
      <point x="505.4" y="263.2" type="curve" smooth="yes"/>
      <point x="422.8" y="263.2"/>
      <point x="380.0" y="285.20000000000005"/>
      <point x="380.0" y="344.6" type="curve" smooth="yes"/>
      <point x="380.0" y="415.00000000000006"/>
      <point x="427.80000000000007" y="436.8"/>
      <point x="514.4000000000001" y="436.8" type="curve" smooth="yes"/>
      <point x="563.0" y="436.8"/>
      <point x="615.6" y="426.4"/>
      <point x="655.4" y="415.2" type="curve"/>
      <point x="675.4000000000001" y="500.2" type="line"/>
      <point x="624.0" y="522.9999999999999"/>
      <point x="561.2" y="534.1999999999999"/>
      <point x="498.00000000000006" y="534.1999999999999" type="curve" smooth="yes"/>
      <point x="360.80000000000007" y="534.1999999999999"/>
      <point x="252.00000000000003" y="478.8"/>
    </contour>
  </outline>
</glyph>
<glyph name="ordfeminine" format="2">
  <advance width="601.3"/>
  <unicode hex="00AA"/>
  <outline>
    <contour>
      <point x="70.0" y="181.20000000000002" type="line"/>
      <point x="565.4" y="181.20000000000002" type="line"/>
      <point x="565.4" y="293.79999999999995" type="line"/>
      <point x="70.0" y="293.79999999999995" type="line"/>
    </contour>
    <component base="a.superior" xOffset="10.1"/>
  </outline>
</glyph>
<glyph name="logicalnot" format="2">
  <advance width="715.4"/>
  <unicode hex="00AC"/>
  <outline>
    <contour>
      <point x="60.9" y="311.90000000000003" type="line"/>
      <point x="505.0" y="311.90000000000003" type="line"/>
      <point x="505.0" y="159.5" type="line"/>
      <point x="654.5" y="159.5" type="line"/>
      <point x="654.5" y="461.40000000000003" type="line"/>
      <point x="60.9" y="461.40000000000003" type="line"/>
    </contour>
  </outline>
</glyph>
<glyph name="registered" format="2">
  <advance width="917.2000000000002"/>
  <unicode hex="00AE"/>
  <outline>
    <contour>
      <point x="448.6" y="206.6" type="curve" smooth="yes"/>
      <point x="702.0" y="206.6"/>
      <point x="859.6" y="329.6"/>
      <point x="859.6" y="549.6" type="curve" smooth="yes"/>
      <point x="859.6" y="763.4"/>
      <point x="703.0000000000001" y="894.0"/>
      <point x="448.6" y="894.0" type="curve" smooth="yes"/>
      <point x="207.6" y="894.0"/>
      <point x="57.599999999999994" y="763.4"/>
      <point x="57.599999999999994" y="549.6" type="curve" smooth="yes"/>
      <point x="57.599999999999994" y="336.80000000000007"/>
      <point x="205.20000000000002" y="206.6"/>
    </contour>
    <contour>
      <point x="448.6" y="278.4" type="curve" smooth="yes"/>
      <point x="250.60000000000002" y="278.4"/>
      <point x="141.8" y="378.19999999999993"/>
      <point x="141.8" y="549.6" type="curve" smooth="yes"/>
      <point x="141.8" y="722.4"/>
      <point x="251.00000000000006" y="817.4000000000001"/>
      <point x="448.6" y="817.4000000000001" type="curve" smooth="yes"/>
      <point x="658.0000000000001" y="817.4000000000001"/>
      <point x="775.4" y="721.9999999999999"/>
      <point x="775.4" y="549.6" type="curve" smooth="yes"/>
      <point x="775.4" y="377.2"/>
      <point x="656.6" y="278.4"/>
    </contour>
    <contour>
      <point x="678.4000000000001" y="399.99999999999994" type="curve" smooth="yes"/>
      <point x="680.4000000000001" y="399.99999999999994"/>
      <point x="681.6" y="399.99999999999994"/>
      <point x="683.5999999999999" y="399.99999999999994" type="curve"/>
      <point x="683.6" y="488.2" type="line"/>
      <point x="682.5999999999999" y="488.2"/>
      <point x="681.0" y="488.2"/>
      <point x="680.4000000000001" y="488.2" type="curve" smooth="yes"/>
      <point x="654.0" y="488.6"/>
      <point x="607.6" y="506.2"/>
      <point x="565.9999999999999" y="529.1999999999999" type="curve"/>
      <point x="625.4" y="532.8"/>
      <point x="668.8000000000001" y="550.6"/>
      <point x="668.8000000000001" y="613.6" type="curve" smooth="yes"/>
      <point x="668.8000000000001" y="679.6"/>
      <point x="616.2" y="706.4"/>
      <point x="450.59999999999997" y="706.4" type="curve" smooth="yes"/>
      <point x="418.0" y="706.4"/>
      <point x="353.79999999999995" y="705.4000000000001"/>
      <point x="258.20000000000005" y="702.0" type="curve"/>
      <point x="258.20000000000005" y="403.79999999999995" type="line"/>
      <point x="368.80000000000007" y="403.79999999999995" type="line"/>
      <point x="368.80000000000007" y="502.20000000000005" type="line"/>
      <point x="384.59999999999997" y="502.2"/>
      <point x="396.40000000000003" y="501.6"/>
      <point x="410.0" y="501.6" type="curve" smooth="yes"/>
      <point x="416.59999999999997" y="501.6"/>
      <point x="422.8" y="501.6"/>
      <point x="429.4" y="501.6" type="curve"/>
      <point x="511.0" y="453.79999999999995"/>
      <point x="597.1999999999999" y="399.99999999999994"/>
    </contour>
    <contour>
      <point x="438.0" y="563.8000000000001" type="curve" smooth="yes"/>
      <point x="418.6000000000001" y="563.8000000000001"/>
      <point x="402.00000000000006" y="564.8000000000001"/>
      <point x="368.80000000000007" y="564.8" type="curve"/>
      <point x="368.80000000000007" y="633.4" type="line"/>
      <point x="415.00000000000006" y="635.0"/>
      <point x="421.80000000000007" y="635.0"/>
      <point x="458.4" y="635.0" type="curve" smooth="yes"/>
      <point x="536.8" y="635.0"/>
      <point x="554.4" y="626.8000000000001"/>
      <point x="554.4" y="601.0" type="curve" smooth="yes"/>
      <point x="554.4" y="568.1999999999999"/>
      <point x="531.0" y="563.8000000000001"/>
    </contour>
  </outline>
</glyph>
<glyph name="degree" format="2">
  <advance width="430.4"/>
  <unicode hex="00B0"/>
  <outline>
    <contour>
      <point x="215.20000000000002" y="374.4" type="curve" smooth="yes"/>
      <point x="335.2" y="374.4"/>
      <point x="394.79999999999995" y="460.6"/>
      <point x="394.79999999999995" y="544.6" type="curve" smooth="yes"/>
      <point x="394.79999999999995" y="624.0"/>
      <point x="341.20000000000005" y="715.4"/>
      <point x="215.20000000000002" y="715.4" type="curve" smooth="yes"/>
      <point x="88.6" y="715.4"/>
      <point x="35.6" y="624.0"/>
      <point x="35.6" y="544.6" type="curve" smooth="yes"/>
      <point x="35.6" y="460.6"/>
      <point x="95.2" y="374.4"/>
    </contour>
    <contour>
      <point x="215.20000000000002" y="487.2" type="curve" smooth="yes"/>
      <point x="183.20000000000002" y="487.2"/>
      <point x="161.0" y="510.79999999999995"/>
      <point x="161.0" y="544.1999999999999" type="curve" smooth="yes"/>
      <point x="161.0" y="575.6"/>
      <point x="181.79999999999998" y="600.4"/>
      <point x="215.20000000000002" y="600.4" type="curve" smooth="yes"/>
      <point x="247.99999999999997" y="600.4"/>
      <point x="270.0" y="575.6"/>
      <point x="270.0" y="544.1999999999999" type="curve" smooth="yes"/>
      <point x="270.0" y="510.79999999999995"/>
      <point x="247.2" y="487.2"/>
    </contour>
  </outline>
</glyph>
<glyph name="plusminus" format="2">
  <advance width="715.4"/>
  <unicode hex="00B1"/>
  <outline>
    <contour>
      <point x="60.89999999999999" y="20.900000000000002" type="line"/>
      <point x="654.5" y="20.900000000000002" type="line"/>
      <point x="654.5" y="170.39999999999998" type="line"/>
      <point x="446.1" y="170.39999999999998" type="line"/>
      <point x="446.1" y="305.70000000000005" type="line"/>
      <point x="654.5" y="305.70000000000005" type="line"/>
      <point x="654.5" y="455.20000000000005" type="line"/>
      <point x="446.1" y="455.20000000000005" type="line"/>
      <point x="446.1" y="606.9" type="line"/>
      <point x="268.6" y="606.9" type="line"/>
      <point x="268.6" y="455.20000000000005" type="line"/>
      <point x="60.89999999999999" y="455.20000000000005" type="line"/>
      <point x="60.89999999999999" y="305.70000000000005" type="line"/>
      <point x="268.6" y="305.70000000000005" type="line"/>
      <point x="268.6" y="170.39999999999998" type="line"/>
      <point x="60.89999999999999" y="170.39999999999998" type="line"/>
    </contour>
  </outline>
</glyph>
<glyph name="uni00B2" format="2">
  <advance width="624.8"/>
  <unicode hex="00B2"/>
  <outline>
    <contour>
      <point x="49.8" y="370.0" type="line"/>
      <point x="576.3" y="370.0" type="line"/>
      <point x="576.3" y="462.3" type="line"/>
      <point x="314.4" y="462.3" type="line"/>
      <point x="472.0" y="527.6999999999999"/>
      <point x="506.6" y="568.9"/>
      <point x="506.6" y="633.7" type="curve" smooth="yes"/>
      <point x="506.6" y="717.3"/>
      <point x="420.0" y="772.0999999999999"/>
      <point x="285.3" y="772.0999999999999" type="curve" smooth="yes"/>
      <point x="210.6" y="772.0999999999999"/>
      <point x="113.00000000000001" y="751.5"/>
      <point x="57.5" y="724.3" type="curve"/>
      <point x="93.60000000000001" y="630.1999999999999" type="line"/>
      <point x="158.70000000000002" y="656.1"/>
      <point x="200.5" y="666.3"/>
      <point x="246.20000000000002" y="666.3" type="curve" smooth="yes"/>
      <point x="302.0" y="666.3"/>
      <point x="331.20000000000005" y="643.4"/>
      <point x="331.20000000000005" y="607.9000000000001" type="curve" smooth="yes"/>
      <point x="331.20000000000005" y="558.0"/>
      <point x="264.20000000000005" y="528.1"/>
      <point x="48.900000000000006" y="451.2" type="curve"/>
    </contour>
  </outline>
</glyph>
<glyph name="uni00B3" format="2">
  <advance width="619.0"/>
  <unicode hex="00B3"/>
  <outline>
    <contour>
      <point x="23.3" y="397.6" type="line"/>
      <point x="103.6" y="369.7"/>
      <point x="192.1" y="362.09999999999997"/>
      <point x="287.2" y="362.09999999999997" type="curve" smooth="yes"/>
      <point x="465.9" y="362.09999999999997"/>
      <point x="586.8" y="398.59999999999997"/>
      <point x="586.8" y="487.8" type="curve" smooth="yes"/>
      <point x="586.8" y="536.8"/>
      <point x="551.5999999999999" y="565.2"/>
      <point x="474.1" y="579.8000000000001" type="curve"/>
      <point x="526.4" y="587.1999999999999"/>
      <point x="564.8" y="617.6999999999999"/>
      <point x="564.8" y="666.5999999999999" type="curve" smooth="yes"/>
      <point x="564.8" y="731.6"/>
      <point x="483.4" y="772.7"/>
      <point x="295.8" y="772.7" type="curve" smooth="yes"/>
      <point x="182.0" y="772.7"/>
      <point x="87.9" y="760.9"/>
      <point x="41.800000000000004" y="749.4" type="curve"/>
      <point x="63.0" y="657.1999999999999" type="line"/>
      <point x="77.4" y="659.9"/>
      <point x="127.30000000000001" y="678.4"/>
      <point x="252.8" y="678.4" type="curve" smooth="yes"/>
      <point x="340.90000000000003" y="678.4"/>
      <point x="411.1" y="662.9"/>
      <point x="411.1" y="640.5" type="curve" smooth="yes"/>
      <point x="411.1" y="618.3"/>
      <point x="379.5" y="608.9"/>
      <point x="321.0" y="608.9" type="curve" smooth="yes"/>
      <point x="156.6" y="608.9" type="line"/>
      <point x="156.6" y="528.1" type="line"/>
      <point x="294.8" y="528.1" type="line" smooth="yes"/>
      <point x="398.5" y="528.1"/>
      <point x="425.40000000000003" y="518.4"/>
      <point x="425.40000000000003" y="496.2" type="curve" smooth="yes"/>
      <point x="425.40000000000003" y="468.09999999999997"/>
      <point x="377.29999999999995" y="450.2"/>
      <point x="272.5" y="450.2" type="curve" smooth="yes"/>
      <point x="151.4" y="450.2"/>
      <point x="97.9" y="460.59999999999997"/>
      <point x="48.9" y="480.1" type="curve"/>
    </contour>
  </outline>
</glyph>
<glyph name="uni00B5" format="2">
  <advance width="902.2"/>
  <unicode hex="00B5"/>
  <outline>
    <contour>
      <point x="75.0" y="-210.0" type="line"/>
      <point x="291.0" y="-210.0" type="line"/>
      <point x="291.0" y="22.20000000000001" type="line"/>
      <point x="311.5" y="1.8000000000000043"/>
      <point x="343.09999999999997" y="-10.0"/>
      <point x="386.8" y="-10.0" type="curve" smooth="yes"/>
      <point x="477.80000000000007" y="-10.0"/>
      <point x="539.6" y="20.600000000000005"/>
      <point x="616.3" y="71.7" type="curve"/>
      <point x="642.8000000000001" y="15.100000000000001"/>
      <point x="684.9000000000001" y="-10.0"/>
      <point x="757.0" y="-10.0" type="curve" smooth="yes"/>
      <point x="807.0" y="-10.0"/>
      <point x="866.8" y="5.6"/>
      <point x="897.1" y="25.599999999999998" type="curve"/>
      <point x="878.5" y="142.4" type="line"/>
      <point x="868.9" y="138.1"/>
      <point x="860.1" y="136.5"/>
      <point x="850.2" y="136.5" type="curve" smooth="yes"/>
      <point x="825.8" y="136.5"/>
      <point x="804.4" y="152.2"/>
      <point x="804.4" y="197.8" type="curve" smooth="yes"/>
      <point x="804.4" y="544.0" type="line"/>
      <point x="588.4" y="544.0" type="line"/>
      <point x="588.4" y="187.29999999999998" type="line"/>
      <point x="517.8" y="157.2"/>
      <point x="473.7" y="140.9"/>
      <point x="409.9" y="140.9" type="curve" smooth="yes"/>
      <point x="333.8" y="140.9"/>
      <point x="291.0" y="179.8"/>
      <point x="291.0" y="257.5" type="curve" smooth="yes"/>
      <point x="291.0" y="544.0" type="line"/>
      <point x="75.0" y="544.0" type="line"/>
    </contour>
  </outline>
</glyph>
<glyph name="paragraph" format="2">
  <advance width="927.9000000000001"/>
  <unicode hex="00B6"/>
  <outline>
    <contour>
      <point x="648.0" y="-210.0" type="line"/>
      <point x="815.0" y="-210.0" type="line"/>
      <point x="815.0" y="740.0" type="line"/>
      <point x="648.0" y="740.0" type="line"/>
    </contour>
    <contour>
      <point x="358.1" y="297.7" type="line"/>
      <point x="285.70000000000005" y="308.29999999999995"/>
      <point x="252.29999999999995" y="357.09999999999997"/>
      <point x="252.29999999999995" y="445.2" type="curve" smooth="yes"/>
      <point x="252.29999999999995" y="554.1999999999999"/>
      <point x="297.8" y="589.6"/>
      <point x="404.0" y="590.5" type="curve"/>
      <point x="404.0" y="-210.0" type="line"/>
      <point x="571.0" y="-210.0" type="line"/>
      <point x="571.0" y="740.0" type="line"/>
      <point x="448.1" y="740.0" type="line" smooth="yes"/>
      <point x="175.2" y="740.0"/>
      <point x="72.0" y="658.1999999999999"/>
      <point x="72.0" y="469.0" type="curve" smooth="yes"/>
      <point x="72.0" y="298.20000000000005"/>
      <point x="156.9" y="206.3"/>
      <point x="340.7" y="193.0" type="curve"/>
    </contour>
  </outline>
</glyph>
<glyph name="periodcentered" format="2">
  <advance width="339.6"/>
  <unicode hex="00B7"/>
  <outline>
    <contour>
      <point x="50.6" y="307.59999999999997" type="curve" smooth="yes"/>
      <point x="50.6" y="250.00000000000003"/>
      <point x="83.00000000000001" y="222.4"/>
      <point x="169.8" y="222.4" type="curve" smooth="yes"/>
      <point x="257.2" y="222.4"/>
      <point x="289.0" y="250.00000000000003"/>
      <point x="289.0" y="307.59999999999997" type="curve" smooth="yes"/>
      <point x="289.0" y="365.59999999999997"/>
      <point x="257.2" y="393.20000000000005"/>
      <point x="169.8" y="393.20000000000005" type="curve" smooth="yes"/>
      <point x="82.40000000000002" y="393.20000000000005"/>
      <point x="50.6" y="365.59999999999997"/>
    </contour>
  </outline>
</glyph>
<glyph name="uni00B9" format="2">
  <advance width="590.4"/>
  <unicode hex="00B9"/>
  <outline>
    <contour>
      <point x="65.39999999999999" y="370.0" type="line"/>
      <point x="565.1" y="370.0" type="line"/>
      <point x="565.1" y="465.8" type="line"/>
      <point x="413.3" y="465.8" type="line"/>
      <point x="413.3" y="765.1999999999999" type="line"/>
      <point x="327.4" y="765.1999999999999" type="line"/>
      <point x="30.6" y="667.5" type="line"/>
      <point x="73.0" y="564.0" type="line"/>
      <point x="239.60000000000002" y="619.6999999999999" type="line"/>
      <point x="239.60000000000002" y="465.8" type="line"/>
      <point x="65.39999999999999" y="465.8" type="line"/>
    </contour>
  </outline>
</glyph>
<glyph name="ordmasculine" format="2">
  <advance width="607.0"/>
  <unicode hex="00BA"/>
  <outline>
    <contour>
      <point x="53.9" y="181.5" type="line"/>
      <point x="551.7" y="181.5" type="line"/>
      <point x="551.7" y="294.09999999999997" type="line"/>
      <point x="53.9" y="294.09999999999997" type="line"/>
    </contour>
    <component base="o.superior" xOffset="8.0"/>
  </outline>
</glyph>
<glyph name="questiondown" format="2">
  <advance width="750.0"/>
  <unicode hex="00BF"/>
  <outline>
    <contour>
      <point x="490.9" y="283.7" type="line"/>
      <point x="309.20000000000005" y="283.7" type="line"/>
      <point x="307.8" y="233.10000000000002" type="line"/>
      <point x="109.4" y="191.1"/>
      <point x="36.5" y="126.5"/>
      <point x="36.5" y="18.599999999999998" type="curve" smooth="yes"/>
      <point x="36.5" y="-149.4"/>
      <point x="206.20000000000002" y="-206.7"/>
      <point x="368.5" y="-206.7" type="curve" smooth="yes"/>
      <point x="479.8" y="-206.7"/>
      <point x="629.7" y="-173.6"/>
      <point x="722.3000000000001" y="-119.7" type="curve"/>
      <point x="672.4" y="22.19999999999999" type="line"/>
      <point x="582.5" y="-20.600000000000016"/>
      <point x="486.3" y="-48.1"/>
      <point x="404.2" y="-48.1" type="curve" smooth="yes"/>
      <point x="324.7" y="-48.1"/>
      <point x="260.9" y="-31.200000000000014"/>
      <point x="260.9" y="27.699999999999996" type="curve" smooth="yes"/>
      <point x="260.9" y="70.4"/>
      <point x="291.1" y="101.69999999999999"/>
      <point x="495.79999999999995" y="135.9" type="curve"/>
    </contour>
    <contour>
      <point x="518.2" y="466.1" type="curve" smooth="yes"/>
      <point x="518.2" y="523.4000000000001"/>
      <point x="486.1" y="551.0"/>
      <point x="399.0" y="551.0" type="curve" smooth="yes"/>
      <point x="311.6" y="551.0"/>
      <point x="279.8" y="523.4000000000001"/>
      <point x="279.8" y="466.1" type="curve" smooth="yes"/>
      <point x="279.8" y="408.09999999999997"/>
      <point x="311.6" y="380.5"/>
      <point x="399.0" y="380.5" type="curve" smooth="yes"/>
      <point x="486.4" y="380.5"/>
      <point x="518.2" y="408.09999999999997"/>
    </contour>
  </outline>
</glyph>
<glyph name="AE" format="2">
  <advance width="1627.8"/>
  <unicode hex="00C6"/>
  <anchor x="854.6" y="700.0" name="top"/>
  <outline>
    <contour>
      <point x="0.599999999999999" y="0.0" type="line"/>
      <point x="259.4" y="0.0" type="line"/>
      <point x="432.6" y="189.4" type="line"/>
      <point x="737.2" y="189.4" type="line"/>
      <point x="737.2" y="0.0" type="line"/>
      <point x="1581.8" y="0.0" type="line"/>
      <point x="1581.8" y="160.0" type="line"/>
      <point x="949.9999999999999" y="160.0" type="line"/>
      <point x="949.9999999999999" y="287.40000000000003" type="line"/>
      <point x="1520.8" y="287.40000000000003" type="line"/>
      <point x="1520.8" y="434.4" type="line"/>
      <point x="949.9999999999999" y="434.4" type="line"/>
      <point x="949.9999999999999" y="540.0" type="line"/>
      <point x="1552.8000000000002" y="540.0" type="line"/>
      <point x="1552.8000000000002" y="700.0" type="line"/>
      <point x="644.2" y="700.0" type="line"/>
    </contour>
    <contour>
      <point x="550.8000000000001" y="340.4" type="line"/>
      <point x="737.2" y="541.8" type="line"/>
      <point x="737.2" y="340.4" type="line"/>
    </contour>
  </outline>
</glyph>
<glyph name="multiply" format="2">
  <advance width="645.4"/>
  <unicode hex="00D7"/>
  <outline>
    <contour>
      <point x="146.20000000000002" y="58.69999999999999" type="line"/>
      <point x="323.0" y="212.39999999999998" type="line"/>
      <point x="498.90000000000003" y="59.60000000000001" type="line"/>
      <point x="593.4" y="175.79999999999998" type="line"/>
      <point x="441.29999999999995" y="309.0" type="line"/>
      <point x="594.0" y="443.5" type="line"/>
      <point x="499.5" y="559.6999999999999" type="line"/>
      <point x="323.0" y="405.6" type="line"/>
      <point x="145.9" y="560.3" type="line"/>
      <point x="51.400000000000006" y="444.1" type="line"/>
      <point x="204.0" y="309.0" type="line"/>
      <point x="51.7" y="174.9" type="line"/>
    </contour>
  </outline>
</glyph>
<glyph name="Oslash" format="2">
  <advance width="1177.8"/>
  <unicode hex="00D8"/>
  <anchor x="588.5" y="700.0" name="top"/>
  <outline>
    <contour>
      <point x="238.39999999999998" y="-17.0" type="line"/>
      <point x="370.6" y="75.39999999999999" type="line"/>
      <point x="369.9" y="73.49999999999999" type="line"/>
      <point x="928.5999999999999" y="538.6999999999999" type="line"/>
      <point x="928.7" y="538.3000000000001" type="line"/>
      <point x="1132.0" y="717.0" type="line"/>
      <point x="937.6999999999999" y="717.0" type="line"/>
      <point x="813.6" y="620.5" type="line"/>
      <point x="814.3000000000001" y="622.4000000000001" type="line"/>
      <point x="243.7" y="155.39999999999998" type="line"/>
      <point x="244.60000000000002" y="154.6" type="line"/>
      <point x="45.80000000000001" y="-17.0" type="line"/>
    </contour>
    <contour>
      <point x="589.1999999999999" y="128.3" type="curve" smooth="yes"/>
      <point x="419.5" y="128.3"/>
      <point x="279.6" y="189.4"/>
      <point x="279.6" y="351.4" type="curve" smooth="yes"/>
      <point x="279.6" y="514.9"/>
      <point x="419.2" y="571.7"/>
      <point x="589.1999999999999" y="571.7" type="curve" smooth="yes"/>
      <point x="756.7" y="571.7"/>
      <point x="897.6000000000001" y="514.5"/>
      <point x="897.6000000000001" y="351.40000000000003" type="curve" smooth="yes"/>
      <point x="897.6000000000001" y="186.60000000000002"/>
      <point x="756.3" y="128.3"/>
    </contour>
    <contour>
      <point x="589.5" y="-10.0" type="curve" smooth="yes"/>
      <point x="922.3999999999999" y="-10.0"/>
      <point x="1124.7" y="94.89999999999998"/>
      <point x="1124.7" y="354.59999999999997" type="curve" smooth="yes"/>
      <point x="1124.7" y="600.1999999999999"/>
      <point x="935.1999999999999" y="710.0"/>
      <point x="589.1999999999999" y="710.0" type="curve" smooth="yes"/>
      <point x="240.20000000000005" y="710.0"/>
      <point x="53.10000000000001" y="599.0000000000001"/>
      <point x="53.10000000000001" y="353.1" type="curve" smooth="yes"/>
      <point x="53.10000000000001" y="100.0"/>
      <point x="256.6" y="-10.0"/>
    </contour>
  </outline>
</glyph>
<glyph name="Thorn" format="2">
  <advance width="1116.6"/>
  <unicode hex="00DE"/>
  <outline>
    <contour>
      <point x="95.1" y="0.0" type="line"/>
      <point x="325.1" y="0.0" type="line"/>
      <point x="325.1" y="117.9" type="line"/>
      <point x="486.40000000000003" y="113.9"/>
      <point x="465.7" y="113.6"/>
      <point x="621.1" y="113.6" type="curve" smooth="yes"/>
      <point x="959.1" y="113.6"/>
      <point x="1063.8" y="182.10000000000002"/>
      <point x="1063.8" y="377.5" type="curve" smooth="yes"/>
      <point x="1063.8" y="570.8"/>
      <point x="969.3000000000001" y="636.0"/>
      <point x="551.3" y="636.0" type="curve" smooth="yes"/>
      <point x="508.2" y="636.0"/>
      <point x="434.6" y="634.7"/>
      <point x="325.09999999999997" y="631.6" type="curve"/>
      <point x="325.09999999999997" y="700.0" type="line"/>
      <point x="95.1" y="700.0" type="line"/>
    </contour>
    <contour>
      <point x="522.4" y="265.2" type="curve" smooth="yes"/>
      <point x="456.90000000000003" y="265.2"/>
      <point x="419.29999999999995" y="266.79999999999995"/>
      <point x="325.09999999999997" y="270.5" type="curve"/>
      <point x="325.09999999999997" y="480.70000000000005" type="line"/>
      <point x="465.3" y="485.90000000000003"/>
      <point x="496.50000000000006" y="486.5"/>
      <point x="570.2" y="486.5" type="curve" smooth="yes"/>
      <point x="777.9000000000001" y="486.5"/>
      <point x="828.9" y="452.0"/>
      <point x="828.9" y="376.8" type="curve" smooth="yes"/>
      <point x="828.9" y="296.3"/>
      <point x="792.2" y="265.2"/>
    </contour>
  </outline>
</glyph>
<glyph name="germandbls" format="2">
  <advance width="1056.3999999999999"/>
  <unicode hex="00DF"/>
  <outline>
    <contour>
      <point x="137.8" y="0.0" type="line"/>
      <point x="353.79999999999995" y="0.0" type="line"/>
      <point x="353.79999999999995" y="465.8" type="line" smooth="yes"/>
      <point x="353.79999999999995" y="574.0"/>
      <point x="441.40000000000003" y="616.1999999999999"/>
      <point x="590.5999999999999" y="616.1999999999999" type="curve" smooth="yes"/>
      <point x="730.6000000000001" y="616.1999999999999"/>
      <point x="762.2" y="600.8"/>
      <point x="762.2" y="570.6" type="curve" smooth="yes"/>
      <point x="762.2" y="548.2000000000002"/>
      <point x="738.8" y="537.9999999999999"/>
      <point x="658.4000000000001" y="529.3999999999999" type="curve" smooth="yes"/>
      <point x="506.59999999999997" y="515.8"/>
      <point x="451.2" y="450.0"/>
      <point x="451.2" y="367.8" type="curve" smooth="yes"/>
      <point x="451.2" y="258.0"/>
      <point x="505.79999999999995" y="212.0"/>
      <point x="728.2" y="192.6" type="curve" smooth="yes"/>
      <point x="829.2" y="183.6"/>
      <point x="858.1999999999998" y="174.2"/>
      <point x="858.1999999999998" y="146.39999999999998" type="curve" smooth="yes"/>
      <point x="858.1999999999998" y="119.0"/>
      <point x="806.6" y="108.8"/>
      <point x="744.9999999999999" y="108.8" type="curve" smooth="yes"/>
      <point x="659.5999999999999" y="108.8"/>
      <point x="523.8" y="127.0"/>
      <point x="438.5999999999999" y="150.59999999999997" type="curve"/>
      <point x="417.2" y="24.8" type="line"/>
      <point x="521.6" y="-0.1999999999999993"/>
      <point x="631.0" y="-10.6"/>
      <point x="727.2" y="-10.6" type="curve" smooth="yes"/>
      <point x="878.8" y="-10.6"/>
      <point x="1056.0" y="16.4"/>
      <point x="1056.0" y="162.79999999999998" type="curve" smooth="yes"/>
      <point x="1056.0" y="273.59999999999997"/>
      <point x="981.8" y="317.79999999999995"/>
      <point x="793.6" y="333.0" type="curve" smooth="yes"/>
      <point x="676.4" y="341.79999999999995"/>
      <point x="641.4" y="345.8"/>
      <point x="641.4" y="376.4" type="curve" smooth="yes"/>
      <point x="641.4" y="401.19999999999993"/>
      <point x="671.8" y="407.00000000000006"/>
      <point x="744.5999999999999" y="416.4" type="curve" smooth="yes"/>
      <point x="879.6" y="433.0"/>
      <point x="953.2" y="470.20000000000005"/>
      <point x="953.2" y="569.8000000000001" type="curve" smooth="yes"/>
      <point x="953.2" y="697.6"/>
      <point x="828.8000000000001" y="750.0"/>
      <point x="584.1999999999999" y="750.0" type="curve" smooth="yes"/>
      <point x="282.5999999999999" y="750.0"/>
      <point x="137.8" y="677.4"/>
      <point x="137.8" y="498.2" type="curve" smooth="yes"/>
      <point x="137.8" y="484.0" type="line"/>
      <point x="23.599999999999994" y="468.8" type="line"/>
      <point x="23.599999999999994" y="353.0" type="line"/>
      <point x="137.8" y="353.0" type="line"/>
    </contour>
  </outline>
</glyph>
<glyph name="ae" format="2">
  <advance width="1331.8000000000002"/>
  <unicode hex="00E6"/>
  <anchor x="678.8" y="544.0" name="top"/>
  <outline>
    <contour>
      <point x="258.40000000000003" y="-10.0" type="curve" smooth="yes"/>
      <point x="403.20000000000005" y="-10.0"/>
      <point x="481.79999999999995" y="19.200000000000003"/>
      <point x="589.0" y="84.4" type="curve"/>
      <point x="590.4000000000001" y="84.4" type="line"/>
      <point x="660.4000000000001" y="18.0"/>
      <point x="764.8" y="-10.0"/>
      <point x="935.5999999999999" y="-10.0" type="curve" smooth="yes"/>
      <point x="1079.8" y="-10.0"/>
      <point x="1177.8" y="2.6000000000000014"/>
      <point x="1282.8" y="23.8" type="curve"/>
      <point x="1259.6" y="157.20000000000002" type="line"/>
      <point x="1164.2" y="139.79999999999998"/>
      <point x="1054.2" y="125.8"/>
      <point x="948.2" y="125.8" type="curve" smooth="yes"/>
      <point x="812.1999999999999" y="125.8"/>
      <point x="758.2" y="155.6"/>
      <point x="750.6" y="212.8" type="curve" smooth="yes"/>
      <point x="749.6" y="217.8"/>
      <point x="749.6" y="219.4"/>
      <point x="750.2" y="226.4" type="curve"/>
      <point x="1010.8" y="230.20000000000002"/>
      <point x="1181.0" y="242.20000000000002"/>
      <point x="1280.4" y="246.60000000000002" type="curve"/>
      <point x="1281.3999999999999" y="259.4"/>
      <point x="1282.3999999999999" y="276.0"/>
      <point x="1282.3999999999999" y="296.2" type="curve" smooth="yes"/>
      <point x="1282.3999999999999" y="469.2"/>
      <point x="1164.8" y="554.0"/>
      <point x="927.6" y="554.0" type="curve" smooth="yes"/>
      <point x="791.6" y="554.0"/>
      <point x="721.4" y="517.1999999999999"/>
      <point x="669.4" y="464.2" type="curve"/>
      <point x="668.0" y="464.2" type="line"/>
      <point x="606.6" y="527.6"/>
      <point x="540.4" y="554.0"/>
      <point x="386.8" y="554.0" type="curve" smooth="yes"/>
      <point x="295.4" y="554.0"/>
      <point x="190.4" y="542.0"/>
      <point x="87.8" y="518.4" type="curve"/>
      <point x="111.00000000000001" y="385.0" type="line"/>
      <point x="190.20000000000005" y="403.4"/>
      <point x="303.0" y="417.4"/>
      <point x="373.40000000000003" y="417.4" type="curve" smooth="yes"/>
      <point x="486.8" y="417.4"/>
      <point x="534.8" y="394.8"/>
      <point x="534.8" y="347.4" type="curve" smooth="yes"/>
      <point x="534.8" y="330.40000000000003" type="line"/>
      <point x="153.0" y="326.2"/>
      <point x="43.6" y="286.20000000000005"/>
      <point x="43.6" y="151.79999999999998" type="curve" smooth="yes"/>
      <point x="43.6" y="47.199999999999996"/>
      <point x="119.6" y="-10.0"/>
    </contour>
    <contour>
      <point x="345.6" y="103.8" type="curve" smooth="yes"/>
      <point x="294.6" y="103.8"/>
      <point x="266.2" y="119.19999999999999"/>
      <point x="266.2" y="155.0" type="curve" smooth="yes"/>
      <point x="266.2" y="213.20000000000002"/>
      <point x="314.6" y="227.4"/>
      <point x="534.6" y="233.79999999999998" type="curve"/>
      <point x="534.6" y="227.8"/>
      <point x="534.6" y="221.79999999999998"/>
      <point x="534.6" y="212.20000000000002" type="curve" smooth="yes"/>
      <point x="534.6" y="198.60000000000002"/>
      <point x="535.2" y="186.20000000000002"/>
      <point x="537.5999999999999" y="175.60000000000002" type="curve"/>
      <point x="492.20000000000005" y="132.0"/>
      <point x="409.79999999999995" y="103.8"/>
    </contour>
    <contour>
      <point x="751.8" y="331.40000000000003" type="curve"/>
      <point x="769.8000000000001" y="395.0"/>
      <point x="825.9999999999999" y="427.20000000000005"/>
      <point x="914.0" y="427.20000000000005" type="curve" smooth="yes"/>
      <point x="998.0" y="427.20000000000005"/>
      <point x="1048.6" y="396.4"/>
      <point x="1060.2" y="340.6" type="curve"/>
      <point x="988.4000000000001" y="337.6"/>
      <point x="885.4000000000001" y="331.8"/>
    </contour>
  </outline>
</glyph>
<glyph name="eth" format="2">
  <advance width="883.2"/>
  <unicode hex="00F0"/>
  <outline>
    <contour>
      <point x="671.8" y="352.99999999999994" type="curve"/>
      <point x="673.2" y="468.5999999999999" type="line"/>
      <point x="593.0" y="507.4"/>
      <point x="518.2" y="523.4"/>
      <point x="406.6" y="523.4" type="curve" smooth="yes"/>
      <point x="156.4" y="523.4"/>
      <point x="40.0" y="419.99999999999994"/>
      <point x="40.0" y="250.2" type="curve" smooth="yes"/>
      <point x="40.0" y="83.60000000000001"/>
      <point x="168.79999999999998" y="-10.0"/>
      <point x="415.4" y="-10.0" type="curve" smooth="yes"/>
      <point x="704.0" y="-10.0"/>
      <point x="845.3999999999999" y="104.4"/>
      <point x="845.3999999999999" y="376.2" type="curve" smooth="yes"/>
      <point x="845.3999999999999" y="653.8"/>
      <point x="658.1999999999999" y="750.6"/>
      <point x="354.6" y="750.6" type="curve" smooth="yes"/>
      <point x="262.20000000000005" y="750.6"/>
      <point x="163.8" y="743.0"/>
      <point x="47.400000000000006" y="722.8000000000001" type="curve"/>
      <point x="60.2" y="613.4" type="line"/>
      <point x="175.0" y="628.8"/>
      <point x="234.6" y="634.6"/>
      <point x="309.20000000000005" y="634.6" type="curve" smooth="yes"/>
      <point x="560.6" y="634.6"/>
      <point x="639.6" y="576.6"/>
      <point x="639.6" y="359.8" type="curve" smooth="yes"/>
      <point x="639.6" y="185.0"/>
      <point x="582.5999999999999" y="121.6"/>
      <point x="443.0" y="121.6" type="curve" smooth="yes"/>
      <point x="321.4" y="121.6"/>
      <point x="259.79999999999995" y="169.4"/>
      <point x="259.79999999999995" y="260.6" type="curve" smooth="yes"/>
      <point x="259.79999999999995" y="354.2"/>
      <point x="317.59999999999997" y="402.19999999999993"/>
      <point x="447.40000000000003" y="402.19999999999993" type="curve" smooth="yes"/>
      <point x="532.4000000000001" y="402.19999999999993"/>
      <point x="610.8" y="382.4"/>
    </contour>
    <contour>
      <point x="283.8" y="534.5999999999999" type="line"/>
      <point x="557.4" y="643.0000000000001" type="line"/>
      <point x="556.4000000000001" y="649.9999999999999" type="line"/>
      <point x="830.1999999999999" y="759.2000000000002" type="line"/>
      <point x="632.4" y="759.2000000000002" type="line"/>
      <point x="458.40000000000003" y="689.8" type="line"/>
      <point x="472.20000000000005" y="687.8000000000001" type="line"/>
      <point x="85.6" y="534.6" type="line"/>
    </contour>
  </outline>
</glyph>
<glyph name="divide" format="2">
  <advance width="715.4"/>
  <unicode hex="00F7"/>
  <outline>
    <contour>
      <point x="265.8" y="98.6" type="curve" smooth="yes"/>
      <point x="265.8" y="53.60000000000001"/>
      <point x="291.20000000000005" y="32.60000000000001"/>
      <point x="358.0" y="32.60000000000001" type="curve" smooth="yes"/>
      <point x="425.79999999999995" y="32.60000000000001"/>
      <point x="450.59999999999997" y="53.60000000000001"/>
      <point x="450.59999999999997" y="98.6" type="curve" smooth="yes"/>
      <point x="450.59999999999997" y="144.4"/>
      <point x="425.8" y="166.0"/>
      <point x="358.0" y="166.0" type="curve" smooth="yes"/>
      <point x="290.6" y="166.0"/>
      <point x="265.8" y="144.4"/>
    </contour>
    <contour>
      <point x="265.8" y="521.0" type="curve" smooth="yes"/>
      <point x="265.8" y="476.6"/>
      <point x="291.2" y="455.0"/>
      <point x="358.0" y="455.0" type="curve" smooth="yes"/>
      <point x="425.79999999999995" y="455.0"/>
      <point x="450.59999999999997" y="476.6"/>
      <point x="450.59999999999997" y="521.0" type="curve" smooth="yes"/>
      <point x="450.59999999999997" y="567.4"/>
      <point x="425.79999999999995" y="588.4000000000001"/>
      <point x="358.0" y="588.4000000000001" type="curve" smooth="yes"/>
      <point x="290.6" y="588.4000000000001"/>
      <point x="265.8" y="567.4"/>
    </contour>
    <contour>
      <point x="61.20000000000001" y="235.20000000000005" type="line"/>
      <point x="654.8" y="235.20000000000005" type="line"/>
      <point x="654.8" y="384.40000000000003" type="line"/>
      <point x="61.20000000000001" y="384.40000000000003" type="line"/>
    </contour>
  </outline>
</glyph>
<glyph name="oslash" format="2">
  <advance width="899.2"/>
  <unicode hex="00F8"/>
  <anchor x="449.59999999999997" y="544.0" name="top"/>
  <outline>
    <contour>
      <point x="449.99999999999994" y="-10.0" type="curve" smooth="yes"/>
      <point x="166.79999999999998" y="-10.0"/>
      <point x="42.800000000000004" y="86.80000000000003"/>
      <point x="42.800000000000004" y="274.0" type="curve" smooth="yes"/>
      <point x="42.800000000000004" y="448.19999999999993"/>
      <point x="148.79999999999998" y="554.0"/>
      <point x="449.99999999999994" y="554.0" type="curve" smooth="yes"/>
      <point x="749.8" y="554.0"/>
      <point x="856.4000000000001" y="448.19999999999993"/>
      <point x="856.4000000000001" y="274.0" type="curve" smooth="yes"/>
      <point x="856.4000000000001" y="86.80000000000003"/>
      <point x="732.4" y="-10.0"/>
    </contour>
    <contour>
      <point x="449.59999999999997" y="110.8" type="curve" smooth="yes"/>
      <point x="586.6" y="110.8"/>
      <point x="643.2" y="171.19999999999996"/>
      <point x="643.2" y="273.59999999999997" type="curve" smooth="yes"/>
      <point x="643.2" y="368.8"/>
      <point x="596.2" y="433.2"/>
      <point x="449.59999999999997" y="433.2" type="curve" smooth="yes"/>
      <point x="303.3999999999999" y="433.2"/>
      <point x="255.99999999999997" y="368.8"/>
      <point x="255.99999999999997" y="273.59999999999997" type="curve" smooth="yes"/>
      <point x="255.99999999999997" y="171.19999999999996"/>
      <point x="311.99999999999994" y="110.8"/>
    </contour>
    <contour>
      <point x="42.8" y="-10.0" type="line"/>
      <point x="206.2" y="130.79999999999998" type="line"/>
      <point x="206.2" y="130.8" type="line"/>
      <point x="612.5999999999999" y="479.00000000000006" type="line"/>
      <point x="612.5999999999999" y="479.0" type="line"/>
      <point x="699.8" y="554.0" type="line"/>
      <point x="856.4000000000001" y="554.0" type="line"/>
      <point x="704.2" y="423.6" type="line"/>
      <point x="704.2" y="423.6" type="line"/>
      <point x="293.6" y="72.6" type="line"/>
      <point x="293.59999999999997" y="72.6" type="line"/>
      <point x="196.99999999999997" y="-10.0" type="line"/>
    </contour>
  </outline>
</glyph>
<glyph name="thorn" format="2">
  <advance width="908.5999999999999"/>
  <unicode hex="00FE"/>
  <outline>
    <contour>
      <point x="75.0" y="-210.0" type="line"/>
      <point x="291.7" y="-210.0" type="line"/>
      <point x="291.7" y="-0.09999999999999964" type="line"/>
      <point x="342.79999999999995" y="-6.6"/>
      <point x="396.7" y="-10.0"/>
      <point x="446.40000000000003" y="-10.0" type="curve" smooth="yes"/>
      <point x="738.5" y="-10.0"/>
      <point x="866.1" y="76.7"/>
      <point x="866.1" y="274.8" type="curve" smooth="yes"/>
      <point x="866.1" y="451.79999999999995"/>
      <point x="754.6" y="554.0"/>
      <point x="559.1" y="554.0" type="curve" smooth="yes"/>
      <point x="473.6" y="554.0"/>
      <point x="386.2" y="535.9"/>
      <point x="291.7" y="497.9" type="curve"/>
      <point x="291.7" y="740.0" type="line"/>
      <point x="75.0" y="740.0" type="line"/>
    </contour>
    <contour>
      <point x="448.5" y="122.39999999999999" type="curve" smooth="yes"/>
      <point x="400.79999999999995" y="122.39999999999999"/>
      <point x="345.90000000000003" y="128.6"/>
      <point x="291.0" y="141.3" type="curve"/>
      <point x="291.0" y="372.6" type="line"/>
      <point x="355.9" y="390.59999999999997"/>
      <point x="417.8" y="399.90000000000003"/>
      <point x="466.70000000000005" y="399.90000000000003" type="curve" smooth="yes"/>
      <point x="585.7" y="399.90000000000003"/>
      <point x="647.3" y="354.2"/>
      <point x="647.3" y="265.0" type="curve" smooth="yes"/>
      <point x="647.3" y="168.9"/>
      <point x="582.3" y="122.39999999999999"/>
    </contour>
  </outline>
</glyph>
<glyph name="Dcroat" format="2">
  <advance width="1148.8"/>
  <unicode hex="0110"/>
  <outline>
    <contour>
      <point x="14.399999999999999" y="288.00000000000006" type="line"/>
      <point x="537.8" y="288.00000000000006" type="line"/>
      <point x="537.8" y="423.2" type="line"/>
      <point x="14.399999999999999" y="423.2" type="line"/>
    </contour>
    <component base="D" xOffset="5.6000000000000005"/>
  </outline>
</glyph>
<glyph name="dcroat" format="2">
  <advance width="916.5999999999999"/>
  <unicode hex="0111"/>
  <outline>
    <contour>
      <point x="375.6" y="595.1999999999999" type="line"/>
      <point x="924.6" y="595.1999999999999" type="line"/>
      <point x="924.6" y="680.6" type="line"/>
      <point x="375.6" y="680.6" type="line"/>
    </contour>
    <component base="d"/>
  </outline>
</glyph>
<glyph name="Hbar" format="2">
  <advance width="1163.2"/>
  <unicode hex="0126"/>
  <outline>
    <contour>
      <point x="32.4" y="495.8" type="line"/>
      <point x="97.39999999999999" y="495.8" type="line"/>
      <point x="97.39999999999999" y="0.0" type="line"/>
      <point x="327.40000000000003" y="0.0" type="line"/>
      <point x="327.40000000000003" y="235.00000000000003" type="line"/>
      <point x="842.8000000000001" y="235.00000000000003" type="line"/>
      <point x="842.8000000000001" y="0.0" type="line"/>
      <point x="1065.8" y="0.0" type="line"/>
      <point x="1065.8" y="495.8" type="line"/>
      <point x="1130.8" y="495.8" type="line"/>
      <point x="1130.8" y="607.6" type="line"/>
      <point x="1065.8" y="607.6" type="line"/>
      <point x="1065.8" y="700.0" type="line"/>
      <point x="842.8000000000001" y="700.0" type="line"/>
      <point x="842.8000000000001" y="607.6" type="line"/>
      <point x="327.40000000000003" y="607.6" type="line"/>
      <point x="327.40000000000003" y="700.0" type="line"/>
      <point x="97.39999999999999" y="700.0" type="line"/>
      <point x="97.39999999999999" y="607.6" type="line"/>
      <point x="32.4" y="607.6" type="line"/>
    </contour>
    <contour>
      <point x="327.40000000000003" y="409.00000000000006" type="line"/>
      <point x="327.40000000000003" y="495.8" type="line"/>
      <point x="842.8000000000001" y="495.8" type="line"/>
      <point x="842.8000000000001" y="409.00000000000006" type="line"/>
    </contour>
  </outline>
</glyph>
<glyph name="hbar" format="2">
  <advance width="892.3"/>
  <unicode hex="0127"/>
  <outline>
    <contour>
      <point x="-9.0" y="594.9" type="line"/>
      <point x="558.6999999999999" y="594.9" type="line"/>
      <point x="558.6999999999999" y="673.1" type="line"/>
      <point x="-9.0" y="673.1" type="line"/>
    </contour>
    <component base="h"/>
  </outline>
</glyph>
<glyph name="Idotaccent" format="2">
  <advance width="420.20000000000005"/>
  <unicode hex="0130"/>
  <outline>
    <contour>
      <point x="210.1" y="755.1" type="curve" smooth="yes"/>
      <point x="305.9" y="755.1"/>
      <point x="341.2" y="782.0"/>
      <point x="341.2" y="837.2" type="curve" smooth="yes"/>
      <point x="341.2" y="892.4"/>
      <point x="305.9" y="919.3"/>
      <point x="210.1" y="919.3" type="curve" smooth="yes"/>
      <point x="114.30000000000001" y="919.3"/>
      <point x="79.0" y="892.4"/>
      <point x="79.0" y="837.2" type="curve" smooth="yes"/>
      <point x="79.0" y="782.0"/>
      <point x="114.6" y="755.1"/>
    </contour>
    <component base="I"/>
  </outline>
</glyph>
<glyph name="dotlessi" format="2">
  <advance width="366.0"/>
  <unicode hex="0131"/>
  <anchor x="269.7" y="7.0" name="ogonek"/>
  <anchor x="183.0" y="0.0" name="bottom"/>
  <anchor x="183.0" y="544.0" name="top"/>
  <outline>
    <contour>
      <point x="75.0" y="0.0" type="line"/>
      <point x="291.0" y="0.0" type="line"/>
      <point x="291.0" y="544.0" type="line"/>
      <point x="75.0" y="544.0" type="line"/>
    </contour>
  </outline>
</glyph>
<glyph name="kgreenlandic" format="2">
  <advance width="855.1999999999999"/>
  <unicode hex="0138"/>
  <anchor x="422.0" y="544.0" name="top"/>
  <anchor x="422.0" y="0.0" name="bottom"/>
  <outline>
    <contour>
      <point x="780.8" y="-10.000000000000002" type="curve" smooth="yes"/>
      <point x="803.0" y="-10.000000000000002"/>
      <point x="813.8" y="-9.600000000000001"/>
      <point x="822.9999999999999" y="-8.6" type="curve"/>
      <point x="821.8000000000001" y="173.59999999999997" type="line"/>
      <point x="812.6" y="172.6"/>
      <point x="803.8000000000001" y="172.6"/>
      <point x="794.8" y="172.6" type="curve" smooth="yes"/>
      <point x="743.6" y="172.6"/>
      <point x="680.6" y="194.6"/>
      <point x="535.4" y="275.59999999999997" type="curve" smooth="yes"/>
      <point x="284.0" y="415.59999999999997" type="line"/>
      <point x="284.0" y="544.0" type="line"/>
      <point x="75.0" y="544.0" type="line"/>
      <point x="75.0" y="0.0" type="line"/>
      <point x="284.0" y="0.0" type="line"/>
      <point x="284.0" y="225.00000000000003" type="line"/>
      <point x="508.8" y="93.60000000000001" type="line" smooth="yes"/>
      <point x="666.6" y="1.4"/>
      <point x="724.1999999999999" y="-10.000000000000002"/>
    </contour>
    <contour>
      <point x="462.4" y="263.6" type="line"/>
      <point x="568.0" y="312.6"/>
      <point x="741.6" y="414.8"/>
      <point x="801.9999999999999" y="540.1999999999998" type="curve"/>
      <point x="567.5999999999999" y="550.8" type="line"/>
      <point x="521.9999999999999" y="469.20000000000005"/>
      <point x="420.79999999999995" y="398.4"/>
      <point x="247.60000000000002" y="289.4" type="curve"/>
    </contour>
  </outline>
</glyph>
<glyph name="Ldot" format="2">
  <advance width="936.9"/>
  <unicode hex="013F"/>
  <outline>
    <contour>
      <point x="550.8" y="430.6" type="curve" smooth="yes"/>
      <point x="550.8" y="373.3"/>
      <point x="582.9" y="345.7"/>
      <point x="670.0" y="345.7" type="curve" smooth="yes"/>
      <point x="757.4" y="345.7"/>
      <point x="789.2" y="373.3"/>
      <point x="789.2" y="430.6" type="curve" smooth="yes"/>
      <point x="789.2" y="488.6"/>
      <point x="757.4" y="516.2"/>
      <point x="670.0" y="516.2" type="curve" smooth="yes"/>
      <point x="582.6" y="516.2"/>
      <point x="550.8" y="488.6"/>
    </contour>
    <component base="L"/>
  </outline>
</glyph>
<glyph name="ldot" format="2">
  <advance width="501.1"/>
  <unicode hex="0140"/>
  <outline>
    <contour>
      <point x="452.9" y="344.6" type="curve" smooth="yes"/>
      <point x="499.0" y="344.6"/>
      <point x="514.6999999999999" y="363.79999999999995"/>
      <point x="514.6999999999999" y="405.7" type="curve" smooth="yes"/>
      <point x="514.6999999999999" y="447.6"/>
      <point x="499.0" y="466.8"/>
      <point x="452.9" y="466.8" type="curve" smooth="yes"/>
      <point x="406.8" y="466.8"/>
      <point x="391.09999999999997" y="447.6"/>
      <point x="391.09999999999997" y="405.7" type="curve" smooth="yes"/>
      <point x="391.09999999999997" y="363.79999999999995"/>
      <point x="407.1" y="344.6"/>
    </contour>
    <component base="l"/>
  </outline>
</glyph>
<glyph name="Lslash" format="2">
  <advance width="936.9"/>
  <unicode hex="0141"/>
  <outline>
    <contour>
      <point x="6.4" y="150.4" type="line"/>
      <point x="95.10000000000001" y="192.9" type="line"/>
      <point x="95.10000000000001" y="0.0" type="line"/>
      <point x="903.6999999999999" y="0.0" type="line"/>
      <point x="903.6999999999999" y="174.0" type="line"/>
      <point x="325.1" y="174.0" type="line"/>
      <point x="325.1" y="291.4" type="line"/>
      <point x="633.5" y="439.6" type="line"/>
      <point x="633.5" y="606.4000000000001" type="line"/>
      <point x="325.1" y="458.2" type="line"/>
      <point x="325.1" y="700.0" type="line"/>
      <point x="95.10000000000001" y="700.0" type="line"/>
      <point x="95.10000000000001" y="359.7" type="line"/>
      <point x="6.4" y="317.2" type="line"/>
    </contour>
  </outline>
</glyph>
<glyph name="lslash" format="2">
  <advance width="501.1"/>
  <unicode hex="0142"/>
  <outline>
    <contour>
      <point x="287.5" y="-10.0" type="curve" smooth="yes"/>
      <point x="365.0" y="-10.0"/>
      <point x="443.3" y="2.1999999999999993"/>
      <point x="507.3" y="18.999999999999996" type="curve"/>
      <point x="482.3" y="166.39999999999998" type="line"/>
      <point x="438.6" y="157.99999999999997"/>
      <point x="402.3" y="152.09999999999997"/>
      <point x="372.20000000000005" y="152.09999999999997" type="curve" smooth="yes"/>
      <point x="329.2" y="152.09999999999997"/>
      <point x="298.0" y="167.49999999999997"/>
      <point x="298.0" y="227.5" type="curve" smooth="yes"/>
      <point x="298.0" y="302.6" type="line"/>
      <point x="441.6" y="392.3" type="line"/>
      <point x="441.6" y="538.6" type="line"/>
      <point x="298.0" y="448.90000000000003" type="line"/>
      <point x="298.0" y="740.0" type="line"/>
      <point x="82.0" y="740.0" type="line"/>
      <point x="82.0" y="351.2" type="line"/>
      <point x="7.200000000000003" y="304.7" type="line"/>
      <point x="7.200000000000003" y="158.4" type="line"/>
      <point x="83.4" y="205.60000000000002" type="line"/>
      <point x="84.8" y="168.0" type="line" smooth="yes"/>
      <point x="96.69999999999999" y="33.2"/>
      <point x="166.6" y="-10.0"/>
    </contour>
  </outline>
</glyph>
<glyph name="Eng" format="2">
  <advance width="1102.2"/>
  <unicode hex="014A"/>
  <outline>
    <contour>
      <point x="95.1" y="0.0" type="line"/>
      <point x="304.09999999999997" y="0.0" type="line"/>
      <point x="304.09999999999997" y="425.0" type="line"/>
      <point x="798.0999999999999" y="10.900000000000002" type="line"/>
      <point x="798.0999999999999" y="1.0" type="line" smooth="yes"/>
      <point x="796.3" y="-51.60000000000001"/>
      <point x="740.1" y="-76.80000000000001"/>
      <point x="654.7" y="-76.80000000000001" type="curve" smooth="yes"/>
      <point x="611.0" y="-76.80000000000001"/>
      <point x="557.4000000000001" y="-70.1"/>
      <point x="501.40000000000003" y="-59.2" type="curve"/>
      <point x="471.20000000000005" y="-201.70000000000002" type="line"/>
      <point x="536.3" y="-213.29999999999998"/>
      <point x="605.9" y="-220.0"/>
      <point x="671.5" y="-220.0" type="curve" smooth="yes"/>
      <point x="864.0" y="-220.0"/>
      <point x="1007.1" y="-158.39999999999998"/>
      <point x="1007.1" y="-10.0" type="curve" smooth="yes"/>
      <point x="1007.1" y="700.0" type="line"/>
      <point x="798.1" y="700.0" type="line"/>
      <point x="798.1" y="253.29999999999995" type="line"/>
      <point x="290.9" y="703.0" type="line"/>
      <point x="95.1" y="703.0" type="line"/>
    </contour>
  </outline>
</glyph>
<glyph name="eng" format="2">
  <advance width="892.3000000000001"/>
  <unicode hex="014B"/>
  <outline>
    <contour>
      <point x="817.3000000000001" y="42.5" type="curve"/>
      <point x="817.3000000000001" y="346.3" type="line" smooth="yes"/>
      <point x="817.3000000000001" y="461.6"/>
      <point x="739.0" y="554.0"/>
      <point x="565.8000000000001" y="554.0" type="curve" smooth="yes"/>
      <point x="457.1" y="554.0"/>
      <point x="381.3" y="523.4"/>
      <point x="269.3" y="469.79999999999995" type="curve"/>
      <point x="269.3" y="544.0" type="line"/>
      <point x="75.0" y="544.0" type="line"/>
      <point x="75.0" y="0.0" type="line"/>
      <point x="291.0" y="0.0" type="line"/>
      <point x="291.0" y="352.2" type="line"/>
      <point x="361.7" y="380.79999999999995"/>
      <point x="414.7" y="400.3"/>
      <point x="479.7" y="400.3" type="curve" smooth="yes"/>
      <point x="559.2" y="400.3"/>
      <point x="601.3" y="359.9"/>
      <point x="601.3" y="270.7" type="curve" smooth="yes"/>
      <point x="601.3" y="44.099999999999994" type="line" smooth="yes"/>
      <point x="601.3" y="-24.900000000000002"/>
      <point x="578.9000000000001" y="-50.7"/>
      <point x="535.3" y="-60.30000000000001" type="curve" smooth="yes"/>
      <point x="523.2" y="-62.100000000000016"/>
      <point x="508.30000000000007" y="-62.20000000000002"/>
      <point x="493.1" y="-62.0" type="curve"/>
      <point x="482.80000000000007" y="-209.5" type="line"/>
      <point x="512.3000000000001" y="-212.5"/>
      <point x="540.4000000000001" y="-212.8"/>
      <point x="566.5" y="-211.0" type="curve" smooth="yes"/>
      <point x="718.7" y="-200.5"/>
      <point x="817.3000000000001" y="-106.80000000000001"/>
    </contour>
  </outline>
</glyph>
<glyph name="OE" format="2">
  <advance width="1729.8"/>
  <unicode hex="0152"/>
  <outline>
    <contour>
      <point x="1683.8000000000002" y="0.0" type="line"/>
      <point x="1683.8000000000002" y="160.0" type="line"/>
      <point x="1044.2" y="160.0" type="line"/>
      <point x="1044.2" y="287.4" type="line"/>
      <point x="1622.8" y="287.4" type="line"/>
      <point x="1622.8" y="434.40000000000003" type="line"/>
      <point x="1044.2" y="434.40000000000003" type="line"/>
      <point x="1044.2" y="540.0" type="line"/>
      <point x="1654.8000000000002" y="540.0" type="line"/>
      <point x="1654.8000000000002" y="700.0" type="line"/>
      <point x="1044.2" y="700.0" type="line"/>
      <point x="899.8" y="704.0"/>
      <point x="761.0" y="710.0"/>
      <point x="579.8" y="710.0" type="curve" smooth="yes"/>
      <point x="230.0" y="710.0"/>
      <point x="52.800000000000004" y="577.6"/>
      <point x="52.800000000000004" y="356.0" type="curve" smooth="yes"/>
      <point x="52.800000000000004" y="93.2"/>
      <point x="245.39999999999998" y="-10.0"/>
      <point x="610.8000000000001" y="-10.0" type="curve" smooth="yes"/>
      <point x="788.0" y="-10.0"/>
      <point x="910.0" y="-5.4"/>
      <point x="1044.2" y="0.0" type="curve"/>
    </contour>
    <contour>
      <point x="817.8" y="140.39999999999998" type="line"/>
      <point x="771.6" y="138.39999999999998"/>
      <point x="687.8000000000001" y="134.6"/>
      <point x="585.2" y="134.6" type="curve" smooth="yes"/>
      <point x="430.6" y="134.6"/>
      <point x="286.59999999999997" y="185.6"/>
      <point x="286.59999999999997" y="353.6" type="curve" smooth="yes"/>
      <point x="286.59999999999997" y="506.4"/>
      <point x="430.40000000000003" y="565.0"/>
      <point x="568.8" y="565.0" type="curve" smooth="yes"/>
      <point x="646.2" y="565.0"/>
      <point x="756.8" y="559.6"/>
      <point x="817.8" y="558.1999999999999" type="curve"/>
    </contour>
  </outline>
</glyph>
<glyph name="oe" format="2">
  <advance width="1456.4"/>
  <unicode hex="0153"/>
  <outline>
    <contour>
      <point x="42.5" y="274.0" type="curve" smooth="yes"/>
      <point x="42.5" y="86.80000000000001"/>
      <point x="166.5" y="-10.0"/>
      <point x="450.0" y="-10.0" type="curve" smooth="yes"/>
      <point x="593.4" y="-10.0"/>
      <point x="689.7" y="22.5"/>
      <point x="745.7" y="83.80000000000001" type="curve"/>
      <point x="807.5999999999999" y="21.800000000000004"/>
      <point x="912.4000000000001" y="-10.0"/>
      <point x="1044.6" y="-10.0" type="curve" smooth="yes"/>
      <point x="1189.1" y="-10.0"/>
      <point x="1301.8000000000002" y="4.100000000000001"/>
      <point x="1406.8" y="25.0" type="curve"/>
      <point x="1383.9" y="158.4" type="line"/>
      <point x="1277.0" y="139.2"/>
      <point x="1154.3999999999999" y="124.1"/>
      <point x="1056.5" y="124.1" type="curve" smooth="yes"/>
      <point x="907.9" y="124.1"/>
      <point x="858.6" y="161.29999999999998"/>
      <point x="858.6" y="215.4" type="curve" smooth="yes"/>
      <point x="858.6" y="220.7"/>
      <point x="858.9000000000001" y="223.6"/>
      <point x="859.2" y="227.89999999999998" type="curve"/>
      <point x="1116.3" y="231.39999999999998"/>
      <point x="1305.0" y="243.4"/>
      <point x="1404.7" y="247.8" type="curve"/>
      <point x="1406.4" y="262.9"/>
      <point x="1406.4" y="284.3"/>
      <point x="1406.4" y="297.7" type="curve" smooth="yes"/>
      <point x="1406.4" y="474.5"/>
      <point x="1290.0" y="554.0"/>
      <point x="1051.6000000000001" y="554.0" type="curve" smooth="yes"/>
      <point x="933.8" y="554.0"/>
      <point x="824.3" y="520.6999999999999"/>
      <point x="759.8000000000001" y="450.8" type="curve"/>
      <point x="704.8000000000001" y="515.8000000000001"/>
      <point x="608.6999999999999" y="554.0"/>
      <point x="450.0" y="554.0" type="curve" smooth="yes"/>
      <point x="148.8" y="554.0"/>
      <point x="42.5" y="448.2"/>
    </contour>
    <contour>
      <point x="262.0" y="273.3" type="curve" smooth="yes"/>
      <point x="262.0" y="365.0"/>
      <point x="308.29999999999995" y="429.7"/>
      <point x="449.29999999999995" y="429.7" type="curve" smooth="yes"/>
      <point x="591.0" y="429.7"/>
      <point x="636.6" y="365.0"/>
      <point x="636.6" y="273.3" type="curve" smooth="yes"/>
      <point x="636.6" y="175.1"/>
      <point x="581.7" y="114.3"/>
      <point x="449.29999999999995" y="114.3" type="curve" smooth="yes"/>
      <point x="316.9" y="114.3"/>
      <point x="262.0" y="175.1"/>
    </contour>
    <contour>
      <point x="861.1" y="332.59999999999997" type="curve"/>
      <point x="881.9" y="403.9"/>
      <point x="961.4000000000001" y="426.90000000000003"/>
      <point x="1038.3" y="426.90000000000003" type="curve" smooth="yes"/>
      <point x="1132.3999999999999" y="426.90000000000003"/>
      <point x="1174.0" y="396.7"/>
      <point x="1184.5" y="342.1" type="curve"/>
      <point x="1129.5" y="339.8"/>
      <point x="1003.0999999999999" y="333.3"/>
    </contour>
  </outline>
</glyph>
<glyph name="uni0162" format="2">
  <advance width="995.6"/>
  <unicode hex="0162"/>
  <outline>
    <contour>
      <point x="345.6" y="-88.10000000000001" type="curve"/>
      <point x="339.0" y="-199.9" type="line"/>
      <point x="389.3" y="-213.6"/>
      <point x="432.7" y="-220.0"/>
      <point x="470.0" y="-220.0" type="curve" smooth="yes"/>
      <point x="603.5" y="-220.0"/>
      <point x="656.9" y="-156.5"/>
      <point x="656.9" y="-85.2" type="curve" smooth="yes"/>
      <point x="656.9" y="-48.99999999999999"/>
      <point x="636.3" y="-17.299999999999997"/>
      <point x="598.2" y="8.5" type="curve"/>
      <point x="422.7" y="6.999999999999999" type="line"/>
      <point x="453.4" y="-9.700000000000001"/>
      <point x="478.0" y="-27.0"/>
      <point x="478.0" y="-51.60000000000001" type="curve" smooth="yes"/>
      <point x="478.0" y="-84.30000000000001"/>
      <point x="456.50000000000006" y="-100.60000000000001"/>
      <point x="408.4" y="-100.60000000000001" type="curve" smooth="yes"/>
      <point x="392.7" y="-100.60000000000001"/>
      <point x="367.0" y="-96.30000000000001"/>
    </contour>
    <component base="T"/>
  </outline>
</glyph>
<glyph name="Tbar" format="2">
  <advance width="1009.6"/>
  <unicode hex="0166"/>
  <outline>
    <contour>
      <point x="153.1" y="235.60000000000002" type="line"/>
      <point x="389.8" y="235.60000000000002" type="line"/>
      <point x="389.8" y="0.0" type="line"/>
      <point x="619.8" y="0.0" type="line"/>
      <point x="619.8" y="235.60000000000002" type="line"/>
      <point x="856.5" y="235.60000000000002" type="line"/>
      <point x="856.5" y="388.59999999999997" type="line"/>
      <point x="619.8" y="388.59999999999997" type="line"/>
      <point x="619.8" y="526.6" type="line"/>
      <point x="983.3" y="526.6" type="line"/>
      <point x="983.3" y="700.0" type="line"/>
      <point x="26.299999999999997" y="700.0" type="line"/>
      <point x="26.299999999999997" y="526.6" type="line"/>
      <point x="389.8" y="526.6" type="line"/>
      <point x="389.8" y="388.59999999999997" type="line"/>
      <point x="153.1" y="388.59999999999997" type="line"/>
    </contour>
  </outline>
</glyph>
<glyph name="tbar" format="2">
  <advance width="645.8"/>
  <unicode hex="0167"/>
  <outline>
    <contour>
      <point x="354.8" y="264.20000000000005" type="line"/>
      <point x="557.6" y="264.20000000000005" type="line"/>
      <point x="557.6" y="360.8" type="line"/>
      <point x="354.8" y="360.8" type="line"/>
      <point x="354.8" y="425.80000000000007" type="line"/>
      <point x="592.8000000000001" y="425.80000000000007" type="line"/>
      <point x="592.8000000000001" y="544.0" type="line"/>
      <point x="354.8" y="544.0" type="line"/>
      <point x="354.8" y="665.0" type="line"/>
      <point x="161.0" y="665.0" type="line"/>
      <point x="138.79999999999998" y="544.0" type="line"/>
      <point x="6.4" y="528.8" type="line"/>
      <point x="6.4" y="425.8" type="line"/>
      <point x="138.79999999999998" y="425.8" type="line"/>
      <point x="138.79999999999998" y="360.8" type="line"/>
      <point x="30.400000000000002" y="360.8" type="line"/>
      <point x="30.400000000000002" y="264.20000000000005" type="line"/>
      <point x="138.79999999999998" y="264.20000000000005" type="line"/>
      <point x="138.79999999999998" y="214.2" type="line" smooth="yes"/>
      <point x="138.79999999999998" y="52.199999999999996"/>
      <point x="229.59999999999997" y="-10.0"/>
      <point x="375.59999999999997" y="-10.0" type="curve" smooth="yes"/>
      <point x="459.0" y="-10.0"/>
      <point x="533.4" y="3.0000000000000004"/>
      <point x="622.2" y="25.0" type="curve"/>
      <point x="596.6000000000001" y="174.2" type="line"/>
      <point x="541.3999999999999" y="158.2"/>
      <point x="493.20000000000005" y="150.0"/>
      <point x="450.6" y="150.0" type="curve" smooth="yes"/>
      <point x="382.2" y="150.0"/>
      <point x="354.8" y="174.6"/>
      <point x="354.8" y="214.20000000000002" type="curve" smooth="yes"/>
    </contour>
  </outline>
</glyph>
<glyph name="uogonek" format="2">
  <advance width="902.1999999999999"/>
  <unicode hex="0173"/>
  <outline>
    <contour>
      <point x="803.6" y="-194.4" type="curve" smooth="yes"/>
      <point x="845.0" y="-194.4"/>
      <point x="876.5" y="-191.0"/>
      <point x="899.0" y="-184.2" type="curve"/>
      <point x="894.8" y="-81.5" type="line"/>
      <point x="887.0" y="-83.10000000000001"/>
      <point x="878.2" y="-84.4"/>
      <point x="866.8" y="-84.4" type="curve" smooth="yes"/>
      <point x="833.9" y="-84.4"/>
      <point x="811.2" y="-74.00000000000001"/>
      <point x="811.2" y="-42.9" type="curve" smooth="yes"/>
      <point x="811.2" y="-9.5"/>
      <point x="842.6" y="13.399999999999997"/>
      <point x="897.1" y="25.599999999999998" type="curve"/>
      <point x="878.5" y="142.4" type="line"/>
      <point x="868.9000000000001" y="138.1"/>
      <point x="860.1" y="136.5"/>
      <point x="850.2" y="136.5" type="curve" smooth="yes"/>
      <point x="825.8" y="136.5"/>
      <point x="804.4" y="152.2"/>
      <point x="804.4" y="197.8" type="curve" smooth="yes"/>
      <point x="804.4" y="544.0" type="line"/>
      <point x="588.4" y="544.0" type="line"/>
      <point x="588.4" y="187.29999999999998" type="line"/>
      <point x="517.8000000000001" y="157.2"/>
      <point x="473.7" y="140.9"/>
      <point x="409.90000000000003" y="140.9" type="curve" smooth="yes"/>
      <point x="333.79999999999995" y="140.9"/>
      <point x="291.0" y="179.8"/>
      <point x="291.0" y="257.5" type="curve" smooth="yes"/>
      <point x="291.0" y="544.0" type="line"/>
      <point x="75.0" y="544.0" type="line"/>
      <point x="75.0" y="191.7" type="line" smooth="yes"/>
      <point x="75.0" y="69.8"/>
      <point x="167.20000000000002" y="-10.0"/>
      <point x="321.70000000000005" y="-10.0" type="curve" smooth="yes"/>
      <point x="433.0" y="-10.0"/>
      <point x="515.0999999999999" y="20.600000000000005"/>
      <point x="616.3000000000001" y="71.69999999999999" type="curve"/>
      <point x="642.8" y="15.100000000000001"/>
      <point x="684.9" y="-10.0"/>
      <point x="757.0" y="-10.0" type="curve" smooth="yes"/>
      <point x="779.0" y="-10.0"/>
      <point x="797.9" y="-7.7"/>
      <point x="819.2" y="-2.2" type="curve"/>
      <point x="780.2" y="19.4" type="line"/>
      <point x="722.4000000000001" y="7.9999999999999964"/>
      <point x="657.6" y="-35.0"/>
      <point x="657.6" y="-96.7" type="curve" smooth="yes"/>
      <point x="657.6" y="-160.4"/>
      <point x="719.5" y="-194.4"/>
    </contour>
  </outline>
</glyph>
<glyph name="longs" format="2">
  <advance width="564.5"/>
  <unicode hex="017F"/>
  <outline>
    <contour>
      <point x="354.1" y="494.8" type="line"/>
      <point x="354.1" y="577.1"/>
      <point x="423.0" y="599.4"/>
      <point x="489.2" y="599.4" type="curve" smooth="yes"/>
      <point x="550.2" y="599.4"/>
      <point x="614.6999999999999" y="587.9"/>
      <point x="658.4000000000001" y="576.4" type="curve"/>
      <point x="682.3" y="716.1" type="line"/>
      <point x="608.6" y="737.5999999999999"/>
      <point x="528.6" y="750.3"/>
      <point x="446.7" y="750.3" type="curve" smooth="yes"/>
      <point x="275.2" y="750.3"/>
      <point x="138.1" y="683.2"/>
      <point x="138.1" y="499.70000000000005" type="curve" smooth="yes"/>
      <point x="138.1" y="484.0" type="line"/>
      <point x="23.299999999999997" y="468.5" type="line"/>
      <point x="23.299999999999997" y="352.70000000000005" type="line"/>
      <point x="138.1" y="352.70000000000005" type="line"/>
      <point x="138.1" y="0.0" type="line"/>
      <point x="354.1" y="0.0" type="line"/>
    </contour>
  </outline>
</glyph>
